solid OpenSCAD_Model
  facet normal -1 0 0
    outer loop
      vertex 0 98.8172 81.133
      vertex 0 175.34 91.17
      vertex 0 175.34 0
    endloop
  endfacet
  facet normal -1 0 0
    outer loop
      vertex 0 175.34 91.17
      vertex 0 101.936 86.5347
      vertex 0 102.588 89.6021
    endloop
  endfacet
  facet normal -1 0 0
    outer loop
      vertex 0 175.34 91.17
      vertex 0 100.66 83.67
      vertex 0 101.936 86.5347
    endloop
  endfacet
  facet normal -1 0 0
    outer loop
      vertex 0 175.34 91.17
      vertex 0 98.8172 81.133
      vertex 0 100.66 83.67
    endloop
  endfacet
  facet normal -1 0 0
    outer loop
      vertex 0 175.34 0
      vertex 0 96.4868 79.0347
      vertex 0 98.8172 81.133
    endloop
  endfacet
  facet normal -1 0 0
    outer loop
      vertex 0 175.34 0
      vertex 0 93.771 77.4668
      vertex 0 96.4868 79.0347
    endloop
  endfacet
  facet normal -1 0 0
    outer loop
      vertex 0 175.34 0
      vertex 0 90.7887 76.4978
      vertex 0 93.771 77.4668
    endloop
  endfacet
  facet normal -1 0 0
    outer loop
      vertex 0 175.34 0
      vertex 0 87.67 76.17
      vertex 0 90.7887 76.4978
    endloop
  endfacet
  facet normal -1 0 0
    outer loop
      vertex 0 0 0
      vertex 0 87.67 76.17
      vertex 0 175.34 0
    endloop
  endfacet
  facet normal -1 -0 0
    outer loop
      vertex 0 87.67 76.17
      vertex 0 0 0
      vertex 0 84.5513 76.4978
    endloop
  endfacet
  facet normal -1 -0 0
    outer loop
      vertex 0 84.5513 76.4978
      vertex 0 0 0
      vertex 0 81.5689 77.4668
    endloop
  endfacet
  facet normal -1 -0 0
    outer loop
      vertex 0 81.5689 77.4668
      vertex 0 0 0
      vertex 0 78.8532 79.0347
    endloop
  endfacet
  facet normal -1 0 0
    outer loop
      vertex 0 0 0
      vertex 0 76.5228 81.133
      vertex 0 78.8532 79.0347
    endloop
  endfacet
  facet normal -1 0 0
    outer loop
      vertex 0 0 91.17
      vertex 0 76.5228 81.133
      vertex 0 0 0
    endloop
  endfacet
  facet normal -1 0 0
    outer loop
      vertex 0 76.5228 81.133
      vertex 0 0 91.17
      vertex 0 74.6796 83.67
    endloop
  endfacet
  facet normal -1 0 0
    outer loop
      vertex 0 74.6796 83.67
      vertex 0 0 91.17
      vertex 0 73.4042 86.5347
    endloop
  endfacet
  facet normal -1 0 0
    outer loop
      vertex 0 73.4042 86.5347
      vertex 0 0 91.17
      vertex 0 72.7522 89.6021
    endloop
  endfacet
  facet normal -1 0 0
    outer loop
      vertex 0 72.7522 89.6021
      vertex 0 0 91.17
      vertex 0 72.7522 91.17
    endloop
  endfacet
  facet normal -1 -0 0
    outer loop
      vertex 0 175.34 91.17
      vertex 0 102.588 89.6021
      vertex 0 102.588 91.17
    endloop
  endfacet
  facet normal 0 0 1
    outer loop
      vertex 0.959999 72.7522 91.17
      vertex 0 72.7522 91.17
      vertex 0.959999 0.959999 91.17
    endloop
  endfacet
  facet normal 0 0 1
    outer loop
      vertex 67.88 0.959999 91.17
      vertex 68.84 72.7522 91.17
      vertex 67.88 72.7522 91.17
    endloop
  endfacet
  facet normal 0 0 1
    outer loop
      vertex 68.84 72.7522 91.17
      vertex 67.88 0.959999 91.17
      vertex 68.84 0 91.17
    endloop
  endfacet
  facet normal -0 0 1
    outer loop
      vertex 0.959999 0.959999 91.17
      vertex 68.84 0 91.17
      vertex 67.88 0.959999 91.17
    endloop
  endfacet
  facet normal 0 0 1
    outer loop
      vertex 0.959999 0.959999 91.17
      vertex 0 0 91.17
      vertex 68.84 0 91.17
    endloop
  endfacet
  facet normal 0 0 1
    outer loop
      vertex 0 0 91.17
      vertex 0.959999 0.959999 91.17
      vertex 0 72.7522 91.17
    endloop
  endfacet
  facet normal 0 0 1
    outer loop
      vertex 68.84 175.34 91.17
      vertex 67.88 174.38 91.17
      vertex 68.84 102.588 91.17
    endloop
  endfacet
  facet normal 0 0 1
    outer loop
      vertex 68.84 175.34 91.17
      vertex 0.959999 174.38 91.17
      vertex 67.88 174.38 91.17
    endloop
  endfacet
  facet normal -0 0 1
    outer loop
      vertex 0 175.34 91.17
      vertex 0.959999 174.38 91.17
      vertex 68.84 175.34 91.17
    endloop
  endfacet
  facet normal 0 0 1
    outer loop
      vertex 0 102.588 91.17
      vertex 0.959999 174.38 91.17
      vertex 0 175.34 91.17
    endloop
  endfacet
  facet normal 0 0 1
    outer loop
      vertex 0.959999 174.38 91.17
      vertex 0 102.588 91.17
      vertex 0.959999 102.588 91.17
    endloop
  endfacet
  facet normal 0 0 1
    outer loop
      vertex 68.84 102.588 91.17
      vertex 67.88 174.38 91.17
      vertex 67.88 102.588 91.17
    endloop
  endfacet
  facet normal 1 0 0
    outer loop
      vertex 68.84 72.7522 91.17
      vertex 68.84 0 91.17
      vertex 68.84 72.7522 89.6021
    endloop
  endfacet
  facet normal 1 0 0
    outer loop
      vertex 68.84 102.588 89.6021
      vertex 68.84 175.34 91.17
      vertex 68.84 102.588 91.17
    endloop
  endfacet
  facet normal 1 0 0
    outer loop
      vertex 68.84 101.936 86.5347
      vertex 68.84 175.34 91.17
      vertex 68.84 102.588 89.6021
    endloop
  endfacet
  facet normal 1 0 0
    outer loop
      vertex 68.84 100.66 83.67
      vertex 68.84 175.34 91.17
      vertex 68.84 101.936 86.5347
    endloop
  endfacet
  facet normal 1 0 0
    outer loop
      vertex 68.84 98.8172 81.133
      vertex 68.84 175.34 91.17
      vertex 68.84 100.66 83.67
    endloop
  endfacet
  facet normal 1 0 0
    outer loop
      vertex 68.84 175.34 91.17
      vertex 68.84 98.8172 81.133
      vertex 68.84 175.34 0
    endloop
  endfacet
  facet normal 1 -0 0
    outer loop
      vertex 68.84 96.4868 79.0347
      vertex 68.84 175.34 0
      vertex 68.84 98.8172 81.133
    endloop
  endfacet
  facet normal 1 -0 0
    outer loop
      vertex 68.84 93.771 77.4668
      vertex 68.84 175.34 0
      vertex 68.84 96.4868 79.0347
    endloop
  endfacet
  facet normal 1 -0 0
    outer loop
      vertex 68.84 90.7887 76.4978
      vertex 68.84 175.34 0
      vertex 68.84 93.771 77.4668
    endloop
  endfacet
  facet normal 1 -0 0
    outer loop
      vertex 68.84 87.67 76.17
      vertex 68.84 175.34 0
      vertex 68.84 90.7887 76.4978
    endloop
  endfacet
  facet normal 1 0 0
    outer loop
      vertex 68.84 0 0
      vertex 68.84 87.67 76.17
      vertex 68.84 84.5513 76.4978
    endloop
  endfacet
  facet normal 1 0 0
    outer loop
      vertex 68.84 0 0
      vertex 68.84 84.5513 76.4978
      vertex 68.84 81.5689 77.4668
    endloop
  endfacet
  facet normal 1 0 0
    outer loop
      vertex 68.84 0 0
      vertex 68.84 81.5689 77.4668
      vertex 68.84 78.8532 79.0347
    endloop
  endfacet
  facet normal 1 0 0
    outer loop
      vertex 68.84 0 91.17
      vertex 68.84 73.4042 86.5347
      vertex 68.84 72.7522 89.6021
    endloop
  endfacet
  facet normal 1 0 0
    outer loop
      vertex 68.84 0 91.17
      vertex 68.84 74.6796 83.67
      vertex 68.84 73.4042 86.5347
    endloop
  endfacet
  facet normal 1 0 0
    outer loop
      vertex 68.84 0 91.17
      vertex 68.84 76.5228 81.133
      vertex 68.84 74.6796 83.67
    endloop
  endfacet
  facet normal 1 0 0
    outer loop
      vertex 68.84 0 0
      vertex 68.84 76.5228 81.133
      vertex 68.84 0 91.17
    endloop
  endfacet
  facet normal 1 0 0
    outer loop
      vertex 68.84 76.5228 81.133
      vertex 68.84 0 0
      vertex 68.84 78.8532 79.0347
    endloop
  endfacet
  facet normal 1 0 0
    outer loop
      vertex 68.84 87.67 76.17
      vertex 68.84 0 0
      vertex 68.84 175.34 0
    endloop
  endfacet
  facet normal 0 0 -1
    outer loop
      vertex 0 0 0
      vertex 68.84 175.34 0
      vertex 68.84 0 0
    endloop
  endfacet
  facet normal -0 0 -1
    outer loop
      vertex 68.84 175.34 0
      vertex 0 0 0
      vertex 0 175.34 0
    endloop
  endfacet
  facet normal 0 -1 0
    outer loop
      vertex 0 0 0
      vertex 68.84 0 91.17
      vertex 0 0 91.17
    endloop
  endfacet
  facet normal 0 -1 -0
    outer loop
      vertex 68.84 0 91.17
      vertex 0 0 0
      vertex 68.84 0 0
    endloop
  endfacet
  facet normal 0 1 -0
    outer loop
      vertex 68.84 175.34 0
      vertex 0 175.34 91.17
      vertex 68.84 175.34 91.17
    endloop
  endfacet
  facet normal 0 1 0
    outer loop
      vertex 0 175.34 91.17
      vertex 68.84 175.34 0
      vertex 0 175.34 0
    endloop
  endfacet
  facet normal 1 0 0
    outer loop
      vertex 0.959999 72.7522 91.17
      vertex 0.959999 0.959999 91.17
      vertex 0.959999 72.7522 89.6021
    endloop
  endfacet
  facet normal 1 0 0
    outer loop
      vertex 0.959999 102.588 89.6021
      vertex 0.959999 174.38 91.17
      vertex 0.959999 102.588 91.17
    endloop
  endfacet
  facet normal 1 0 0
    outer loop
      vertex 0.959999 101.936 86.5347
      vertex 0.959999 174.38 91.17
      vertex 0.959999 102.588 89.6021
    endloop
  endfacet
  facet normal 1 0 0
    outer loop
      vertex 0.959999 100.66 83.67
      vertex 0.959999 174.38 91.17
      vertex 0.959999 101.936 86.5347
    endloop
  endfacet
  facet normal 1 0 0
    outer loop
      vertex 0.959999 98.8172 81.133
      vertex 0.959999 174.38 91.17
      vertex 0.959999 100.66 83.67
    endloop
  endfacet
  facet normal 1 0 0
    outer loop
      vertex 0.959999 174.38 91.17
      vertex 0.959999 98.8172 81.133
      vertex 0.959999 174.38 0.959999
    endloop
  endfacet
  facet normal 1 -0 0
    outer loop
      vertex 0.959999 96.4868 79.0347
      vertex 0.959999 174.38 0.959999
      vertex 0.959999 98.8172 81.133
    endloop
  endfacet
  facet normal 1 -0 0
    outer loop
      vertex 0.959999 93.771 77.4668
      vertex 0.959999 174.38 0.959999
      vertex 0.959999 96.4868 79.0347
    endloop
  endfacet
  facet normal 1 -0 0
    outer loop
      vertex 0.959999 90.7887 76.4978
      vertex 0.959999 174.38 0.959999
      vertex 0.959999 93.771 77.4668
    endloop
  endfacet
  facet normal 1 -0 0
    outer loop
      vertex 0.959999 87.67 76.17
      vertex 0.959999 174.38 0.959999
      vertex 0.959999 90.7887 76.4978
    endloop
  endfacet
  facet normal 1 0 0
    outer loop
      vertex 0.959999 0.959999 0.959999
      vertex 0.959999 87.67 76.17
      vertex 0.959999 84.5513 76.4978
    endloop
  endfacet
  facet normal 1 0 0
    outer loop
      vertex 0.959999 0.959999 0.959999
      vertex 0.959999 84.5513 76.4978
      vertex 0.959999 81.5689 77.4668
    endloop
  endfacet
  facet normal 1 0 0
    outer loop
      vertex 0.959999 0.959999 0.959999
      vertex 0.959999 81.5689 77.4668
      vertex 0.959999 78.8532 79.0347
    endloop
  endfacet
  facet normal 1 0 0
    outer loop
      vertex 0.959999 0.959999 91.17
      vertex 0.959999 73.4042 86.5347
      vertex 0.959999 72.7522 89.6021
    endloop
  endfacet
  facet normal 1 0 0
    outer loop
      vertex 0.959999 0.959999 91.17
      vertex 0.959999 74.6796 83.67
      vertex 0.959999 73.4042 86.5347
    endloop
  endfacet
  facet normal 1 0 0
    outer loop
      vertex 0.959999 0.959999 91.17
      vertex 0.959999 76.5228 81.133
      vertex 0.959999 74.6796 83.67
    endloop
  endfacet
  facet normal 1 0 0
    outer loop
      vertex 0.959999 0.959999 0.959999
      vertex 0.959999 76.5228 81.133
      vertex 0.959999 0.959999 91.17
    endloop
  endfacet
  facet normal 1 0 0
    outer loop
      vertex 0.959999 76.5228 81.133
      vertex 0.959999 0.959999 0.959999
      vertex 0.959999 78.8532 79.0347
    endloop
  endfacet
  facet normal 1 0 0
    outer loop
      vertex 0.959999 87.67 76.17
      vertex 0.959999 0.959999 0.959999
      vertex 0.959999 174.38 0.959999
    endloop
  endfacet
  facet normal -1 0 0
    outer loop
      vertex 67.88 98.8172 81.133
      vertex 67.88 174.38 91.17
      vertex 67.88 174.38 0.959999
    endloop
  endfacet
  facet normal -1 0 0
    outer loop
      vertex 67.88 174.38 91.17
      vertex 67.88 101.936 86.5347
      vertex 67.88 102.588 89.6021
    endloop
  endfacet
  facet normal -1 0 0
    outer loop
      vertex 67.88 174.38 91.17
      vertex 67.88 100.66 83.67
      vertex 67.88 101.936 86.5347
    endloop
  endfacet
  facet normal -1 0 0
    outer loop
      vertex 67.88 174.38 91.17
      vertex 67.88 98.8172 81.133
      vertex 67.88 100.66 83.67
    endloop
  endfacet
  facet normal -1 0 0
    outer loop
      vertex 67.88 174.38 0.959999
      vertex 67.88 96.4868 79.0347
      vertex 67.88 98.8172 81.133
    endloop
  endfacet
  facet normal -1 0 0
    outer loop
      vertex 67.88 174.38 0.959999
      vertex 67.88 93.771 77.4668
      vertex 67.88 96.4868 79.0347
    endloop
  endfacet
  facet normal -1 0 0
    outer loop
      vertex 67.88 174.38 0.959999
      vertex 67.88 90.7887 76.4978
      vertex 67.88 93.771 77.4668
    endloop
  endfacet
  facet normal -1 0 0
    outer loop
      vertex 67.88 174.38 0.959999
      vertex 67.88 87.67 76.17
      vertex 67.88 90.7887 76.4978
    endloop
  endfacet
  facet normal -1 0 0
    outer loop
      vertex 67.88 0.959999 0.959999
      vertex 67.88 87.67 76.17
      vertex 67.88 174.38 0.959999
    endloop
  endfacet
  facet normal -1 -0 0
    outer loop
      vertex 67.88 87.67 76.17
      vertex 67.88 0.959999 0.959999
      vertex 67.88 84.5513 76.4978
    endloop
  endfacet
  facet normal -1 -0 0
    outer loop
      vertex 67.88 84.5513 76.4978
      vertex 67.88 0.959999 0.959999
      vertex 67.88 81.5689 77.4668
    endloop
  endfacet
  facet normal -1 -0 0
    outer loop
      vertex 67.88 81.5689 77.4668
      vertex 67.88 0.959999 0.959999
      vertex 67.88 78.8532 79.0347
    endloop
  endfacet
  facet normal -1 0 0
    outer loop
      vertex 67.88 0.959999 0.959999
      vertex 67.88 76.5228 81.133
      vertex 67.88 78.8532 79.0347
    endloop
  endfacet
  facet normal -1 0 0
    outer loop
      vertex 67.88 0.959999 91.17
      vertex 67.88 76.5228 81.133
      vertex 67.88 0.959999 0.959999
    endloop
  endfacet
  facet normal -1 0 0
    outer loop
      vertex 67.88 76.5228 81.133
      vertex 67.88 0.959999 91.17
      vertex 67.88 74.6796 83.67
    endloop
  endfacet
  facet normal -1 0 0
    outer loop
      vertex 67.88 74.6796 83.67
      vertex 67.88 0.959999 91.17
      vertex 67.88 73.4042 86.5347
    endloop
  endfacet
  facet normal -1 0 0
    outer loop
      vertex 67.88 73.4042 86.5347
      vertex 67.88 0.959999 91.17
      vertex 67.88 72.7522 89.6021
    endloop
  endfacet
  facet normal -1 0 0
    outer loop
      vertex 67.88 72.7522 89.6021
      vertex 67.88 0.959999 91.17
      vertex 67.88 72.7522 91.17
    endloop
  endfacet
  facet normal -1 -0 0
    outer loop
      vertex 67.88 174.38 91.17
      vertex 67.88 102.588 89.6021
      vertex 67.88 102.588 91.17
    endloop
  endfacet
  facet normal 0 -1 0
    outer loop
      vertex 0.959999 174.38 0.959999
      vertex 67.88 174.38 91.17
      vertex 0.959999 174.38 91.17
    endloop
  endfacet
  facet normal 0 -1 -0
    outer loop
      vertex 67.88 174.38 91.17
      vertex 0.959999 174.38 0.959999
      vertex 67.88 174.38 0.959999
    endloop
  endfacet
  facet normal -0 0 1
    outer loop
      vertex 0.959999 174.38 0.959999
      vertex 67.88 0.959999 0.959999
      vertex 67.88 174.38 0.959999
    endloop
  endfacet
  facet normal 0 0 1
    outer loop
      vertex 67.88 0.959999 0.959999
      vertex 0.959999 174.38 0.959999
      vertex 0.959999 0.959999 0.959999
    endloop
  endfacet
  facet normal 0 1 -0
    outer loop
      vertex 67.88 0.959999 0.959999
      vertex 0.959999 0.959999 91.17
      vertex 67.88 0.959999 91.17
    endloop
  endfacet
  facet normal 0 1 0
    outer loop
      vertex 0.959999 0.959999 91.17
      vertex 67.88 0.959999 0.959999
      vertex 0.959999 0.959999 0.959999
    endloop
  endfacet
  facet normal 0 -0.10453 0.994522
    outer loop
      vertex 0 90.7887 76.4978
      vertex 0.959999 87.67 76.17
      vertex 0.959999 90.7887 76.4978
    endloop
  endfacet
  facet normal 0 -0.10453 0.994522
    outer loop
      vertex 0.959999 87.67 76.17
      vertex 0 90.7887 76.4978
      vertex 0 87.67 76.17
    endloop
  endfacet
  facet normal 0 -0.10453 0.994522
    outer loop
      vertex 67.88 90.7887 76.4978
      vertex 68.84 87.67 76.17
      vertex 68.84 90.7887 76.4978
    endloop
  endfacet
  facet normal 0 -0.10453 0.994522
    outer loop
      vertex 68.84 87.67 76.17
      vertex 67.88 90.7887 76.4978
      vertex 67.88 87.67 76.17
    endloop
  endfacet
  facet normal 0 0.978148 0.207911
    outer loop
      vertex 0.959999 73.4042 86.5347
      vertex 0 72.7522 89.6021
      vertex 0.959999 72.7522 89.6021
    endloop
  endfacet
  facet normal 0 0.978148 0.207911
    outer loop
      vertex 0 72.7522 89.6021
      vertex 0.959999 73.4042 86.5347
      vertex 0 73.4042 86.5347
    endloop
  endfacet
  facet normal 0 0.978148 0.207911
    outer loop
      vertex 68.84 73.4042 86.5347
      vertex 67.88 72.7522 89.6021
      vertex 68.84 72.7522 89.6021
    endloop
  endfacet
  facet normal 0 0.978148 0.207911
    outer loop
      vertex 67.88 72.7522 89.6021
      vertex 68.84 73.4042 86.5347
      vertex 67.88 73.4042 86.5347
    endloop
  endfacet
  facet normal 0 -0.669131 0.743144
    outer loop
      vertex 0 98.8172 81.133
      vertex 0.959999 96.4868 79.0347
      vertex 0.959999 98.8172 81.133
    endloop
  endfacet
  facet normal 0 -0.669131 0.743144
    outer loop
      vertex 0.959999 96.4868 79.0347
      vertex 0 98.8172 81.133
      vertex 0 96.4868 79.0347
    endloop
  endfacet
  facet normal 0 -0.669131 0.743144
    outer loop
      vertex 67.88 98.8172 81.133
      vertex 68.84 96.4868 79.0347
      vertex 68.84 98.8172 81.133
    endloop
  endfacet
  facet normal 0 -0.669131 0.743144
    outer loop
      vertex 68.84 96.4868 79.0347
      vertex 67.88 98.8172 81.133
      vertex 67.88 96.4868 79.0347
    endloop
  endfacet
  facet normal 0 -1 0
    outer loop
      vertex 0 102.588 89.6021
      vertex 0.959999 102.588 91.17
      vertex 0 102.588 91.17
    endloop
  endfacet
  facet normal 0 -1 -0
    outer loop
      vertex 0.959999 102.588 91.17
      vertex 0 102.588 89.6021
      vertex 0.959999 102.588 89.6021
    endloop
  endfacet
  facet normal 0 -1 0
    outer loop
      vertex 67.88 102.588 89.6021
      vertex 68.84 102.588 91.17
      vertex 67.88 102.588 91.17
    endloop
  endfacet
  facet normal 0 -1 -0
    outer loop
      vertex 68.84 102.588 91.17
      vertex 67.88 102.588 89.6021
      vertex 68.84 102.588 89.6021
    endloop
  endfacet
  facet normal 0 -0.913545 0.406737
    outer loop
      vertex 0 100.66 83.67
      vertex 0.959999 101.936 86.5347
      vertex 0 101.936 86.5347
    endloop
  endfacet
  facet normal 0 -0.913545 0.406737
    outer loop
      vertex 0.959999 101.936 86.5347
      vertex 0 100.66 83.67
      vertex 0.959999 100.66 83.67
    endloop
  endfacet
  facet normal 0 -0.913545 0.406737
    outer loop
      vertex 67.88 100.66 83.67
      vertex 68.84 101.936 86.5347
      vertex 67.88 101.936 86.5347
    endloop
  endfacet
  facet normal 0 -0.913545 0.406737
    outer loop
      vertex 68.84 101.936 86.5347
      vertex 67.88 100.66 83.67
      vertex 68.84 100.66 83.67
    endloop
  endfacet
  facet normal -0 0.10453 0.994522
    outer loop
      vertex 0 87.67 76.17
      vertex 0.959999 84.5513 76.4978
      vertex 0.959999 87.67 76.17
    endloop
  endfacet
  facet normal 0 0.10453 0.994522
    outer loop
      vertex 0.959999 84.5513 76.4978
      vertex 0 87.67 76.17
      vertex 0 84.5513 76.4978
    endloop
  endfacet
  facet normal -0 0.10453 0.994522
    outer loop
      vertex 67.88 87.67 76.17
      vertex 68.84 84.5513 76.4978
      vertex 68.84 87.67 76.17
    endloop
  endfacet
  facet normal 0 0.10453 0.994522
    outer loop
      vertex 68.84 84.5513 76.4978
      vertex 67.88 87.67 76.17
      vertex 67.88 84.5513 76.4978
    endloop
  endfacet
  facet normal 0 -0.309017 0.951057
    outer loop
      vertex 0 93.771 77.4668
      vertex 0.959999 90.7887 76.4978
      vertex 0.959999 93.771 77.4668
    endloop
  endfacet
  facet normal 0 -0.309017 0.951057
    outer loop
      vertex 0.959999 90.7887 76.4978
      vertex 0 93.771 77.4668
      vertex 0 90.7887 76.4978
    endloop
  endfacet
  facet normal 0 -0.309017 0.951057
    outer loop
      vertex 67.88 93.771 77.4668
      vertex 68.84 90.7887 76.4978
      vertex 68.84 93.771 77.4668
    endloop
  endfacet
  facet normal 0 -0.309017 0.951057
    outer loop
      vertex 68.84 90.7887 76.4978
      vertex 67.88 93.771 77.4668
      vertex 67.88 90.7887 76.4978
    endloop
  endfacet
  facet normal -0 0.669131 0.743144
    outer loop
      vertex 0 78.8532 79.0347
      vertex 0.959999 76.5228 81.133
      vertex 0.959999 78.8532 79.0347
    endloop
  endfacet
  facet normal 0 0.669131 0.743144
    outer loop
      vertex 0.959999 76.5228 81.133
      vertex 0 78.8532 79.0347
      vertex 0 76.5228 81.133
    endloop
  endfacet
  facet normal -0 0.669131 0.743144
    outer loop
      vertex 67.88 78.8532 79.0347
      vertex 68.84 76.5228 81.133
      vertex 68.84 78.8532 79.0347
    endloop
  endfacet
  facet normal 0 0.669131 0.743144
    outer loop
      vertex 68.84 76.5228 81.133
      vertex 67.88 78.8532 79.0347
      vertex 67.88 76.5228 81.133
    endloop
  endfacet
  facet normal 0 -0.978147 0.207913
    outer loop
      vertex 0 101.936 86.5347
      vertex 0.959999 102.588 89.6021
      vertex 0 102.588 89.6021
    endloop
  endfacet
  facet normal 0 -0.978147 0.207913
    outer loop
      vertex 0.959999 102.588 89.6021
      vertex 0 101.936 86.5347
      vertex 0.959999 101.936 86.5347
    endloop
  endfacet
  facet normal 0 -0.978147 0.207913
    outer loop
      vertex 67.88 101.936 86.5347
      vertex 68.84 102.588 89.6021
      vertex 67.88 102.588 89.6021
    endloop
  endfacet
  facet normal 0 -0.978147 0.207913
    outer loop
      vertex 68.84 102.588 89.6021
      vertex 67.88 101.936 86.5347
      vertex 68.84 101.936 86.5347
    endloop
  endfacet
  facet normal -0 0.309017 0.951057
    outer loop
      vertex 0 84.5513 76.4978
      vertex 0.959999 81.5689 77.4668
      vertex 0.959999 84.5513 76.4978
    endloop
  endfacet
  facet normal 0 0.309017 0.951057
    outer loop
      vertex 0.959999 81.5689 77.4668
      vertex 0 84.5513 76.4978
      vertex 0 81.5689 77.4668
    endloop
  endfacet
  facet normal -0 0.309017 0.951057
    outer loop
      vertex 67.88 84.5513 76.4978
      vertex 68.84 81.5689 77.4668
      vertex 68.84 84.5513 76.4978
    endloop
  endfacet
  facet normal 0 0.309017 0.951057
    outer loop
      vertex 68.84 81.5689 77.4668
      vertex 67.88 84.5513 76.4978
      vertex 67.88 81.5689 77.4668
    endloop
  endfacet
  facet normal -0 0.499999 0.866026
    outer loop
      vertex 0 81.5689 77.4668
      vertex 0.959999 78.8532 79.0347
      vertex 0.959999 81.5689 77.4668
    endloop
  endfacet
  facet normal 0 0.499999 0.866026
    outer loop
      vertex 0.959999 78.8532 79.0347
      vertex 0 81.5689 77.4668
      vertex 0 78.8532 79.0347
    endloop
  endfacet
  facet normal -0 0.499999 0.866026
    outer loop
      vertex 67.88 81.5689 77.4668
      vertex 68.84 78.8532 79.0347
      vertex 68.84 81.5689 77.4668
    endloop
  endfacet
  facet normal 0 0.499999 0.866026
    outer loop
      vertex 68.84 78.8532 79.0347
      vertex 67.88 81.5689 77.4668
      vertex 67.88 78.8532 79.0347
    endloop
  endfacet
  facet normal 0 -0.809017 0.587786
    outer loop
      vertex 0 98.8172 81.133
      vertex 0.959999 100.66 83.67
      vertex 0 100.66 83.67
    endloop
  endfacet
  facet normal 0 -0.809017 0.587786
    outer loop
      vertex 0.959999 100.66 83.67
      vertex 0 98.8172 81.133
      vertex 0.959999 98.8172 81.133
    endloop
  endfacet
  facet normal 0 -0.809017 0.587786
    outer loop
      vertex 67.88 98.8172 81.133
      vertex 68.84 100.66 83.67
      vertex 67.88 100.66 83.67
    endloop
  endfacet
  facet normal 0 -0.809017 0.587786
    outer loop
      vertex 68.84 100.66 83.67
      vertex 67.88 98.8172 81.133
      vertex 68.84 98.8172 81.133
    endloop
  endfacet
  facet normal 0 -0.499999 0.866026
    outer loop
      vertex 0 96.4868 79.0347
      vertex 0.959999 93.771 77.4668
      vertex 0.959999 96.4868 79.0347
    endloop
  endfacet
  facet normal 0 -0.499999 0.866026
    outer loop
      vertex 0.959999 93.771 77.4668
      vertex 0 96.4868 79.0347
      vertex 0 93.771 77.4668
    endloop
  endfacet
  facet normal 0 -0.499999 0.866026
    outer loop
      vertex 67.88 96.4868 79.0347
      vertex 68.84 93.771 77.4668
      vertex 68.84 96.4868 79.0347
    endloop
  endfacet
  facet normal 0 -0.499999 0.866026
    outer loop
      vertex 68.84 93.771 77.4668
      vertex 67.88 96.4868 79.0347
      vertex 67.88 93.771 77.4668
    endloop
  endfacet
  facet normal 0 0.913545 0.406737
    outer loop
      vertex 0.959999 74.6796 83.67
      vertex 0 73.4042 86.5347
      vertex 0.959999 73.4042 86.5347
    endloop
  endfacet
  facet normal 0 0.913545 0.406737
    outer loop
      vertex 0 73.4042 86.5347
      vertex 0.959999 74.6796 83.67
      vertex 0 74.6796 83.67
    endloop
  endfacet
  facet normal 0 0.913545 0.406737
    outer loop
      vertex 68.84 74.6796 83.67
      vertex 67.88 73.4042 86.5347
      vertex 68.84 73.4042 86.5347
    endloop
  endfacet
  facet normal 0 0.913545 0.406737
    outer loop
      vertex 67.88 73.4042 86.5347
      vertex 68.84 74.6796 83.67
      vertex 67.88 74.6796 83.67
    endloop
  endfacet
  facet normal 0 1 -0
    outer loop
      vertex 0.959999 72.7522 89.6021
      vertex 0 72.7522 91.17
      vertex 0.959999 72.7522 91.17
    endloop
  endfacet
  facet normal 0 1 0
    outer loop
      vertex 0 72.7522 91.17
      vertex 0.959999 72.7522 89.6021
      vertex 0 72.7522 89.6021
    endloop
  endfacet
  facet normal 0 1 -0
    outer loop
      vertex 68.84 72.7522 89.6021
      vertex 67.88 72.7522 91.17
      vertex 68.84 72.7522 91.17
    endloop
  endfacet
  facet normal 0 1 0
    outer loop
      vertex 67.88 72.7522 91.17
      vertex 68.84 72.7522 89.6021
      vertex 67.88 72.7522 89.6021
    endloop
  endfacet
  facet normal 0 0.809017 0.587786
    outer loop
      vertex 0.959999 76.5228 81.133
      vertex 0 74.6796 83.67
      vertex 0.959999 74.6796 83.67
    endloop
  endfacet
  facet normal 0 0.809017 0.587786
    outer loop
      vertex 0 74.6796 83.67
      vertex 0.959999 76.5228 81.133
      vertex 0 76.5228 81.133
    endloop
  endfacet
  facet normal 0 0.809017 0.587786
    outer loop
      vertex 68.84 76.5228 81.133
      vertex 67.88 74.6796 83.67
      vertex 68.84 74.6796 83.67
    endloop
  endfacet
  facet normal 0 0.809017 0.587786
    outer loop
      vertex 67.88 74.6796 83.67
      vertex 68.84 76.5228 81.133
      vertex 67.88 76.5228 81.133
    endloop
  endfacet
endsolid OpenSCAD_Model
