solid OpenSCAD_Model
  facet normal -1 0 0
    outer loop
      vertex 0 53.9868 79.0347
      vertex 0 90.34 91.17
      vertex 0 90.34 0
    endloop
  endfacet
  facet normal -1 0 0
    outer loop
      vertex 0 90.34 91.17
      vertex 0 59.4358 86.5347
      vertex 0 60.0878 89.6021
    endloop
  endfacet
  facet normal -1 0 0
    outer loop
      vertex 0 90.34 91.17
      vertex 0 58.1604 83.67
      vertex 0 59.4358 86.5347
    endloop
  endfacet
  facet normal -1 0 0
    outer loop
      vertex 0 90.34 91.17
      vertex 0 56.3172 81.133
      vertex 0 58.1604 83.67
    endloop
  endfacet
  facet normal -1 0 0
    outer loop
      vertex 0 90.34 91.17
      vertex 0 53.9868 79.0347
      vertex 0 56.3172 81.133
    endloop
  endfacet
  facet normal -1 0 0
    outer loop
      vertex 0 90.34 0
      vertex 0 51.271 77.4668
      vertex 0 53.9868 79.0347
    endloop
  endfacet
  facet normal -1 0 0
    outer loop
      vertex 0 90.34 0
      vertex 0 48.2887 76.4978
      vertex 0 51.271 77.4668
    endloop
  endfacet
  facet normal -1 0 0
    outer loop
      vertex 0 90.34 0
      vertex 0 45.17 76.17
      vertex 0 48.2887 76.4978
    endloop
  endfacet
  facet normal -1 0 0
    outer loop
      vertex 0 0 0
      vertex 0 45.17 76.17
      vertex 0 90.34 0
    endloop
  endfacet
  facet normal -1 -0 0
    outer loop
      vertex 0 45.17 76.17
      vertex 0 0 0
      vertex 0 42.0513 76.4978
    endloop
  endfacet
  facet normal -1 -0 0
    outer loop
      vertex 0 42.0513 76.4978
      vertex 0 0 0
      vertex 0 39.069 77.4668
    endloop
  endfacet
  facet normal -1 -0 0
    outer loop
      vertex 0 39.069 77.4668
      vertex 0 0 0
      vertex 0 36.3532 79.0347
    endloop
  endfacet
  facet normal -1 0 0
    outer loop
      vertex 0 0 91.17
      vertex 0 36.3532 79.0347
      vertex 0 0 0
    endloop
  endfacet
  facet normal -1 0 0
    outer loop
      vertex 0 36.3532 79.0347
      vertex 0 0 91.17
      vertex 0 34.0228 81.133
    endloop
  endfacet
  facet normal -1 0 0
    outer loop
      vertex 0 34.0228 81.133
      vertex 0 0 91.17
      vertex 0 32.1796 83.67
    endloop
  endfacet
  facet normal -1 0 0
    outer loop
      vertex 0 32.1796 83.67
      vertex 0 0 91.17
      vertex 0 30.9042 86.5347
    endloop
  endfacet
  facet normal -1 0 0
    outer loop
      vertex 0 30.9042 86.5347
      vertex 0 0 91.17
      vertex 0 30.2522 89.6021
    endloop
  endfacet
  facet normal -1 0 0
    outer loop
      vertex 0 30.2522 89.6021
      vertex 0 0 91.17
      vertex 0 30.2522 91.17
    endloop
  endfacet
  facet normal -1 -0 0
    outer loop
      vertex 0 90.34 91.17
      vertex 0 60.0878 89.6021
      vertex 0 60.0878 91.17
    endloop
  endfacet
  facet normal 0 0 1
    outer loop
      vertex 0.959999 30.2522 91.17
      vertex 0 30.2522 91.17
      vertex 0.959999 0.959999 91.17
    endloop
  endfacet
  facet normal 0 0 1
    outer loop
      vertex 67.88 0.959999 91.17
      vertex 68.84 30.2522 91.17
      vertex 67.88 30.2522 91.17
    endloop
  endfacet
  facet normal 0 0 1
    outer loop
      vertex 68.84 30.2522 91.17
      vertex 67.88 0.959999 91.17
      vertex 68.84 0 91.17
    endloop
  endfacet
  facet normal -0 0 1
    outer loop
      vertex 0.959999 0.959999 91.17
      vertex 68.84 0 91.17
      vertex 67.88 0.959999 91.17
    endloop
  endfacet
  facet normal 0 0 1
    outer loop
      vertex 0.959999 0.959999 91.17
      vertex 0 0 91.17
      vertex 68.84 0 91.17
    endloop
  endfacet
  facet normal 0 0 1
    outer loop
      vertex 0 0 91.17
      vertex 0.959999 0.959999 91.17
      vertex 0 30.2522 91.17
    endloop
  endfacet
  facet normal 0 0 1
    outer loop
      vertex 68.84 90.34 91.17
      vertex 67.88 89.38 91.17
      vertex 68.84 60.0878 91.17
    endloop
  endfacet
  facet normal 0 0 1
    outer loop
      vertex 68.84 90.34 91.17
      vertex 0.959999 89.38 91.17
      vertex 67.88 89.38 91.17
    endloop
  endfacet
  facet normal -0 0 1
    outer loop
      vertex 0 90.34 91.17
      vertex 0.959999 89.38 91.17
      vertex 68.84 90.34 91.17
    endloop
  endfacet
  facet normal 0 0 1
    outer loop
      vertex 0 60.0878 91.17
      vertex 0.959999 89.38 91.17
      vertex 0 90.34 91.17
    endloop
  endfacet
  facet normal 0 0 1
    outer loop
      vertex 0.959999 89.38 91.17
      vertex 0 60.0878 91.17
      vertex 0.959999 60.0878 91.17
    endloop
  endfacet
  facet normal 0 0 1
    outer loop
      vertex 68.84 60.0878 91.17
      vertex 67.88 89.38 91.17
      vertex 67.88 60.0878 91.17
    endloop
  endfacet
  facet normal 1 0 0
    outer loop
      vertex 68.84 30.2522 91.17
      vertex 68.84 0 91.17
      vertex 68.84 30.2522 89.6021
    endloop
  endfacet
  facet normal 1 0 0
    outer loop
      vertex 68.84 60.0878 89.6021
      vertex 68.84 90.34 91.17
      vertex 68.84 60.0878 91.17
    endloop
  endfacet
  facet normal 1 0 0
    outer loop
      vertex 68.84 59.4358 86.5347
      vertex 68.84 90.34 91.17
      vertex 68.84 60.0878 89.6021
    endloop
  endfacet
  facet normal 1 0 0
    outer loop
      vertex 68.84 58.1604 83.67
      vertex 68.84 90.34 91.17
      vertex 68.84 59.4358 86.5347
    endloop
  endfacet
  facet normal 1 0 0
    outer loop
      vertex 68.84 56.3172 81.133
      vertex 68.84 90.34 91.17
      vertex 68.84 58.1604 83.67
    endloop
  endfacet
  facet normal 1 0 0
    outer loop
      vertex 68.84 53.9868 79.0347
      vertex 68.84 90.34 91.17
      vertex 68.84 56.3172 81.133
    endloop
  endfacet
  facet normal 1 0 0
    outer loop
      vertex 68.84 90.34 91.17
      vertex 68.84 53.9868 79.0347
      vertex 68.84 90.34 0
    endloop
  endfacet
  facet normal 1 -0 0
    outer loop
      vertex 68.84 51.271 77.4668
      vertex 68.84 90.34 0
      vertex 68.84 53.9868 79.0347
    endloop
  endfacet
  facet normal 1 -0 0
    outer loop
      vertex 68.84 48.2887 76.4978
      vertex 68.84 90.34 0
      vertex 68.84 51.271 77.4668
    endloop
  endfacet
  facet normal 1 -0 0
    outer loop
      vertex 68.84 45.17 76.17
      vertex 68.84 90.34 0
      vertex 68.84 48.2887 76.4978
    endloop
  endfacet
  facet normal 1 0 0
    outer loop
      vertex 68.84 0 0
      vertex 68.84 45.17 76.17
      vertex 68.84 42.0513 76.4978
    endloop
  endfacet
  facet normal 1 0 0
    outer loop
      vertex 68.84 0 0
      vertex 68.84 42.0513 76.4978
      vertex 68.84 39.069 77.4668
    endloop
  endfacet
  facet normal 1 0 0
    outer loop
      vertex 68.84 0 0
      vertex 68.84 39.069 77.4668
      vertex 68.84 36.3532 79.0347
    endloop
  endfacet
  facet normal 1 0 0
    outer loop
      vertex 68.84 0 91.17
      vertex 68.84 36.3532 79.0347
      vertex 68.84 34.0228 81.133
    endloop
  endfacet
  facet normal 1 0 0
    outer loop
      vertex 68.84 0 91.17
      vertex 68.84 34.0228 81.133
      vertex 68.84 32.1796 83.67
    endloop
  endfacet
  facet normal 1 0 0
    outer loop
      vertex 68.84 0 91.17
      vertex 68.84 30.9042 86.5347
      vertex 68.84 30.2522 89.6021
    endloop
  endfacet
  facet normal 1 0 0
    outer loop
      vertex 68.84 0 91.17
      vertex 68.84 32.1796 83.67
      vertex 68.84 30.9042 86.5347
    endloop
  endfacet
  facet normal 1 0 0
    outer loop
      vertex 68.84 36.3532 79.0347
      vertex 68.84 0 91.17
      vertex 68.84 0 0
    endloop
  endfacet
  facet normal 1 0 0
    outer loop
      vertex 68.84 45.17 76.17
      vertex 68.84 0 0
      vertex 68.84 90.34 0
    endloop
  endfacet
  facet normal 0 0 -1
    outer loop
      vertex 0 0 0
      vertex 68.84 90.34 0
      vertex 68.84 0 0
    endloop
  endfacet
  facet normal -0 0 -1
    outer loop
      vertex 68.84 90.34 0
      vertex 0 0 0
      vertex 0 90.34 0
    endloop
  endfacet
  facet normal 0 -1 0
    outer loop
      vertex 47.8755 0 39.6065
      vertex 0 0 91.17
      vertex 15.7458 0 39.6065
    endloop
  endfacet
  facet normal 0 -1 0
    outer loop
      vertex 0 0 91.17
      vertex 14.6112 0 36.822
      vertex 15.7458 0 39.6065
    endloop
  endfacet
  facet normal 0 -1 -0
    outer loop
      vertex 30.4597 0 5.18648
      vertex 0 0 0
      vertex 32.7682 0 5.18648
    endloop
  endfacet
  facet normal 0 -1 -0
    outer loop
      vertex 14.6112 0 36.822
      vertex 0 0 0
      vertex 30.4597 0 5.18648
    endloop
  endfacet
  facet normal 0 -1 0
    outer loop
      vertex 0 0 0
      vertex 14.6112 0 36.822
      vertex 0 0 91.17
    endloop
  endfacet
  facet normal 0 -1 0
    outer loop
      vertex 0 0 91.17
      vertex 47.8755 0 39.6065
      vertex 68.84 0 91.17
    endloop
  endfacet
  facet normal 0 -1 0
    outer loop
      vertex 49.0312 0 36.2129
      vertex 68.84 0 91.17
      vertex 47.8755 0 39.6065
    endloop
  endfacet
  facet normal 0 -1 0
    outer loop
      vertex 49.0312 0 36.2129
      vertex 68.84 0 0
      vertex 68.84 0 91.17
    endloop
  endfacet
  facet normal 0 -1 0
    outer loop
      vertex 32.7682 0 5.18648
      vertex 68.84 0 0
      vertex 49.0312 0 36.2129
    endloop
  endfacet
  facet normal 0 -1 0
    outer loop
      vertex 68.84 0 0
      vertex 32.7682 0 5.18648
      vertex 0 0 0
    endloop
  endfacet
  facet normal 0 -1 -0
    outer loop
      vertex 30.2507 0 32.3766
      vertex 27.7787 0 26.5444
      vertex 35.6802 0 26.6771
    endloop
  endfacet
  facet normal 0 -1 0
    outer loop
      vertex 29.5934 0 22.905
      vertex 27.7787 0 26.5444
      vertex 27.6765 0 26.2148
    endloop
  endfacet
  facet normal 0 -1 0
    outer loop
      vertex 27.7787 0 26.5444
      vertex 33.8016 0 23.0333
      vertex 35.6802 0 26.6771
    endloop
  endfacet
  facet normal 0 -1 -0
    outer loop
      vertex 35.6802 0 26.6771
      vertex 33.8016 0 23.0333
      vertex 36.436 0 24.8324
    endloop
  endfacet
  facet normal 0 -1 0
    outer loop
      vertex 27.7787 0 26.5444
      vertex 29.5934 0 22.905
      vertex 33.8016 0 23.0333
    endloop
  endfacet
  facet normal 0 -1 0
    outer loop
      vertex 25.8043 0 22.496
      vertex 29.5934 0 22.905
      vertex 27.6765 0 26.2148
    endloop
  endfacet
  facet normal 0 -1 0
    outer loop
      vertex 25.8043 0 22.496
      vertex 26.9398 0 21.0896
      vertex 29.5934 0 22.905
    endloop
  endfacet
  facet normal -0 -1 0
    outer loop
      vertex 26.9398 0 21.0896
      vertex 25.8043 0 22.496
      vertex 24.2981 0 19.2612
    endloop
  endfacet
  facet normal 0 -1 -0
    outer loop
      vertex 25.776 0 29.5573
      vertex 25.6098 0 26.5955
      vertex 27.5816 0 26.6967
    endloop
  endfacet
  facet normal 0 -1 0
    outer loop
      vertex 22.3474 0 26.2159
      vertex 23.5998 0 27.7202
      vertex 21.9421 0 26.3573
    endloop
  endfacet
  facet normal 0 -1 -0
    outer loop
      vertex 23.5998 0 27.7202
      vertex 22.3474 0 26.2159
      vertex 25.6098 0 26.5955
    endloop
  endfacet
  facet normal -0 -1 0
    outer loop
      vertex 22.3474 0 26.2159
      vertex 21.9421 0 26.3573
      vertex 21.9266 0 26.18
    endloop
  endfacet
  facet normal 0 -1 0
    outer loop
      vertex 21.9311 0 32.8062
      vertex 24.1584 0 34.2333
      vertex 18.1712 0 35.9899
    endloop
  endfacet
  facet normal 0 -1 0
    outer loop
      vertex 25.776 0 29.5573
      vertex 24.1584 0 34.2333
      vertex 21.9311 0 32.8062
    endloop
  endfacet
  facet normal 0 -1 0
    outer loop
      vertex 35.6802 0 26.6771
      vertex 33.1407 0 32.3766
      vertex 30.2507 0 32.3766
    endloop
  endfacet
  facet normal 0 -1 0
    outer loop
      vertex 24.1584 0 34.2333
      vertex 25.776 0 29.5573
      vertex 30.2507 0 32.3766
    endloop
  endfacet
  facet normal 0 -1 0
    outer loop
      vertex 27.5816 0 26.6967
      vertex 30.2507 0 32.3766
      vertex 25.776 0 29.5573
    endloop
  endfacet
  facet normal 0 -1 0
    outer loop
      vertex 27.7787 0 26.5444
      vertex 30.2507 0 32.3766
      vertex 27.5816 0 26.6967
    endloop
  endfacet
  facet normal 0 -1 0
    outer loop
      vertex 25.6098 0 26.5955
      vertex 25.776 0 29.5573
      vertex 23.5998 0 27.7202
    endloop
  endfacet
  facet normal 0 -1 0
    outer loop
      vertex 33.1407 0 32.3766
      vertex 35.6802 0 26.6771
      vertex 36.8568 0 29.8945
    endloop
  endfacet
  facet normal 0 -1 0
    outer loop
      vertex 38.8458 0 26.416
      vertex 36.8568 0 29.8945
      vertex 35.6802 0 26.6771
    endloop
  endfacet
  facet normal 0 -1 0
    outer loop
      vertex 36.8568 0 29.8945
      vertex 38.8458 0 26.416
      vertex 39.4848 0 27.9823
    endloop
  endfacet
  facet normal 0 -1 -0
    outer loop
      vertex 39.4848 0 27.9823
      vertex 38.8458 0 26.416
      vertex 42.0143 0 26.1583
    endloop
  endfacet
  facet normal 0 -1 0
    outer loop
      vertex 30.9152 0 35.0556
      vertex 31.9001 0 37.1559
      vertex 31.587 0 37.8825
    endloop
  endfacet
  facet normal 0 -1 -0
    outer loop
      vertex 31.9001 0 37.1559
      vertex 30.9152 0 35.0556
      vertex 32.373 0 35.2035
    endloop
  endfacet
  facet normal 0 -1 0
    outer loop
      vertex 30.9152 0 35.0556
      vertex 32.8404 0 33.2065
      vertex 32.373 0 35.2035
    endloop
  endfacet
  facet normal 0 -1 0
    outer loop
      vertex 30.5254 0 33.1641
      vertex 32.8404 0 33.2065
      vertex 30.9152 0 35.0556
    endloop
  endfacet
  facet normal 0 -1 0
    outer loop
      vertex 30.2507 0 32.3766
      vertex 32.8404 0 33.2065
      vertex 30.5254 0 33.1641
    endloop
  endfacet
  facet normal 0 -1 -0
    outer loop
      vertex 32.8404 0 33.2065
      vertex 30.2507 0 32.3766
      vertex 33.1407 0 32.3766
    endloop
  endfacet
  facet normal 0 -1 0
    outer loop
      vertex 39.0877 0 34.2659
      vertex 40.9536 0 33.0107
      vertex 44.9518 0 36.0378
    endloop
  endfacet
  facet normal 0 -1 0
    outer loop
      vertex 36.8568 0 29.8945
      vertex 39.0877 0 34.2659
      vertex 33.1407 0 32.3766
    endloop
  endfacet
  facet normal 0 -1 -0
    outer loop
      vertex 39.0877 0 34.2659
      vertex 36.8568 0 29.8945
      vertex 40.9536 0 33.0107
    endloop
  endfacet
  facet normal 0 -1 0
    outer loop
      vertex 36.3292 0 21.0602
      vertex 36.436 0 24.8324
      vertex 33.8016 0 23.0333
    endloop
  endfacet
  facet normal 0 -1 0
    outer loop
      vertex 36.3292 0 21.0602
      vertex 38.5711 0 20.3206
      vertex 36.436 0 24.8324
    endloop
  endfacet
  facet normal 0 -1 0
    outer loop
      vertex 38.9499 0 19.0197
      vertex 38.5711 0 20.3206
      vertex 36.3292 0 21.0602
    endloop
  endfacet
  facet normal 0 -1 0
    outer loop
      vertex 38.5711 0 20.3206
      vertex 38.9499 0 19.0197
      vertex 38.9855 0 19.2558
    endloop
  endfacet
  facet normal 0 -1 -0
    outer loop
      vertex 38.9855 0 19.2558
      vertex 38.9499 0 19.0197
      vertex 39.0248 0 19.0328
    endloop
  endfacet
  facet normal 0 -1 0
    outer loop
      vertex 29.5934 0 22.905
      vertex 33.6208 0 22.6668
      vertex 33.8016 0 23.0333
    endloop
  endfacet
  facet normal 0 -1 0
    outer loop
      vertex 29.5934 0 22.905
      vertex 33.3661 0 21.3583
      vertex 33.6208 0 22.6668
    endloop
  endfacet
  facet normal 0 -1 0
    outer loop
      vertex 30.5528 0 15.8687
      vertex 33.3661 0 21.3583
      vertex 29.5934 0 22.905
    endloop
  endfacet
  facet normal 0 -1 0
    outer loop
      vertex 30.5528 0 15.8687
      vertex 32.624 0 15.8643
      vertex 33.3661 0 21.3583
    endloop
  endfacet
  facet normal 0 -1 0
    outer loop
      vertex 30.5528 0 15.8687
      vertex 31.9458 0 10.7283
      vertex 32.624 0 15.8643
    endloop
  endfacet
  facet normal -0 -1 0
    outer loop
      vertex 31.9458 0 10.7283
      vertex 30.5528 0 15.8687
      vertex 31.5688 0 8.72691
    endloop
  endfacet
  facet normal 0 1 -0
    outer loop
      vertex 68.84 90.34 0
      vertex 0 90.34 91.17
      vertex 68.84 90.34 91.17
    endloop
  endfacet
  facet normal 0 1 0
    outer loop
      vertex 0 90.34 91.17
      vertex 68.84 90.34 0
      vertex 0 90.34 0
    endloop
  endfacet
  facet normal 1 0 0
    outer loop
      vertex 0.959999 30.2522 91.17
      vertex 0.959999 0.959999 91.17
      vertex 0.959999 30.2522 89.6021
    endloop
  endfacet
  facet normal 1 0 0
    outer loop
      vertex 0.959999 60.0878 89.6021
      vertex 0.959999 89.38 91.17
      vertex 0.959999 60.0878 91.17
    endloop
  endfacet
  facet normal 1 0 0
    outer loop
      vertex 0.959999 59.4358 86.5347
      vertex 0.959999 89.38 91.17
      vertex 0.959999 60.0878 89.6021
    endloop
  endfacet
  facet normal 1 0 0
    outer loop
      vertex 0.959999 58.1604 83.67
      vertex 0.959999 89.38 91.17
      vertex 0.959999 59.4358 86.5347
    endloop
  endfacet
  facet normal 1 0 0
    outer loop
      vertex 0.959999 56.3172 81.133
      vertex 0.959999 89.38 91.17
      vertex 0.959999 58.1604 83.67
    endloop
  endfacet
  facet normal 1 0 0
    outer loop
      vertex 0.959999 53.9868 79.0347
      vertex 0.959999 89.38 91.17
      vertex 0.959999 56.3172 81.133
    endloop
  endfacet
  facet normal 1 0 0
    outer loop
      vertex 0.959999 89.38 91.17
      vertex 0.959999 53.9868 79.0347
      vertex 0.959999 89.38 0.959999
    endloop
  endfacet
  facet normal 1 -0 0
    outer loop
      vertex 0.959999 51.271 77.4668
      vertex 0.959999 89.38 0.959999
      vertex 0.959999 53.9868 79.0347
    endloop
  endfacet
  facet normal 1 -0 0
    outer loop
      vertex 0.959999 48.2887 76.4978
      vertex 0.959999 89.38 0.959999
      vertex 0.959999 51.271 77.4668
    endloop
  endfacet
  facet normal 1 -0 0
    outer loop
      vertex 0.959999 45.17 76.17
      vertex 0.959999 89.38 0.959999
      vertex 0.959999 48.2887 76.4978
    endloop
  endfacet
  facet normal 1 0 0
    outer loop
      vertex 0.959999 0.959999 0.959999
      vertex 0.959999 45.17 76.17
      vertex 0.959999 42.0513 76.4978
    endloop
  endfacet
  facet normal 1 0 0
    outer loop
      vertex 0.959999 0.959999 0.959999
      vertex 0.959999 42.0513 76.4978
      vertex 0.959999 39.069 77.4668
    endloop
  endfacet
  facet normal 1 0 0
    outer loop
      vertex 0.959999 0.959999 0.959999
      vertex 0.959999 39.069 77.4668
      vertex 0.959999 36.3532 79.0347
    endloop
  endfacet
  facet normal 1 0 0
    outer loop
      vertex 0.959999 0.959999 91.17
      vertex 0.959999 36.3532 79.0347
      vertex 0.959999 34.0228 81.133
    endloop
  endfacet
  facet normal 1 0 0
    outer loop
      vertex 0.959999 0.959999 91.17
      vertex 0.959999 34.0228 81.133
      vertex 0.959999 32.1796 83.67
    endloop
  endfacet
  facet normal 1 0 0
    outer loop
      vertex 0.959999 0.959999 91.17
      vertex 0.959999 30.9042 86.5347
      vertex 0.959999 30.2522 89.6021
    endloop
  endfacet
  facet normal 1 0 0
    outer loop
      vertex 0.959999 0.959999 91.17
      vertex 0.959999 32.1796 83.67
      vertex 0.959999 30.9042 86.5347
    endloop
  endfacet
  facet normal 1 0 0
    outer loop
      vertex 0.959999 36.3532 79.0347
      vertex 0.959999 0.959999 91.17
      vertex 0.959999 0.959999 0.959999
    endloop
  endfacet
  facet normal 1 0 0
    outer loop
      vertex 0.959999 45.17 76.17
      vertex 0.959999 0.959999 0.959999
      vertex 0.959999 89.38 0.959999
    endloop
  endfacet
  facet normal -1 0 0
    outer loop
      vertex 67.88 53.9868 79.0347
      vertex 67.88 89.38 91.17
      vertex 67.88 89.38 0.959999
    endloop
  endfacet
  facet normal -1 0 0
    outer loop
      vertex 67.88 89.38 91.17
      vertex 67.88 59.4358 86.5347
      vertex 67.88 60.0878 89.6021
    endloop
  endfacet
  facet normal -1 0 0
    outer loop
      vertex 67.88 89.38 91.17
      vertex 67.88 58.1604 83.67
      vertex 67.88 59.4358 86.5347
    endloop
  endfacet
  facet normal -1 0 0
    outer loop
      vertex 67.88 89.38 91.17
      vertex 67.88 56.3172 81.133
      vertex 67.88 58.1604 83.67
    endloop
  endfacet
  facet normal -1 0 0
    outer loop
      vertex 67.88 89.38 91.17
      vertex 67.88 53.9868 79.0347
      vertex 67.88 56.3172 81.133
    endloop
  endfacet
  facet normal -1 0 0
    outer loop
      vertex 67.88 89.38 0.959999
      vertex 67.88 51.271 77.4668
      vertex 67.88 53.9868 79.0347
    endloop
  endfacet
  facet normal -1 0 0
    outer loop
      vertex 67.88 89.38 0.959999
      vertex 67.88 48.2887 76.4978
      vertex 67.88 51.271 77.4668
    endloop
  endfacet
  facet normal -1 0 0
    outer loop
      vertex 67.88 89.38 0.959999
      vertex 67.88 45.17 76.17
      vertex 67.88 48.2887 76.4978
    endloop
  endfacet
  facet normal -1 0 0
    outer loop
      vertex 67.88 0.959999 0.959999
      vertex 67.88 45.17 76.17
      vertex 67.88 89.38 0.959999
    endloop
  endfacet
  facet normal -1 -0 0
    outer loop
      vertex 67.88 45.17 76.17
      vertex 67.88 0.959999 0.959999
      vertex 67.88 42.0513 76.4978
    endloop
  endfacet
  facet normal -1 -0 0
    outer loop
      vertex 67.88 42.0513 76.4978
      vertex 67.88 0.959999 0.959999
      vertex 67.88 39.069 77.4668
    endloop
  endfacet
  facet normal -1 -0 0
    outer loop
      vertex 67.88 39.069 77.4668
      vertex 67.88 0.959999 0.959999
      vertex 67.88 36.3532 79.0347
    endloop
  endfacet
  facet normal -1 0 0
    outer loop
      vertex 67.88 0.959999 91.17
      vertex 67.88 36.3532 79.0347
      vertex 67.88 0.959999 0.959999
    endloop
  endfacet
  facet normal -1 0 0
    outer loop
      vertex 67.88 36.3532 79.0347
      vertex 67.88 0.959999 91.17
      vertex 67.88 34.0228 81.133
    endloop
  endfacet
  facet normal -1 0 0
    outer loop
      vertex 67.88 34.0228 81.133
      vertex 67.88 0.959999 91.17
      vertex 67.88 32.1796 83.67
    endloop
  endfacet
  facet normal -1 0 0
    outer loop
      vertex 67.88 32.1796 83.67
      vertex 67.88 0.959999 91.17
      vertex 67.88 30.9042 86.5347
    endloop
  endfacet
  facet normal -1 0 0
    outer loop
      vertex 67.88 30.9042 86.5347
      vertex 67.88 0.959999 91.17
      vertex 67.88 30.2522 89.6021
    endloop
  endfacet
  facet normal -1 0 0
    outer loop
      vertex 67.88 30.2522 89.6021
      vertex 67.88 0.959999 91.17
      vertex 67.88 30.2522 91.17
    endloop
  endfacet
  facet normal -1 -0 0
    outer loop
      vertex 67.88 89.38 91.17
      vertex 67.88 60.0878 89.6021
      vertex 67.88 60.0878 91.17
    endloop
  endfacet
  facet normal 0 -1 0
    outer loop
      vertex 0.959999 89.38 0.959999
      vertex 67.88 89.38 91.17
      vertex 0.959999 89.38 91.17
    endloop
  endfacet
  facet normal 0 -1 -0
    outer loop
      vertex 67.88 89.38 91.17
      vertex 0.959999 89.38 0.959999
      vertex 67.88 89.38 0.959999
    endloop
  endfacet
  facet normal -0 0 1
    outer loop
      vertex 0.959999 89.38 0.959999
      vertex 67.88 0.959999 0.959999
      vertex 67.88 89.38 0.959999
    endloop
  endfacet
  facet normal 0 0 1
    outer loop
      vertex 67.88 0.959999 0.959999
      vertex 0.959999 89.38 0.959999
      vertex 0.959999 0.959999 0.959999
    endloop
  endfacet
  facet normal 0 1 -0
    outer loop
      vertex 67.88 0.959999 0.959999
      vertex 0.959999 0.959999 91.17
      vertex 67.88 0.959999 91.17
    endloop
  endfacet
  facet normal 0 1 0
    outer loop
      vertex 0.959999 0.959999 91.17
      vertex 67.88 0.959999 0.959999
      vertex 0.959999 0.959999 0.959999
    endloop
  endfacet
  facet normal 0 -0.10453 0.994522
    outer loop
      vertex 0 48.2887 76.4978
      vertex 0.959999 45.17 76.17
      vertex 0.959999 48.2887 76.4978
    endloop
  endfacet
  facet normal 0 -0.10453 0.994522
    outer loop
      vertex 0.959999 45.17 76.17
      vertex 0 48.2887 76.4978
      vertex 0 45.17 76.17
    endloop
  endfacet
  facet normal 0 -0.10453 0.994522
    outer loop
      vertex 67.88 48.2887 76.4978
      vertex 68.84 45.17 76.17
      vertex 68.84 48.2887 76.4978
    endloop
  endfacet
  facet normal 0 -0.10453 0.994522
    outer loop
      vertex 68.84 45.17 76.17
      vertex 67.88 48.2887 76.4978
      vertex 67.88 45.17 76.17
    endloop
  endfacet
  facet normal 0 0.809017 0.587786
    outer loop
      vertex 0.959999 34.0228 81.133
      vertex 0 32.1796 83.67
      vertex 0.959999 32.1796 83.67
    endloop
  endfacet
  facet normal 0 0.809017 0.587786
    outer loop
      vertex 0 32.1796 83.67
      vertex 0.959999 34.0228 81.133
      vertex 0 34.0228 81.133
    endloop
  endfacet
  facet normal 0 0.809017 0.587786
    outer loop
      vertex 68.84 34.0228 81.133
      vertex 67.88 32.1796 83.67
      vertex 68.84 32.1796 83.67
    endloop
  endfacet
  facet normal 0 0.809017 0.587786
    outer loop
      vertex 67.88 32.1796 83.67
      vertex 68.84 34.0228 81.133
      vertex 67.88 34.0228 81.133
    endloop
  endfacet
  facet normal 0 1 -0
    outer loop
      vertex 0.959999 30.2522 89.6021
      vertex 0 30.2522 91.17
      vertex 0.959999 30.2522 91.17
    endloop
  endfacet
  facet normal 0 1 0
    outer loop
      vertex 0 30.2522 91.17
      vertex 0.959999 30.2522 89.6021
      vertex 0 30.2522 89.6021
    endloop
  endfacet
  facet normal 0 1 -0
    outer loop
      vertex 68.84 30.2522 89.6021
      vertex 67.88 30.2522 91.17
      vertex 68.84 30.2522 91.17
    endloop
  endfacet
  facet normal 0 1 0
    outer loop
      vertex 67.88 30.2522 91.17
      vertex 68.84 30.2522 89.6021
      vertex 67.88 30.2522 89.6021
    endloop
  endfacet
  facet normal 0 -0.809017 0.587786
    outer loop
      vertex 0 56.3172 81.133
      vertex 0.959999 58.1604 83.67
      vertex 0 58.1604 83.67
    endloop
  endfacet
  facet normal 0 -0.809017 0.587786
    outer loop
      vertex 0.959999 58.1604 83.67
      vertex 0 56.3172 81.133
      vertex 0.959999 56.3172 81.133
    endloop
  endfacet
  facet normal 0 -0.809017 0.587786
    outer loop
      vertex 67.88 56.3172 81.133
      vertex 68.84 58.1604 83.67
      vertex 67.88 58.1604 83.67
    endloop
  endfacet
  facet normal 0 -0.809017 0.587786
    outer loop
      vertex 68.84 58.1604 83.67
      vertex 67.88 56.3172 81.133
      vertex 68.84 56.3172 81.133
    endloop
  endfacet
  facet normal 0 -0.669131 0.743145
    outer loop
      vertex 0 56.3172 81.133
      vertex 0.959999 53.9868 79.0347
      vertex 0.959999 56.3172 81.133
    endloop
  endfacet
  facet normal 0 -0.669131 0.743145
    outer loop
      vertex 0.959999 53.9868 79.0347
      vertex 0 56.3172 81.133
      vertex 0 53.9868 79.0347
    endloop
  endfacet
  facet normal 0 -0.669131 0.743145
    outer loop
      vertex 67.88 56.3172 81.133
      vertex 68.84 53.9868 79.0347
      vertex 68.84 56.3172 81.133
    endloop
  endfacet
  facet normal 0 -0.669131 0.743145
    outer loop
      vertex 68.84 53.9868 79.0347
      vertex 67.88 56.3172 81.133
      vertex 67.88 53.9868 79.0347
    endloop
  endfacet
  facet normal 0 -1 0
    outer loop
      vertex 0 60.0878 89.6021
      vertex 0.959999 60.0878 91.17
      vertex 0 60.0878 91.17
    endloop
  endfacet
  facet normal 0 -1 -0
    outer loop
      vertex 0.959999 60.0878 91.17
      vertex 0 60.0878 89.6021
      vertex 0.959999 60.0878 89.6021
    endloop
  endfacet
  facet normal 0 -1 0
    outer loop
      vertex 67.88 60.0878 89.6021
      vertex 68.84 60.0878 91.17
      vertex 67.88 60.0878 91.17
    endloop
  endfacet
  facet normal 0 -1 -0
    outer loop
      vertex 68.84 60.0878 91.17
      vertex 67.88 60.0878 89.6021
      vertex 68.84 60.0878 89.6021
    endloop
  endfacet
  facet normal 0 -0.913545 0.406737
    outer loop
      vertex 0 58.1604 83.67
      vertex 0.959999 59.4358 86.5347
      vertex 0 59.4358 86.5347
    endloop
  endfacet
  facet normal 0 -0.913545 0.406737
    outer loop
      vertex 0.959999 59.4358 86.5347
      vertex 0 58.1604 83.67
      vertex 0.959999 58.1604 83.67
    endloop
  endfacet
  facet normal 0 -0.913545 0.406737
    outer loop
      vertex 67.88 58.1604 83.67
      vertex 68.84 59.4358 86.5347
      vertex 67.88 59.4358 86.5347
    endloop
  endfacet
  facet normal 0 -0.913545 0.406737
    outer loop
      vertex 68.84 59.4358 86.5347
      vertex 67.88 58.1604 83.67
      vertex 68.84 58.1604 83.67
    endloop
  endfacet
  facet normal -0 0.10453 0.994522
    outer loop
      vertex 0 45.17 76.17
      vertex 0.959999 42.0513 76.4978
      vertex 0.959999 45.17 76.17
    endloop
  endfacet
  facet normal 0 0.10453 0.994522
    outer loop
      vertex 0.959999 42.0513 76.4978
      vertex 0 45.17 76.17
      vertex 0 42.0513 76.4978
    endloop
  endfacet
  facet normal -0 0.10453 0.994522
    outer loop
      vertex 67.88 45.17 76.17
      vertex 68.84 42.0513 76.4978
      vertex 68.84 45.17 76.17
    endloop
  endfacet
  facet normal 0 0.10453 0.994522
    outer loop
      vertex 68.84 42.0513 76.4978
      vertex 67.88 45.17 76.17
      vertex 67.88 42.0513 76.4978
    endloop
  endfacet
  facet normal 0 -0.309017 0.951057
    outer loop
      vertex 0 51.271 77.4668
      vertex 0.959999 48.2887 76.4978
      vertex 0.959999 51.271 77.4668
    endloop
  endfacet
  facet normal 0 -0.309017 0.951057
    outer loop
      vertex 0.959999 48.2887 76.4978
      vertex 0 51.271 77.4668
      vertex 0 48.2887 76.4978
    endloop
  endfacet
  facet normal 0 -0.309017 0.951057
    outer loop
      vertex 67.88 51.271 77.4668
      vertex 68.84 48.2887 76.4978
      vertex 68.84 51.271 77.4668
    endloop
  endfacet
  facet normal 0 -0.309017 0.951057
    outer loop
      vertex 68.84 48.2887 76.4978
      vertex 67.88 51.271 77.4668
      vertex 67.88 48.2887 76.4978
    endloop
  endfacet
  facet normal -0 0.669131 0.743145
    outer loop
      vertex 0 36.3532 79.0347
      vertex 0.959999 34.0228 81.133
      vertex 0.959999 36.3532 79.0347
    endloop
  endfacet
  facet normal 0 0.669131 0.743145
    outer loop
      vertex 0.959999 34.0228 81.133
      vertex 0 36.3532 79.0347
      vertex 0 34.0228 81.133
    endloop
  endfacet
  facet normal -0 0.669131 0.743145
    outer loop
      vertex 67.88 36.3532 79.0347
      vertex 68.84 34.0228 81.133
      vertex 68.84 36.3532 79.0347
    endloop
  endfacet
  facet normal 0 0.669131 0.743145
    outer loop
      vertex 68.84 34.0228 81.133
      vertex 67.88 36.3532 79.0347
      vertex 67.88 34.0228 81.133
    endloop
  endfacet
  facet normal 0 -0.978148 0.207912
    outer loop
      vertex 0 59.4358 86.5347
      vertex 0.959999 60.0878 89.6021
      vertex 0 60.0878 89.6021
    endloop
  endfacet
  facet normal 0 -0.978148 0.207912
    outer loop
      vertex 0.959999 60.0878 89.6021
      vertex 0 59.4358 86.5347
      vertex 0.959999 59.4358 86.5347
    endloop
  endfacet
  facet normal 0 -0.978148 0.207912
    outer loop
      vertex 67.88 59.4358 86.5347
      vertex 68.84 60.0878 89.6021
      vertex 67.88 60.0878 89.6021
    endloop
  endfacet
  facet normal 0 -0.978148 0.207912
    outer loop
      vertex 68.84 60.0878 89.6021
      vertex 67.88 59.4358 86.5347
      vertex 68.84 59.4358 86.5347
    endloop
  endfacet
  facet normal -0 0.309017 0.951056
    outer loop
      vertex 0 42.0513 76.4978
      vertex 0.959999 39.069 77.4668
      vertex 0.959999 42.0513 76.4978
    endloop
  endfacet
  facet normal 0 0.309017 0.951056
    outer loop
      vertex 0.959999 39.069 77.4668
      vertex 0 42.0513 76.4978
      vertex 0 39.069 77.4668
    endloop
  endfacet
  facet normal -0 0.309017 0.951056
    outer loop
      vertex 67.88 42.0513 76.4978
      vertex 68.84 39.069 77.4668
      vertex 68.84 42.0513 76.4978
    endloop
  endfacet
  facet normal 0 0.309017 0.951056
    outer loop
      vertex 68.84 39.069 77.4668
      vertex 67.88 42.0513 76.4978
      vertex 67.88 39.069 77.4668
    endloop
  endfacet
  facet normal -0 0.499999 0.866026
    outer loop
      vertex 0 39.069 77.4668
      vertex 0.959999 36.3532 79.0347
      vertex 0.959999 39.069 77.4668
    endloop
  endfacet
  facet normal 0 0.499999 0.866026
    outer loop
      vertex 0.959999 36.3532 79.0347
      vertex 0 39.069 77.4668
      vertex 0 36.3532 79.0347
    endloop
  endfacet
  facet normal -0 0.499999 0.866026
    outer loop
      vertex 67.88 39.069 77.4668
      vertex 68.84 36.3532 79.0347
      vertex 68.84 39.069 77.4668
    endloop
  endfacet
  facet normal 0 0.499999 0.866026
    outer loop
      vertex 68.84 36.3532 79.0347
      vertex 67.88 39.069 77.4668
      vertex 67.88 36.3532 79.0347
    endloop
  endfacet
  facet normal 0 -0.499999 0.866026
    outer loop
      vertex 0 53.9868 79.0347
      vertex 0.959999 51.271 77.4668
      vertex 0.959999 53.9868 79.0347
    endloop
  endfacet
  facet normal 0 -0.499999 0.866026
    outer loop
      vertex 0.959999 51.271 77.4668
      vertex 0 53.9868 79.0347
      vertex 0 51.271 77.4668
    endloop
  endfacet
  facet normal 0 -0.499999 0.866026
    outer loop
      vertex 67.88 53.9868 79.0347
      vertex 68.84 51.271 77.4668
      vertex 68.84 53.9868 79.0347
    endloop
  endfacet
  facet normal 0 -0.499999 0.866026
    outer loop
      vertex 68.84 51.271 77.4668
      vertex 67.88 53.9868 79.0347
      vertex 67.88 51.271 77.4668
    endloop
  endfacet
  facet normal 0 0.913545 0.406737
    outer loop
      vertex 0.959999 32.1796 83.67
      vertex 0 30.9042 86.5347
      vertex 0.959999 30.9042 86.5347
    endloop
  endfacet
  facet normal 0 0.913545 0.406737
    outer loop
      vertex 0 30.9042 86.5347
      vertex 0.959999 32.1796 83.67
      vertex 0 32.1796 83.67
    endloop
  endfacet
  facet normal 0 0.913545 0.406737
    outer loop
      vertex 68.84 32.1796 83.67
      vertex 67.88 30.9042 86.5347
      vertex 68.84 30.9042 86.5347
    endloop
  endfacet
  facet normal 0 0.913545 0.406737
    outer loop
      vertex 67.88 30.9042 86.5347
      vertex 68.84 32.1796 83.67
      vertex 67.88 32.1796 83.67
    endloop
  endfacet
  facet normal 0 0.978148 0.207912
    outer loop
      vertex 0.959999 30.9042 86.5347
      vertex 0 30.2522 89.6021
      vertex 0.959999 30.2522 89.6021
    endloop
  endfacet
  facet normal 0 0.978148 0.207912
    outer loop
      vertex 0 30.2522 89.6021
      vertex 0.959999 30.9042 86.5347
      vertex 0 30.9042 86.5347
    endloop
  endfacet
  facet normal 0 0.978148 0.207912
    outer loop
      vertex 68.84 30.9042 86.5347
      vertex 67.88 30.2522 89.6021
      vertex 68.84 30.2522 89.6021
    endloop
  endfacet
  facet normal 0 0.978148 0.207912
    outer loop
      vertex 67.88 30.2522 89.6021
      vertex 68.84 30.9042 86.5347
      vertex 67.88 30.9042 86.5347
    endloop
  endfacet
  facet normal 0 -1 0
    outer loop
      vertex 36.3292 0.48 21.0602
      vertex 33.6208 0.48 22.6668
      vertex 33.3661 0.48 21.3583
    endloop
  endfacet
  facet normal 0 -1 0
    outer loop
      vertex 33.6208 0.48 22.6668
      vertex 36.3292 0.48 21.0602
      vertex 33.8016 0.48 23.0333
    endloop
  endfacet
  facet normal 0 -1 0
    outer loop
      vertex 32.624 0.48 15.8643
      vertex 36.3292 0.48 21.0602
      vertex 33.3661 0.48 21.3583
    endloop
  endfacet
  facet normal 0 -1 -0
    outer loop
      vertex 36.3292 0.48 21.0602
      vertex 32.624 0.48 15.8643
      vertex 38.9499 0.48 19.0197
    endloop
  endfacet
  facet normal 0 -1 0
    outer loop
      vertex 38.5711 0.48 20.3206
      vertex 38.8458 0.48 26.416
      vertex 36.436 0.48 24.8324
    endloop
  endfacet
  facet normal 0 -1 0
    outer loop
      vertex 36.436 0.48 24.8324
      vertex 38.8458 0.48 26.416
      vertex 35.6802 0.48 26.6771
    endloop
  endfacet
  facet normal 0 -1 0
    outer loop
      vertex 21.9421 0.48 26.3573
      vertex 18.1712 0.48 35.9899
      vertex 14.6112 0.48 36.822
    endloop
  endfacet
  facet normal 0 -1 0
    outer loop
      vertex 18.1712 0.48 35.9899
      vertex 21.9421 0.48 26.3573
      vertex 21.9311 0.48 32.8062
    endloop
  endfacet
  facet normal 0 -1 0
    outer loop
      vertex 21.9311 0.48 32.8062
      vertex 23.5998 0.48 27.7202
      vertex 25.776 0.48 29.5573
    endloop
  endfacet
  facet normal 0 -1 0
    outer loop
      vertex 21.9311 0.48 32.8062
      vertex 21.9421 0.48 26.3573
      vertex 23.5998 0.48 27.7202
    endloop
  endfacet
  facet normal 0 -1 0
    outer loop
      vertex 14.6112 0.48 36.822
      vertex 21.9266 0.48 26.18
      vertex 21.9421 0.48 26.3573
    endloop
  endfacet
  facet normal 0 -1 0
    outer loop
      vertex 21.9266 0.48 26.18
      vertex 24.2981 0.48 19.2612
      vertex 25.8043 0.48 22.496
    endloop
  endfacet
  facet normal 0 -1 0
    outer loop
      vertex 14.6112 0.48 36.822
      vertex 24.2981 0.48 19.2612
      vertex 21.9266 0.48 26.18
    endloop
  endfacet
  facet normal 0 -1 0
    outer loop
      vertex 24.2981 0.48 19.2612
      vertex 31.5688 0.48 8.72691
      vertex 30.5528 0.48 15.8687
    endloop
  endfacet
  facet normal 0 -1 0
    outer loop
      vertex 24.2981 0.48 19.2612
      vertex 30.4597 0.48 5.18648
      vertex 31.5688 0.48 8.72691
    endloop
  endfacet
  facet normal 0 -1 0
    outer loop
      vertex 30.4597 0.48 5.18648
      vertex 24.2981 0.48 19.2612
      vertex 14.6112 0.48 36.822
    endloop
  endfacet
  facet normal 0 -1 0
    outer loop
      vertex 15.7458 0.48 39.6065
      vertex 31.587 0.48 37.8825
      vertex 47.8755 0.48 39.6065
    endloop
  endfacet
  facet normal 0 -1 0
    outer loop
      vertex 18.1712 0.48 35.9899
      vertex 15.7458 0.48 39.6065
      vertex 14.6112 0.48 36.822
    endloop
  endfacet
  facet normal 0 -1 0
    outer loop
      vertex 24.1584 0.48 34.2333
      vertex 15.7458 0.48 39.6065
      vertex 18.1712 0.48 35.9899
    endloop
  endfacet
  facet normal 0 -1 0
    outer loop
      vertex 15.7458 0.48 39.6065
      vertex 24.1584 0.48 34.2333
      vertex 31.587 0.48 37.8825
    endloop
  endfacet
  facet normal 0 -1 0
    outer loop
      vertex 31.587 0.48 37.8825
      vertex 24.1584 0.48 34.2333
      vertex 30.9152 0.48 35.0556
    endloop
  endfacet
  facet normal 0 -1 0
    outer loop
      vertex 24.1584 0.48 34.2333
      vertex 30.5254 0.48 33.1641
      vertex 30.9152 0.48 35.0556
    endloop
  endfacet
  facet normal -0 -1 0
    outer loop
      vertex 30.5254 0.48 33.1641
      vertex 24.1584 0.48 34.2333
      vertex 30.2507 0.48 32.3766
    endloop
  endfacet
  facet normal 0 -1 0
    outer loop
      vertex 39.0877 0.48 34.2659
      vertex 31.587 0.48 37.8825
      vertex 31.9001 0.48 37.1559
    endloop
  endfacet
  facet normal 0 -1 0
    outer loop
      vertex 31.587 0.48 37.8825
      vertex 39.0877 0.48 34.2659
      vertex 47.8755 0.48 39.6065
    endloop
  endfacet
  facet normal 0 -1 -0
    outer loop
      vertex 47.8755 0.48 39.6065
      vertex 44.9518 0.48 36.0378
      vertex 49.0312 0.48 36.2129
    endloop
  endfacet
  facet normal 0 -1 0
    outer loop
      vertex 39.0877 0.48 34.2659
      vertex 31.9001 0.48 37.1559
      vertex 32.373 0.48 35.2035
    endloop
  endfacet
  facet normal 0 -1 0
    outer loop
      vertex 47.8755 0.48 39.6065
      vertex 39.0877 0.48 34.2659
      vertex 44.9518 0.48 36.0378
    endloop
  endfacet
  facet normal 0 -1 0
    outer loop
      vertex 32.8404 0.48 33.2065
      vertex 39.0877 0.48 34.2659
      vertex 32.373 0.48 35.2035
    endloop
  endfacet
  facet normal 0 -1 0
    outer loop
      vertex 39.0877 0.48 34.2659
      vertex 32.8404 0.48 33.2065
      vertex 33.1407 0.48 32.3766
    endloop
  endfacet
  facet normal 0 -1 0
    outer loop
      vertex 42.0143 0.48 26.1583
      vertex 44.9518 0.48 36.0378
      vertex 40.9536 0.48 33.0107
    endloop
  endfacet
  facet normal 0 -1 0
    outer loop
      vertex 39.4848 0.48 27.9823
      vertex 40.9536 0.48 33.0107
      vertex 36.8568 0.48 29.8945
    endloop
  endfacet
  facet normal 0 -1 0
    outer loop
      vertex 42.0143 0.48 26.1583
      vertex 40.9536 0.48 33.0107
      vertex 39.4848 0.48 27.9823
    endloop
  endfacet
  facet normal 0 -1 -0
    outer loop
      vertex 44.9518 0.48 36.0378
      vertex 42.0143 0.48 26.1583
      vertex 49.0312 0.48 36.2129
    endloop
  endfacet
  facet normal 0 -1 -0
    outer loop
      vertex 38.8458 0.48 26.416
      vertex 38.5711 0.48 20.3206
      vertex 42.0143 0.48 26.1583
    endloop
  endfacet
  facet normal 0 -1 0
    outer loop
      vertex 38.9855 0.48 19.2558
      vertex 42.0143 0.48 26.1583
      vertex 38.5711 0.48 20.3206
    endloop
  endfacet
  facet normal 0 -1 0
    outer loop
      vertex 39.0248 0.48 19.0328
      vertex 42.0143 0.48 26.1583
      vertex 38.9855 0.48 19.2558
    endloop
  endfacet
  facet normal 0 -1 -0
    outer loop
      vertex 42.0143 0.48 26.1583
      vertex 39.0248 0.48 19.0328
      vertex 49.0312 0.48 36.2129
    endloop
  endfacet
  facet normal 0 -1 0
    outer loop
      vertex 31.9458 0.48 10.7283
      vertex 38.9499 0.48 19.0197
      vertex 32.624 0.48 15.8643
    endloop
  endfacet
  facet normal 0 -1 -0
    outer loop
      vertex 38.9499 0.48 19.0197
      vertex 31.9458 0.48 10.7283
      vertex 39.0248 0.48 19.0328
    endloop
  endfacet
  facet normal 0 -1 0
    outer loop
      vertex 32.7682 0.48 5.18648
      vertex 31.9458 0.48 10.7283
      vertex 31.5688 0.48 8.72691
    endloop
  endfacet
  facet normal 0 -1 0
    outer loop
      vertex 32.7682 0.48 5.18648
      vertex 31.5688 0.48 8.72691
      vertex 30.4597 0.48 5.18648
    endloop
  endfacet
  facet normal 0 -1 -0
    outer loop
      vertex 39.0248 0.48 19.0328
      vertex 32.7682 0.48 5.18648
      vertex 49.0312 0.48 36.2129
    endloop
  endfacet
  facet normal 0 -1 0
    outer loop
      vertex 31.9458 0.48 10.7283
      vertex 32.7682 0.48 5.18648
      vertex 39.0248 0.48 19.0328
    endloop
  endfacet
  facet normal 0 -1 0
    outer loop
      vertex 27.6765 0.48 26.2148
      vertex 27.5816 0.48 26.6967
      vertex 25.6098 0.48 26.5955
    endloop
  endfacet
  facet normal 0 -1 0
    outer loop
      vertex 25.8043 0.48 22.496
      vertex 25.6098 0.48 26.5955
      vertex 22.3474 0.48 26.2159
    endloop
  endfacet
  facet normal 0 -1 0
    outer loop
      vertex 27.5816 0.48 26.6967
      vertex 27.6765 0.48 26.2148
      vertex 27.7787 0.48 26.5444
    endloop
  endfacet
  facet normal 0 -1 0
    outer loop
      vertex 25.8043 0.48 22.496
      vertex 22.3474 0.48 26.2159
      vertex 21.9266 0.48 26.18
    endloop
  endfacet
  facet normal 0 -1 0
    outer loop
      vertex 25.6098 0.48 26.5955
      vertex 25.8043 0.48 22.496
      vertex 27.6765 0.48 26.2148
    endloop
  endfacet
  facet normal 0 -1 0
    outer loop
      vertex 30.5528 0.48 15.8687
      vertex 26.9398 0.48 21.0896
      vertex 24.2981 0.48 19.2612
    endloop
  endfacet
  facet normal 0 -1 0
    outer loop
      vertex 26.9398 0.48 21.0896
      vertex 30.5528 0.48 15.8687
      vertex 29.5934 0.48 22.905
    endloop
  endfacet
  facet normal 0.926066 0 -0.37736
    outer loop
      vertex 15.7458 0 39.6065
      vertex 14.6112 0.48 36.822
      vertex 15.7458 0.48 39.6065
    endloop
  endfacet
  facet normal 0.926066 0 -0.37736
    outer loop
      vertex 14.6112 0.48 36.822
      vertex 15.7458 0 39.6065
      vertex 14.6112 0 36.822
    endloop
  endfacet
  facet normal 0.894079 -0 0.447909
    outer loop
      vertex 14.6112 0 36.822
      vertex 30.4597 0.48 5.18648
      vertex 14.6112 0.48 36.822
    endloop
  endfacet
  facet normal 0.894079 0 0.447909
    outer loop
      vertex 30.4597 0.48 5.18648
      vertex 14.6112 0 36.822
      vertex 30.4597 0 5.18648
    endloop
  endfacet
  facet normal -0 0 1
    outer loop
      vertex 30.4597 0.48 5.18648
      vertex 32.7682 0 5.18648
      vertex 32.7682 0.48 5.18648
    endloop
  endfacet
  facet normal 0 0 1
    outer loop
      vertex 32.7682 0 5.18648
      vertex 30.4597 0.48 5.18648
      vertex 30.4597 0 5.18648
    endloop
  endfacet
  facet normal -0.885702 0 0.464254
    outer loop
      vertex 32.7682 0 5.18648
      vertex 49.0312 0.48 36.2129
      vertex 32.7682 0.48 5.18648
    endloop
  endfacet
  facet normal -0.885702 0 0.464254
    outer loop
      vertex 49.0312 0.48 36.2129
      vertex 32.7682 0 5.18648
      vertex 49.0312 0 36.2129
    endloop
  endfacet
  facet normal -0.946618 0 -0.322357
    outer loop
      vertex 49.0312 0 36.2129
      vertex 47.8755 0.48 39.6065
      vertex 49.0312 0.48 36.2129
    endloop
  endfacet
  facet normal -0.946618 -0 -0.322357
    outer loop
      vertex 47.8755 0.48 39.6065
      vertex 49.0312 0 36.2129
      vertex 47.8755 0 39.6065
    endloop
  endfacet
  facet normal 0 0 -1
    outer loop
      vertex 15.7458 0 39.6065
      vertex 47.8755 0.48 39.6065
      vertex 47.8755 0 39.6065
    endloop
  endfacet
  facet normal -0 0 -1
    outer loop
      vertex 47.8755 0.48 39.6065
      vertex 15.7458 0 39.6065
      vertex 15.7458 0.48 39.6065
    endloop
  endfacet
  facet normal 0.971903 -0 0.23538
    outer loop
      vertex 31.9001 0 37.1559
      vertex 32.373 0.48 35.2035
      vertex 31.9001 0.48 37.1559
    endloop
  endfacet
  facet normal 0.971903 0 0.23538
    outer loop
      vertex 32.373 0.48 35.2035
      vertex 31.9001 0 37.1559
      vertex 32.373 0 35.2035
    endloop
  endfacet
  facet normal 0.97369 -0 0.227878
    outer loop
      vertex 32.373 0 35.2035
      vertex 32.8404 0.48 33.2065
      vertex 32.373 0.48 35.2035
    endloop
  endfacet
  facet normal 0.97369 0 0.227878
    outer loop
      vertex 32.8404 0.48 33.2065
      vertex 32.373 0 35.2035
      vertex 32.8404 0 33.2065
    endloop
  endfacet
  facet normal 0.940325 -0 0.340277
    outer loop
      vertex 32.8404 0 33.2065
      vertex 33.1407 0.48 32.3766
      vertex 32.8404 0.48 33.2065
    endloop
  endfacet
  facet normal 0.940325 0 0.340277
    outer loop
      vertex 33.1407 0.48 32.3766
      vertex 32.8404 0 33.2065
      vertex 33.1407 0 32.3766
    endloop
  endfacet
  facet normal -0.302777 0 0.953061
    outer loop
      vertex 33.1407 0.48 32.3766
      vertex 39.0877 0 34.2659
      vertex 39.0877 0.48 34.2659
    endloop
  endfacet
  facet normal -0.302777 0 0.953061
    outer loop
      vertex 39.0877 0 34.2659
      vertex 33.1407 0.48 32.3766
      vertex 33.1407 0 32.3766
    endloop
  endfacet
  facet normal -0.289241 0 0.957256
    outer loop
      vertex 39.0877 0.48 34.2659
      vertex 44.9518 0 36.0378
      vertex 44.9518 0.48 36.0378
    endloop
  endfacet
  facet normal -0.289241 0 0.957256
    outer loop
      vertex 44.9518 0 36.0378
      vertex 39.0877 0.48 34.2659
      vertex 39.0877 0 34.2659
    endloop
  endfacet
  facet normal 0.603619 0 -0.797273
    outer loop
      vertex 40.9536 0 33.0107
      vertex 44.9518 0.48 36.0378
      vertex 44.9518 0 36.0378
    endloop
  endfacet
  facet normal 0.603619 0 -0.797273
    outer loop
      vertex 44.9518 0.48 36.0378
      vertex 40.9536 0 33.0107
      vertex 40.9536 0.48 33.0107
    endloop
  endfacet
  facet normal 0.605414 0 -0.795911
    outer loop
      vertex 36.8568 0 29.8945
      vertex 40.9536 0.48 33.0107
      vertex 40.9536 0 33.0107
    endloop
  endfacet
  facet normal 0.605414 0 -0.795911
    outer loop
      vertex 40.9536 0.48 33.0107
      vertex 36.8568 0 29.8945
      vertex 36.8568 0.48 29.8945
    endloop
  endfacet
  facet normal 0.588346 0 0.808609
    outer loop
      vertex 36.8568 0.48 29.8945
      vertex 39.4848 0 27.9823
      vertex 39.4848 0.48 27.9823
    endloop
  endfacet
  facet normal 0.588346 0 0.808609
    outer loop
      vertex 39.4848 0 27.9823
      vertex 36.8568 0.48 29.8945
      vertex 36.8568 0 29.8945
    endloop
  endfacet
  facet normal 0.584908 0 0.8111
    outer loop
      vertex 39.4848 0.48 27.9823
      vertex 42.0143 0 26.1583
      vertex 42.0143 0.48 26.1583
    endloop
  endfacet
  facet normal 0.584908 0 0.8111
    outer loop
      vertex 42.0143 0 26.1583
      vertex 39.4848 0.48 27.9823
      vertex 39.4848 0 27.9823
    endloop
  endfacet
  facet normal -0.0810917 0 -0.996707
    outer loop
      vertex 38.8458 0 26.416
      vertex 42.0143 0.48 26.1583
      vertex 42.0143 0 26.1583
    endloop
  endfacet
  facet normal -0.0810917 0 -0.996707
    outer loop
      vertex 42.0143 0.48 26.1583
      vertex 38.8458 0 26.416
      vertex 38.8458 0.48 26.416
    endloop
  endfacet
  facet normal -0.0821827 0 -0.996617
    outer loop
      vertex 35.6802 0 26.6771
      vertex 38.8458 0.48 26.416
      vertex 38.8458 0 26.416
    endloop
  endfacet
  facet normal -0.0821827 0 -0.996617
    outer loop
      vertex 38.8458 0.48 26.416
      vertex 35.6802 0 26.6771
      vertex 35.6802 0.48 26.6771
    endloop
  endfacet
  facet normal 0.925343 -0 0.379132
    outer loop
      vertex 35.6802 0 26.6771
      vertex 36.436 0.48 24.8324
      vertex 35.6802 0.48 26.6771
    endloop
  endfacet
  facet normal 0.925343 0 0.379132
    outer loop
      vertex 36.436 0.48 24.8324
      vertex 35.6802 0 26.6771
      vertex 36.436 0 24.8324
    endloop
  endfacet
  facet normal 0.903896 -0 0.427752
    outer loop
      vertex 36.436 0 24.8324
      vertex 38.5711 0.48 20.3206
      vertex 36.436 0.48 24.8324
    endloop
  endfacet
  facet normal 0.903896 0 0.427752
    outer loop
      vertex 38.5711 0.48 20.3206
      vertex 36.436 0 24.8324
      vertex 38.5711 0 20.3206
    endloop
  endfacet
  facet normal 0.931911 -0 0.362687
    outer loop
      vertex 38.5711 0 20.3206
      vertex 38.9855 0.48 19.2558
      vertex 38.5711 0.48 20.3206
    endloop
  endfacet
  facet normal 0.931911 0 0.362687
    outer loop
      vertex 38.9855 0.48 19.2558
      vertex 38.5711 0 20.3206
      vertex 38.9855 0 19.2558
    endloop
  endfacet
  facet normal 0.984859 -0 0.17336
    outer loop
      vertex 38.9855 0 19.2558
      vertex 39.0248 0.48 19.0328
      vertex 38.9855 0.48 19.2558
    endloop
  endfacet
  facet normal 0.984859 0 0.17336
    outer loop
      vertex 39.0248 0.48 19.0328
      vertex 38.9855 0 19.2558
      vertex 39.0248 0 19.0328
    endloop
  endfacet
  facet normal 0.171779 0 -0.985136
    outer loop
      vertex 38.9499 0 19.0197
      vertex 39.0248 0.48 19.0328
      vertex 39.0248 0 19.0328
    endloop
  endfacet
  facet normal 0.171779 0 -0.985136
    outer loop
      vertex 39.0248 0.48 19.0328
      vertex 38.9499 0 19.0197
      vertex 38.9499 0.48 19.0197
    endloop
  endfacet
  facet normal -0.614347 0 -0.789036
    outer loop
      vertex 36.3292 0 21.0602
      vertex 38.9499 0.48 19.0197
      vertex 38.9499 0 19.0197
    endloop
  endfacet
  facet normal -0.614347 0 -0.789036
    outer loop
      vertex 38.9499 0.48 19.0197
      vertex 36.3292 0 21.0602
      vertex 36.3292 0.48 21.0602
    endloop
  endfacet
  facet normal -0.615328 0 -0.788271
    outer loop
      vertex 33.8016 0 23.0333
      vertex 36.3292 0.48 21.0602
      vertex 36.3292 0 21.0602
    endloop
  endfacet
  facet normal -0.615328 0 -0.788271
    outer loop
      vertex 36.3292 0.48 21.0602
      vertex 33.8016 0 23.0333
      vertex 33.8016 0.48 23.0333
    endloop
  endfacet
  facet normal 0.896894 0 -0.442245
    outer loop
      vertex 33.8016 0 23.0333
      vertex 33.6208 0.48 22.6668
      vertex 33.8016 0.48 23.0333
    endloop
  endfacet
  facet normal 0.896894 0 -0.442245
    outer loop
      vertex 33.6208 0.48 22.6668
      vertex 33.8016 0 23.0333
      vertex 33.6208 0 22.6668
    endloop
  endfacet
  facet normal 0.98158 0 -0.191051
    outer loop
      vertex 33.6208 0 22.6668
      vertex 33.3661 0.48 21.3583
      vertex 33.6208 0.48 22.6668
    endloop
  endfacet
  facet normal 0.98158 0 -0.191051
    outer loop
      vertex 33.3661 0.48 21.3583
      vertex 33.6208 0 22.6668
      vertex 33.3661 0 21.3583
    endloop
  endfacet
  facet normal 0.991 0 -0.133865
    outer loop
      vertex 33.3661 0 21.3583
      vertex 32.624 0.48 15.8643
      vertex 33.3661 0.48 21.3583
    endloop
  endfacet
  facet normal 0.991 0 -0.133865
    outer loop
      vertex 32.624 0.48 15.8643
      vertex 33.3661 0 21.3583
      vertex 32.624 0 15.8643
    endloop
  endfacet
  facet normal 0.991393 0 -0.130916
    outer loop
      vertex 32.624 0 15.8643
      vertex 31.9458 0.48 10.7283
      vertex 32.624 0.48 15.8643
    endloop
  endfacet
  facet normal 0.991393 0 -0.130916
    outer loop
      vertex 31.9458 0.48 10.7283
      vertex 32.624 0 15.8643
      vertex 31.9458 0 10.7283
    endloop
  endfacet
  facet normal 0.982717 0 -0.185115
    outer loop
      vertex 31.9458 0 10.7283
      vertex 31.5688 0.48 8.72691
      vertex 31.9458 0.48 10.7283
    endloop
  endfacet
  facet normal 0.982717 0 -0.185115
    outer loop
      vertex 31.5688 0.48 8.72691
      vertex 31.9458 0 10.7283
      vertex 31.5688 0 8.72691
    endloop
  endfacet
  facet normal -0.990032 0 -0.140841
    outer loop
      vertex 31.5688 0 8.72691
      vertex 30.5528 0.48 15.8687
      vertex 31.5688 0.48 8.72691
    endloop
  endfacet
  facet normal -0.990032 -0 -0.140841
    outer loop
      vertex 30.5528 0.48 15.8687
      vertex 31.5688 0 8.72691
      vertex 30.5528 0 15.8687
    endloop
  endfacet
  facet normal -0.990832 0 -0.135098
    outer loop
      vertex 30.5528 0 15.8687
      vertex 29.5934 0.48 22.905
      vertex 30.5528 0.48 15.8687
    endloop
  endfacet
  facet normal -0.990832 -0 -0.135098
    outer loop
      vertex 29.5934 0.48 22.905
      vertex 30.5528 0 15.8687
      vertex 29.5934 0 22.905
    endloop
  endfacet
  facet normal 0.564629 0 -0.825345
    outer loop
      vertex 26.9398 0 21.0896
      vertex 29.5934 0.48 22.905
      vertex 29.5934 0 22.905
    endloop
  endfacet
  facet normal 0.564629 0 -0.825345
    outer loop
      vertex 29.5934 0.48 22.905
      vertex 26.9398 0 21.0896
      vertex 26.9398 0.48 21.0896
    endloop
  endfacet
  facet normal 0.56911 0 -0.822261
    outer loop
      vertex 24.2981 0 19.2612
      vertex 26.9398 0.48 21.0896
      vertex 26.9398 0 21.0896
    endloop
  endfacet
  facet normal 0.56911 0 -0.822261
    outer loop
      vertex 26.9398 0.48 21.0896
      vertex 24.2981 0 19.2612
      vertex 24.2981 0.48 19.2612
    endloop
  endfacet
  facet normal -0.906548 0 0.422102
    outer loop
      vertex 24.2981 0 19.2612
      vertex 25.8043 0.48 22.496
      vertex 24.2981 0.48 19.2612
    endloop
  endfacet
  facet normal -0.906548 0 0.422102
    outer loop
      vertex 25.8043 0.48 22.496
      vertex 24.2981 0 19.2612
      vertex 25.8043 0 22.496
    endloop
  endfacet
  facet normal -0.893194 0 0.449671
    outer loop
      vertex 25.8043 0 22.496
      vertex 27.6765 0.48 26.2148
      vertex 25.8043 0.48 22.496
    endloop
  endfacet
  facet normal -0.893194 0 0.449671
    outer loop
      vertex 27.6765 0.48 26.2148
      vertex 25.8043 0 22.496
      vertex 27.6765 0 26.2148
    endloop
  endfacet
  facet normal -0.955099 0 0.296286
    outer loop
      vertex 27.6765 0 26.2148
      vertex 27.7787 0.48 26.5444
      vertex 27.6765 0.48 26.2148
    endloop
  endfacet
  facet normal -0.955099 0 0.296286
    outer loop
      vertex 27.7787 0.48 26.5444
      vertex 27.6765 0 26.2148
      vertex 27.7787 0 26.5444
    endloop
  endfacet
  facet normal -0.611237 0 -0.791448
    outer loop
      vertex 27.5816 0 26.6967
      vertex 27.7787 0.48 26.5444
      vertex 27.7787 0 26.5444
    endloop
  endfacet
  facet normal -0.611237 0 -0.791448
    outer loop
      vertex 27.7787 0.48 26.5444
      vertex 27.5816 0 26.6967
      vertex 27.5816 0.48 26.6967
    endloop
  endfacet
  facet normal 0.0512355 0 -0.998687
    outer loop
      vertex 25.6098 0 26.5955
      vertex 27.5816 0.48 26.6967
      vertex 27.5816 0 26.6967
    endloop
  endfacet
  facet normal 0.0512355 0 -0.998687
    outer loop
      vertex 27.5816 0.48 26.6967
      vertex 25.6098 0 26.5955
      vertex 25.6098 0.48 26.5955
    endloop
  endfacet
  facet normal 0.115576 0 -0.993299
    outer loop
      vertex 22.3474 0 26.2159
      vertex 25.6098 0.48 26.5955
      vertex 25.6098 0 26.5955
    endloop
  endfacet
  facet normal 0.115576 0 -0.993299
    outer loop
      vertex 25.6098 0.48 26.5955
      vertex 22.3474 0 26.2159
      vertex 22.3474 0.48 26.2159
    endloop
  endfacet
  facet normal 0.0849847 0 -0.996382
    outer loop
      vertex 21.9266 0 26.18
      vertex 22.3474 0.48 26.2159
      vertex 22.3474 0 26.2159
    endloop
  endfacet
  facet normal 0.0849847 0 -0.996382
    outer loop
      vertex 22.3474 0.48 26.2159
      vertex 21.9266 0 26.18
      vertex 21.9266 0.48 26.18
    endloop
  endfacet
  facet normal -0.996191 0 0.0871957
    outer loop
      vertex 21.9266 0 26.18
      vertex 21.9421 0.48 26.3573
      vertex 21.9266 0.48 26.18
    endloop
  endfacet
  facet normal -0.996191 0 0.0871957
    outer loop
      vertex 21.9421 0.48 26.3573
      vertex 21.9266 0 26.18
      vertex 21.9421 0 26.3573
    endloop
  endfacet
  facet normal -0.635074 0 0.772452
    outer loop
      vertex 21.9421 0.48 26.3573
      vertex 23.5998 0 27.7202
      vertex 23.5998 0.48 27.7202
    endloop
  endfacet
  facet normal -0.635074 0 0.772452
    outer loop
      vertex 23.5998 0 27.7202
      vertex 21.9421 0.48 26.3573
      vertex 21.9421 0 26.3573
    endloop
  endfacet
  facet normal -0.645067 0 0.764126
    outer loop
      vertex 23.5998 0.48 27.7202
      vertex 25.776 0 29.5573
      vertex 25.776 0.48 29.5573
    endloop
  endfacet
  facet normal -0.645067 0 0.764126
    outer loop
      vertex 25.776 0 29.5573
      vertex 23.5998 0.48 27.7202
      vertex 23.5998 0 27.7202
    endloop
  endfacet
  facet normal -0.645435 0 -0.763815
    outer loop
      vertex 21.9311 0 32.8062
      vertex 25.776 0.48 29.5573
      vertex 25.776 0 29.5573
    endloop
  endfacet
  facet normal -0.645435 0 -0.763815
    outer loop
      vertex 25.776 0.48 29.5573
      vertex 21.9311 0 32.8062
      vertex 21.9311 0.48 32.8062
    endloop
  endfacet
  facet normal -0.646201 0 -0.763168
    outer loop
      vertex 18.1712 0 35.9899
      vertex 21.9311 0.48 32.8062
      vertex 21.9311 0 32.8062
    endloop
  endfacet
  facet normal -0.646201 0 -0.763168
    outer loop
      vertex 21.9311 0.48 32.8062
      vertex 18.1712 0 35.9899
      vertex 18.1712 0.48 35.9899
    endloop
  endfacet
  facet normal 0.281527 0 0.959553
    outer loop
      vertex 18.1712 0.48 35.9899
      vertex 24.1584 0 34.2333
      vertex 24.1584 0.48 34.2333
    endloop
  endfacet
  facet normal 0.281527 0 0.959553
    outer loop
      vertex 24.1584 0 34.2333
      vertex 18.1712 0.48 35.9899
      vertex 18.1712 0 35.9899
    endloop
  endfacet
  facet normal 0.291526 0 0.956563
    outer loop
      vertex 24.1584 0.48 34.2333
      vertex 30.2507 0 32.3766
      vertex 30.2507 0.48 32.3766
    endloop
  endfacet
  facet normal 0.291526 0 0.956563
    outer loop
      vertex 30.2507 0 32.3766
      vertex 24.1584 0.48 34.2333
      vertex 24.1584 0 34.2333
    endloop
  endfacet
  facet normal -0.944179 0 0.329432
    outer loop
      vertex 30.2507 0 32.3766
      vertex 30.5254 0.48 33.1641
      vertex 30.2507 0.48 32.3766
    endloop
  endfacet
  facet normal -0.944179 0 0.329432
    outer loop
      vertex 30.5254 0.48 33.1641
      vertex 30.2507 0 32.3766
      vertex 30.5254 0 33.1641
    endloop
  endfacet
  facet normal -0.979421 0 0.201828
    outer loop
      vertex 30.5254 0 33.1641
      vertex 30.9152 0.48 35.0556
      vertex 30.5254 0.48 33.1641
    endloop
  endfacet
  facet normal -0.979421 0 0.201828
    outer loop
      vertex 30.9152 0.48 35.0556
      vertex 30.5254 0 33.1641
      vertex 30.9152 0 35.0556
    endloop
  endfacet
  facet normal -0.972902 0 0.231219
    outer loop
      vertex 30.9152 0 35.0556
      vertex 31.587 0.48 37.8825
      vertex 30.9152 0.48 35.0556
    endloop
  endfacet
  facet normal -0.972902 0 0.231219
    outer loop
      vertex 31.587 0.48 37.8825
      vertex 30.9152 0 35.0556
      vertex 31.587 0 37.8825
    endloop
  endfacet
  facet normal 0.91836 -0 0.395745
    outer loop
      vertex 31.587 0 37.8825
      vertex 31.9001 0.48 37.1559
      vertex 31.587 0.48 37.8825
    endloop
  endfacet
  facet normal 0.91836 0 0.395745
    outer loop
      vertex 31.9001 0.48 37.1559
      vertex 31.587 0 37.8825
      vertex 31.9001 0 37.1559
    endloop
  endfacet
endsolid OpenSCAD_Model
