solid OpenSCAD_Model
  facet normal -1 0 0
    outer loop
      vertex 0 0 0
      vertex 0 87.42 89.71
      vertex 0 87.42 0
    endloop
  endfacet
  facet normal -1 -0 0
    outer loop
      vertex 0 87.42 89.71
      vertex 0 0 0
      vertex 0 0 89.71
    endloop
  endfacet
  facet normal 0 0 1
    outer loop
      vertex 17.96 87.42 89.71
      vertex 0.959999 86.46 89.71
      vertex 17.96 86.46 89.71
    endloop
  endfacet
  facet normal 0 0 1
    outer loop
      vertex 0.959999 86.46 89.71
      vertex 0 87.42 89.71
      vertex 0.959999 0.959999 89.71
    endloop
  endfacet
  facet normal -0 0 1
    outer loop
      vertex 0 87.42 89.71
      vertex 0.959999 86.46 89.71
      vertex 17.96 87.42 89.71
    endloop
  endfacet
  facet normal -0 0 1
    outer loop
      vertex 0.959999 0.959999 89.71
      vertex 17.96 0 89.71
      vertex 17.96 0.959999 89.71
    endloop
  endfacet
  facet normal 0 0 1
    outer loop
      vertex 0.959999 0.959999 89.71
      vertex 0 0 89.71
      vertex 17.96 0 89.71
    endloop
  endfacet
  facet normal 0 0 1
    outer loop
      vertex 0 0 89.71
      vertex 0.959999 0.959999 89.71
      vertex 0 87.42 89.71
    endloop
  endfacet
  facet normal 0 0 1
    outer loop
      vertex 65.92 87.42 89.71
      vertex 64.96 86.46 89.71
      vertex 65.92 0 89.71
    endloop
  endfacet
  facet normal -0 0 1
    outer loop
      vertex 47.96 87.42 89.71
      vertex 64.96 86.46 89.71
      vertex 65.92 87.42 89.71
    endloop
  endfacet
  facet normal 0 0 1
    outer loop
      vertex 64.96 86.46 89.71
      vertex 47.96 87.42 89.71
      vertex 47.96 86.46 89.71
    endloop
  endfacet
  facet normal -0 0 1
    outer loop
      vertex 64.96 0.959999 89.71
      vertex 65.92 0 89.71
      vertex 64.96 86.46 89.71
    endloop
  endfacet
  facet normal 0 0 1
    outer loop
      vertex 47.96 0 89.71
      vertex 64.96 0.959999 89.71
      vertex 47.96 0.959999 89.71
    endloop
  endfacet
  facet normal 0 0 1
    outer loop
      vertex 64.96 0.959999 89.71
      vertex 47.96 0 89.71
      vertex 65.92 0 89.71
    endloop
  endfacet
  facet normal 1 -0 0
    outer loop
      vertex 65.92 0 89.71
      vertex 65.92 87.42 0
      vertex 65.92 87.42 89.71
    endloop
  endfacet
  facet normal 1 0 0
    outer loop
      vertex 65.92 87.42 0
      vertex 65.92 0 89.71
      vertex 65.92 0 0
    endloop
  endfacet
  facet normal 0 0 -1
    outer loop
      vertex 0 0 0
      vertex 65.92 87.42 0
      vertex 65.92 0 0
    endloop
  endfacet
  facet normal -0 0 -1
    outer loop
      vertex 65.92 87.42 0
      vertex 0 0 0
      vertex 0 87.42 0
    endloop
  endfacet
  facet normal 0 -1 0
    outer loop
      vertex 0 0 89.71
      vertex 18.2878 0 86.5913
      vertex 17.96 0 89.71
    endloop
  endfacet
  facet normal 0 -1 0
    outer loop
      vertex 0 0 89.71
      vertex 19.2568 0 83.6089
      vertex 18.2878 0 86.5913
    endloop
  endfacet
  facet normal 0 -1 0
    outer loop
      vertex 0 0 89.71
      vertex 20.8247 0 80.8932
      vertex 19.2568 0 83.6089
    endloop
  endfacet
  facet normal 0 -1 0
    outer loop
      vertex 0 0 89.71
      vertex 22.923 0 78.5628
      vertex 20.8247 0 80.8932
    endloop
  endfacet
  facet normal 0 -1 0
    outer loop
      vertex 0 0 0
      vertex 22.923 0 78.5628
      vertex 0 0 89.71
    endloop
  endfacet
  facet normal 0 -1 -0
    outer loop
      vertex 31.3921 0 74.7922
      vertex 0 0 0
      vertex 34.5279 0 74.7922
    endloop
  endfacet
  facet normal 0 -1 -0
    outer loop
      vertex 28.3247 0 75.4442
      vertex 0 0 0
      vertex 31.3921 0 74.7922
    endloop
  endfacet
  facet normal 0 -1 -0
    outer loop
      vertex 25.46 0 76.7196
      vertex 0 0 0
      vertex 28.3247 0 75.4442
    endloop
  endfacet
  facet normal 0 -1 -0
    outer loop
      vertex 22.923 0 78.5628
      vertex 0 0 0
      vertex 25.46 0 76.7196
    endloop
  endfacet
  facet normal 0 -1 0
    outer loop
      vertex 47.6322 0 86.5913
      vertex 65.92 0 89.71
      vertex 47.96 0 89.71
    endloop
  endfacet
  facet normal 0 -1 0
    outer loop
      vertex 46.6632 0 83.6089
      vertex 65.92 0 89.71
      vertex 47.6322 0 86.5913
    endloop
  endfacet
  facet normal 0 -1 0
    outer loop
      vertex 45.0953 0 80.8932
      vertex 65.92 0 89.71
      vertex 46.6632 0 83.6089
    endloop
  endfacet
  facet normal 0 -1 0
    outer loop
      vertex 42.997 0 78.5628
      vertex 65.92 0 89.71
      vertex 45.0953 0 80.8932
    endloop
  endfacet
  facet normal 0 -1 0
    outer loop
      vertex 65.92 0 0
      vertex 42.997 0 78.5628
      vertex 40.46 0 76.7196
    endloop
  endfacet
  facet normal 0 -1 0
    outer loop
      vertex 65.92 0 0
      vertex 34.5279 0 74.7922
      vertex 0 0 0
    endloop
  endfacet
  facet normal 0 -1 0
    outer loop
      vertex 34.5279 0 74.7922
      vertex 65.92 0 0
      vertex 37.5953 0 75.4442
    endloop
  endfacet
  facet normal 0 -1 0
    outer loop
      vertex 37.5953 0 75.4442
      vertex 65.92 0 0
      vertex 40.46 0 76.7196
    endloop
  endfacet
  facet normal 0 -1 0
    outer loop
      vertex 42.997 0 78.5628
      vertex 65.92 0 0
      vertex 65.92 0 89.71
    endloop
  endfacet
  facet normal 0 1 0
    outer loop
      vertex 65.92 87.42 89.71
      vertex 47.6322 87.42 86.5913
      vertex 47.96 87.42 89.71
    endloop
  endfacet
  facet normal 0 1 0
    outer loop
      vertex 65.92 87.42 89.71
      vertex 46.6632 87.42 83.6089
      vertex 47.6322 87.42 86.5913
    endloop
  endfacet
  facet normal 0 1 0
    outer loop
      vertex 65.92 87.42 89.71
      vertex 45.0953 87.42 80.8932
      vertex 46.6632 87.42 83.6089
    endloop
  endfacet
  facet normal 0 1 0
    outer loop
      vertex 65.92 87.42 89.71
      vertex 42.997 87.42 78.5628
      vertex 45.0953 87.42 80.8932
    endloop
  endfacet
  facet normal 0 1 -0
    outer loop
      vertex 65.92 87.42 0
      vertex 42.997 87.42 78.5628
      vertex 65.92 87.42 89.71
    endloop
  endfacet
  facet normal 0 1 0
    outer loop
      vertex 34.5279 87.42 74.7922
      vertex 65.92 87.42 0
      vertex 31.3921 87.42 74.7922
    endloop
  endfacet
  facet normal 0 1 0
    outer loop
      vertex 37.5953 87.42 75.4442
      vertex 65.92 87.42 0
      vertex 34.5279 87.42 74.7922
    endloop
  endfacet
  facet normal 0 1 0
    outer loop
      vertex 40.46 87.42 76.7196
      vertex 65.92 87.42 0
      vertex 37.5953 87.42 75.4442
    endloop
  endfacet
  facet normal 0 1 0
    outer loop
      vertex 42.997 87.42 78.5628
      vertex 65.92 87.42 0
      vertex 40.46 87.42 76.7196
    endloop
  endfacet
  facet normal 0 1 0
    outer loop
      vertex 18.2878 87.42 86.5913
      vertex 0 87.42 89.71
      vertex 17.96 87.42 89.71
    endloop
  endfacet
  facet normal 0 1 0
    outer loop
      vertex 19.2568 87.42 83.6089
      vertex 0 87.42 89.71
      vertex 18.2878 87.42 86.5913
    endloop
  endfacet
  facet normal 0 1 0
    outer loop
      vertex 20.8247 87.42 80.8932
      vertex 0 87.42 89.71
      vertex 19.2568 87.42 83.6089
    endloop
  endfacet
  facet normal 0 1 0
    outer loop
      vertex 22.923 87.42 78.5628
      vertex 0 87.42 89.71
      vertex 20.8247 87.42 80.8932
    endloop
  endfacet
  facet normal 0 1 0
    outer loop
      vertex 0 87.42 0
      vertex 22.923 87.42 78.5628
      vertex 25.46 87.42 76.7196
    endloop
  endfacet
  facet normal 0 1 0
    outer loop
      vertex 0 87.42 0
      vertex 31.3921 87.42 74.7922
      vertex 65.92 87.42 0
    endloop
  endfacet
  facet normal 0 1 0
    outer loop
      vertex 31.3921 87.42 74.7922
      vertex 0 87.42 0
      vertex 28.3247 87.42 75.4442
    endloop
  endfacet
  facet normal 0 1 0
    outer loop
      vertex 28.3247 87.42 75.4442
      vertex 0 87.42 0
      vertex 25.46 87.42 76.7196
    endloop
  endfacet
  facet normal 0 1 0
    outer loop
      vertex 22.923 87.42 78.5628
      vertex 0 87.42 0
      vertex 0 87.42 89.71
    endloop
  endfacet
  facet normal 1 -0 0
    outer loop
      vertex 0.959999 0.959999 89.71
      vertex 0.959999 86.46 0.959999
      vertex 0.959999 86.46 89.71
    endloop
  endfacet
  facet normal 1 0 0
    outer loop
      vertex 0.959999 86.46 0.959999
      vertex 0.959999 0.959999 89.71
      vertex 0.959999 0.959999 0.959999
    endloop
  endfacet
  facet normal -1 0 0
    outer loop
      vertex 64.96 0.959999 0.959999
      vertex 64.96 86.46 89.71
      vertex 64.96 86.46 0.959999
    endloop
  endfacet
  facet normal -1 -0 0
    outer loop
      vertex 64.96 86.46 89.71
      vertex 64.96 0.959999 0.959999
      vertex 64.96 0.959999 89.71
    endloop
  endfacet
  facet normal -0 0 1
    outer loop
      vertex 0.959999 86.46 0.959999
      vertex 64.96 0.959999 0.959999
      vertex 64.96 86.46 0.959999
    endloop
  endfacet
  facet normal 0 0 1
    outer loop
      vertex 64.96 0.959999 0.959999
      vertex 0.959999 86.46 0.959999
      vertex 0.959999 0.959999 0.959999
    endloop
  endfacet
  facet normal 0 1 0
    outer loop
      vertex 64.96 0.959999 89.71
      vertex 47.6322 0.959999 86.5913
      vertex 47.96 0.959999 89.71
    endloop
  endfacet
  facet normal 0 1 0
    outer loop
      vertex 64.96 0.959999 89.71
      vertex 46.6632 0.959999 83.6089
      vertex 47.6322 0.959999 86.5913
    endloop
  endfacet
  facet normal 0 1 0
    outer loop
      vertex 64.96 0.959999 89.71
      vertex 45.0953 0.959999 80.8932
      vertex 46.6632 0.959999 83.6089
    endloop
  endfacet
  facet normal 0 1 0
    outer loop
      vertex 64.96 0.959999 89.71
      vertex 42.997 0.959999 78.5628
      vertex 45.0953 0.959999 80.8932
    endloop
  endfacet
  facet normal 0 1 -0
    outer loop
      vertex 64.96 0.959999 0.959999
      vertex 42.997 0.959999 78.5628
      vertex 64.96 0.959999 89.71
    endloop
  endfacet
  facet normal 0 1 0
    outer loop
      vertex 34.5279 0.959999 74.7922
      vertex 64.96 0.959999 0.959999
      vertex 31.3921 0.959999 74.7922
    endloop
  endfacet
  facet normal 0 1 0
    outer loop
      vertex 37.5953 0.959999 75.4442
      vertex 64.96 0.959999 0.959999
      vertex 34.5279 0.959999 74.7922
    endloop
  endfacet
  facet normal 0 1 0
    outer loop
      vertex 40.46 0.959999 76.7196
      vertex 64.96 0.959999 0.959999
      vertex 37.5953 0.959999 75.4442
    endloop
  endfacet
  facet normal 0 1 0
    outer loop
      vertex 42.997 0.959999 78.5628
      vertex 64.96 0.959999 0.959999
      vertex 40.46 0.959999 76.7196
    endloop
  endfacet
  facet normal 0 1 0
    outer loop
      vertex 18.2878 0.959999 86.5913
      vertex 0.959999 0.959999 89.71
      vertex 17.96 0.959999 89.71
    endloop
  endfacet
  facet normal 0 1 0
    outer loop
      vertex 19.2568 0.959999 83.6089
      vertex 0.959999 0.959999 89.71
      vertex 18.2878 0.959999 86.5913
    endloop
  endfacet
  facet normal 0 1 0
    outer loop
      vertex 20.8247 0.959999 80.8932
      vertex 0.959999 0.959999 89.71
      vertex 19.2568 0.959999 83.6089
    endloop
  endfacet
  facet normal 0 1 0
    outer loop
      vertex 22.923 0.959999 78.5628
      vertex 0.959999 0.959999 89.71
      vertex 20.8247 0.959999 80.8932
    endloop
  endfacet
  facet normal 0 1 0
    outer loop
      vertex 0.959999 0.959999 0.959999
      vertex 22.923 0.959999 78.5628
      vertex 25.46 0.959999 76.7196
    endloop
  endfacet
  facet normal 0 1 0
    outer loop
      vertex 0.959999 0.959999 0.959999
      vertex 31.3921 0.959999 74.7922
      vertex 64.96 0.959999 0.959999
    endloop
  endfacet
  facet normal 0 1 0
    outer loop
      vertex 31.3921 0.959999 74.7922
      vertex 0.959999 0.959999 0.959999
      vertex 28.3247 0.959999 75.4442
    endloop
  endfacet
  facet normal 0 1 0
    outer loop
      vertex 28.3247 0.959999 75.4442
      vertex 0.959999 0.959999 0.959999
      vertex 25.46 0.959999 76.7196
    endloop
  endfacet
  facet normal 0 1 0
    outer loop
      vertex 22.923 0.959999 78.5628
      vertex 0.959999 0.959999 0.959999
      vertex 0.959999 0.959999 89.71
    endloop
  endfacet
  facet normal 0 -1 0
    outer loop
      vertex 0.959999 86.46 89.71
      vertex 18.2878 86.46 86.5913
      vertex 17.96 86.46 89.71
    endloop
  endfacet
  facet normal 0 -1 0
    outer loop
      vertex 0.959999 86.46 89.71
      vertex 19.2568 86.46 83.6089
      vertex 18.2878 86.46 86.5913
    endloop
  endfacet
  facet normal 0 -1 0
    outer loop
      vertex 0.959999 86.46 89.71
      vertex 20.8247 86.46 80.8932
      vertex 19.2568 86.46 83.6089
    endloop
  endfacet
  facet normal 0 -1 0
    outer loop
      vertex 0.959999 86.46 89.71
      vertex 22.923 86.46 78.5628
      vertex 20.8247 86.46 80.8932
    endloop
  endfacet
  facet normal 0 -1 0
    outer loop
      vertex 0.959999 86.46 0.959999
      vertex 22.923 86.46 78.5628
      vertex 0.959999 86.46 89.71
    endloop
  endfacet
  facet normal 0 -1 -0
    outer loop
      vertex 31.3921 86.46 74.7922
      vertex 0.959999 86.46 0.959999
      vertex 34.5279 86.46 74.7922
    endloop
  endfacet
  facet normal 0 -1 -0
    outer loop
      vertex 28.3247 86.46 75.4442
      vertex 0.959999 86.46 0.959999
      vertex 31.3921 86.46 74.7922
    endloop
  endfacet
  facet normal 0 -1 -0
    outer loop
      vertex 25.46 86.46 76.7196
      vertex 0.959999 86.46 0.959999
      vertex 28.3247 86.46 75.4442
    endloop
  endfacet
  facet normal 0 -1 -0
    outer loop
      vertex 22.923 86.46 78.5628
      vertex 0.959999 86.46 0.959999
      vertex 25.46 86.46 76.7196
    endloop
  endfacet
  facet normal 0 -1 0
    outer loop
      vertex 47.6322 86.46 86.5913
      vertex 64.96 86.46 89.71
      vertex 47.96 86.46 89.71
    endloop
  endfacet
  facet normal 0 -1 0
    outer loop
      vertex 46.6632 86.46 83.6089
      vertex 64.96 86.46 89.71
      vertex 47.6322 86.46 86.5913
    endloop
  endfacet
  facet normal 0 -1 0
    outer loop
      vertex 45.0953 86.46 80.8932
      vertex 64.96 86.46 89.71
      vertex 46.6632 86.46 83.6089
    endloop
  endfacet
  facet normal 0 -1 0
    outer loop
      vertex 42.997 86.46 78.5628
      vertex 64.96 86.46 89.71
      vertex 45.0953 86.46 80.8932
    endloop
  endfacet
  facet normal 0 -1 0
    outer loop
      vertex 64.96 86.46 0.959999
      vertex 42.997 86.46 78.5628
      vertex 40.46 86.46 76.7196
    endloop
  endfacet
  facet normal 0 -1 0
    outer loop
      vertex 64.96 86.46 0.959999
      vertex 34.5279 86.46 74.7922
      vertex 0.959999 86.46 0.959999
    endloop
  endfacet
  facet normal 0 -1 0
    outer loop
      vertex 34.5279 86.46 74.7922
      vertex 64.96 86.46 0.959999
      vertex 37.5953 86.46 75.4442
    endloop
  endfacet
  facet normal 0 -1 0
    outer loop
      vertex 37.5953 86.46 75.4442
      vertex 64.96 86.46 0.959999
      vertex 40.46 86.46 76.7196
    endloop
  endfacet
  facet normal 0 -1 0
    outer loop
      vertex 42.997 86.46 78.5628
      vertex 64.96 86.46 0.959999
      vertex 64.96 86.46 89.71
    endloop
  endfacet
  facet normal -0.866025 0 0.5
    outer loop
      vertex 45.0953 0 80.8932
      vertex 46.6632 0.959999 83.6089
      vertex 45.0953 0.959999 80.8932
    endloop
  endfacet
  facet normal -0.866025 0 0.5
    outer loop
      vertex 46.6632 0.959999 83.6089
      vertex 45.0953 0 80.8932
      vertex 46.6632 0 83.6089
    endloop
  endfacet
  facet normal -0.866025 0 0.5
    outer loop
      vertex 45.0953 86.46 80.8932
      vertex 46.6632 87.42 83.6089
      vertex 45.0953 87.42 80.8932
    endloop
  endfacet
  facet normal -0.866025 0 0.5
    outer loop
      vertex 46.6632 87.42 83.6089
      vertex 45.0953 86.46 80.8932
      vertex 46.6632 86.46 83.6089
    endloop
  endfacet
  facet normal 0.207911 0 0.978148
    outer loop
      vertex 28.3247 0.959999 75.4442
      vertex 31.3921 0 74.7922
      vertex 31.3921 0.959999 74.7922
    endloop
  endfacet
  facet normal 0.207911 0 0.978148
    outer loop
      vertex 31.3921 0 74.7922
      vertex 28.3247 0.959999 75.4442
      vertex 28.3247 0 75.4442
    endloop
  endfacet
  facet normal 0.207911 0 0.978148
    outer loop
      vertex 28.3247 87.42 75.4442
      vertex 31.3921 86.46 74.7922
      vertex 31.3921 87.42 74.7922
    endloop
  endfacet
  facet normal 0.207911 0 0.978148
    outer loop
      vertex 31.3921 86.46 74.7922
      vertex 28.3247 87.42 75.4442
      vertex 28.3247 86.46 75.4442
    endloop
  endfacet
  facet normal 0.951057 -0 0.309017
    outer loop
      vertex 18.2878 0 86.5913
      vertex 19.2568 0.959999 83.6089
      vertex 18.2878 0.959999 86.5913
    endloop
  endfacet
  facet normal 0.951057 0 0.309017
    outer loop
      vertex 19.2568 0.959999 83.6089
      vertex 18.2878 0 86.5913
      vertex 19.2568 0 83.6089
    endloop
  endfacet
  facet normal 0.951057 -0 0.309017
    outer loop
      vertex 18.2878 86.46 86.5913
      vertex 19.2568 87.42 83.6089
      vertex 18.2878 87.42 86.5913
    endloop
  endfacet
  facet normal 0.951057 0 0.309017
    outer loop
      vertex 19.2568 87.42 83.6089
      vertex 18.2878 86.46 86.5913
      vertex 19.2568 86.46 83.6089
    endloop
  endfacet
  facet normal -0.207911 0 0.978148
    outer loop
      vertex 34.5279 0.959999 74.7922
      vertex 37.5953 0 75.4442
      vertex 37.5953 0.959999 75.4442
    endloop
  endfacet
  facet normal -0.207911 0 0.978148
    outer loop
      vertex 37.5953 0 75.4442
      vertex 34.5279 0.959999 74.7922
      vertex 34.5279 0 74.7922
    endloop
  endfacet
  facet normal -0.207911 0 0.978148
    outer loop
      vertex 34.5279 87.42 74.7922
      vertex 37.5953 86.46 75.4442
      vertex 37.5953 87.42 75.4442
    endloop
  endfacet
  facet normal -0.207911 0 0.978148
    outer loop
      vertex 37.5953 86.46 75.4442
      vertex 34.5279 87.42 74.7922
      vertex 34.5279 86.46 74.7922
    endloop
  endfacet
  facet normal -0.406737 0 0.913545
    outer loop
      vertex 37.5953 0.959999 75.4442
      vertex 40.46 0 76.7196
      vertex 40.46 0.959999 76.7196
    endloop
  endfacet
  facet normal -0.406737 0 0.913545
    outer loop
      vertex 40.46 0 76.7196
      vertex 37.5953 0.959999 75.4442
      vertex 37.5953 0 75.4442
    endloop
  endfacet
  facet normal -0.406737 0 0.913545
    outer loop
      vertex 37.5953 87.42 75.4442
      vertex 40.46 86.46 76.7196
      vertex 40.46 87.42 76.7196
    endloop
  endfacet
  facet normal -0.406737 0 0.913545
    outer loop
      vertex 40.46 86.46 76.7196
      vertex 37.5953 87.42 75.4442
      vertex 37.5953 86.46 75.4442
    endloop
  endfacet
  facet normal -0.587785 0 0.809017
    outer loop
      vertex 40.46 0.959999 76.7196
      vertex 42.997 0 78.5628
      vertex 42.997 0.959999 78.5628
    endloop
  endfacet
  facet normal -0.587785 0 0.809017
    outer loop
      vertex 42.997 0 78.5628
      vertex 40.46 0.959999 76.7196
      vertex 40.46 0 76.7196
    endloop
  endfacet
  facet normal -0.587785 0 0.809017
    outer loop
      vertex 40.46 87.42 76.7196
      vertex 42.997 86.46 78.5628
      vertex 42.997 87.42 78.5628
    endloop
  endfacet
  facet normal -0.587785 0 0.809017
    outer loop
      vertex 42.997 86.46 78.5628
      vertex 40.46 87.42 76.7196
      vertex 40.46 86.46 76.7196
    endloop
  endfacet
  facet normal -0.951057 0 0.309017
    outer loop
      vertex 46.6632 0 83.6089
      vertex 47.6322 0.959999 86.5913
      vertex 46.6632 0.959999 83.6089
    endloop
  endfacet
  facet normal -0.951057 0 0.309017
    outer loop
      vertex 47.6322 0.959999 86.5913
      vertex 46.6632 0 83.6089
      vertex 47.6322 0 86.5913
    endloop
  endfacet
  facet normal -0.951057 0 0.309017
    outer loop
      vertex 46.6632 86.46 83.6089
      vertex 47.6322 87.42 86.5913
      vertex 46.6632 87.42 83.6089
    endloop
  endfacet
  facet normal -0.951057 0 0.309017
    outer loop
      vertex 47.6322 87.42 86.5913
      vertex 46.6632 86.46 83.6089
      vertex 47.6322 86.46 86.5913
    endloop
  endfacet
  facet normal -0.994522 0 0.104528
    outer loop
      vertex 47.6322 0 86.5913
      vertex 47.96 0.959999 89.71
      vertex 47.6322 0.959999 86.5913
    endloop
  endfacet
  facet normal -0.994522 0 0.104528
    outer loop
      vertex 47.96 0.959999 89.71
      vertex 47.6322 0 86.5913
      vertex 47.96 0 89.71
    endloop
  endfacet
  facet normal -0.994522 0 0.104528
    outer loop
      vertex 47.6322 86.46 86.5913
      vertex 47.96 87.42 89.71
      vertex 47.6322 87.42 86.5913
    endloop
  endfacet
  facet normal -0.994522 0 0.104528
    outer loop
      vertex 47.96 87.42 89.71
      vertex 47.6322 86.46 86.5913
      vertex 47.96 86.46 89.71
    endloop
  endfacet
  facet normal 0.743145 -0 0.669131
    outer loop
      vertex 20.8247 0 80.8932
      vertex 22.923 0.959999 78.5628
      vertex 20.8247 0.959999 80.8932
    endloop
  endfacet
  facet normal 0.743145 0 0.669131
    outer loop
      vertex 22.923 0.959999 78.5628
      vertex 20.8247 0 80.8932
      vertex 22.923 0 78.5628
    endloop
  endfacet
  facet normal 0.743145 -0 0.669131
    outer loop
      vertex 20.8247 86.46 80.8932
      vertex 22.923 87.42 78.5628
      vertex 20.8247 87.42 80.8932
    endloop
  endfacet
  facet normal 0.743145 0 0.669131
    outer loop
      vertex 22.923 87.42 78.5628
      vertex 20.8247 86.46 80.8932
      vertex 22.923 86.46 78.5628
    endloop
  endfacet
  facet normal 0.866025 -0 0.5
    outer loop
      vertex 19.2568 0 83.6089
      vertex 20.8247 0.959999 80.8932
      vertex 19.2568 0.959999 83.6089
    endloop
  endfacet
  facet normal 0.866025 0 0.5
    outer loop
      vertex 20.8247 0.959999 80.8932
      vertex 19.2568 0 83.6089
      vertex 20.8247 0 80.8932
    endloop
  endfacet
  facet normal 0.866025 -0 0.5
    outer loop
      vertex 19.2568 86.46 83.6089
      vertex 20.8247 87.42 80.8932
      vertex 19.2568 87.42 83.6089
    endloop
  endfacet
  facet normal 0.866025 0 0.5
    outer loop
      vertex 20.8247 87.42 80.8932
      vertex 19.2568 86.46 83.6089
      vertex 20.8247 86.46 80.8932
    endloop
  endfacet
  facet normal 0.994522 -0 0.104528
    outer loop
      vertex 17.96 0 89.71
      vertex 18.2878 0.959999 86.5913
      vertex 17.96 0.959999 89.71
    endloop
  endfacet
  facet normal 0.994522 0 0.104528
    outer loop
      vertex 18.2878 0.959999 86.5913
      vertex 17.96 0 89.71
      vertex 18.2878 0 86.5913
    endloop
  endfacet
  facet normal 0.994522 -0 0.104528
    outer loop
      vertex 17.96 86.46 89.71
      vertex 18.2878 87.42 86.5913
      vertex 17.96 87.42 89.71
    endloop
  endfacet
  facet normal 0.994522 0 0.104528
    outer loop
      vertex 18.2878 87.42 86.5913
      vertex 17.96 86.46 89.71
      vertex 18.2878 86.46 86.5913
    endloop
  endfacet
  facet normal -0 0 1
    outer loop
      vertex 31.3921 0.959999 74.7922
      vertex 34.5279 0 74.7922
      vertex 34.5279 0.959999 74.7922
    endloop
  endfacet
  facet normal 0 0 1
    outer loop
      vertex 34.5279 0 74.7922
      vertex 31.3921 0.959999 74.7922
      vertex 31.3921 0 74.7922
    endloop
  endfacet
  facet normal -0 0 1
    outer loop
      vertex 31.3921 87.42 74.7922
      vertex 34.5279 86.46 74.7922
      vertex 34.5279 87.42 74.7922
    endloop
  endfacet
  facet normal 0 0 1
    outer loop
      vertex 34.5279 86.46 74.7922
      vertex 31.3921 87.42 74.7922
      vertex 31.3921 86.46 74.7922
    endloop
  endfacet
  facet normal -0.743145 0 0.669131
    outer loop
      vertex 42.997 0 78.5628
      vertex 45.0953 0.959999 80.8932
      vertex 42.997 0.959999 78.5628
    endloop
  endfacet
  facet normal -0.743145 0 0.669131
    outer loop
      vertex 45.0953 0.959999 80.8932
      vertex 42.997 0 78.5628
      vertex 45.0953 0 80.8932
    endloop
  endfacet
  facet normal -0.743145 0 0.669131
    outer loop
      vertex 42.997 86.46 78.5628
      vertex 45.0953 87.42 80.8932
      vertex 42.997 87.42 78.5628
    endloop
  endfacet
  facet normal -0.743145 0 0.669131
    outer loop
      vertex 45.0953 87.42 80.8932
      vertex 42.997 86.46 78.5628
      vertex 45.0953 86.46 80.8932
    endloop
  endfacet
  facet normal 0.587785 0 0.809017
    outer loop
      vertex 22.923 0.959999 78.5628
      vertex 25.46 0 76.7196
      vertex 25.46 0.959999 76.7196
    endloop
  endfacet
  facet normal 0.587785 0 0.809017
    outer loop
      vertex 25.46 0 76.7196
      vertex 22.923 0.959999 78.5628
      vertex 22.923 0 78.5628
    endloop
  endfacet
  facet normal 0.587785 0 0.809017
    outer loop
      vertex 22.923 87.42 78.5628
      vertex 25.46 86.46 76.7196
      vertex 25.46 87.42 76.7196
    endloop
  endfacet
  facet normal 0.587785 0 0.809017
    outer loop
      vertex 25.46 86.46 76.7196
      vertex 22.923 87.42 78.5628
      vertex 22.923 86.46 78.5628
    endloop
  endfacet
  facet normal 0.406737 0 0.913545
    outer loop
      vertex 25.46 0.959999 76.7196
      vertex 28.3247 0 75.4442
      vertex 28.3247 0.959999 75.4442
    endloop
  endfacet
  facet normal 0.406737 0 0.913545
    outer loop
      vertex 28.3247 0 75.4442
      vertex 25.46 0.959999 76.7196
      vertex 25.46 0 76.7196
    endloop
  endfacet
  facet normal 0.406737 0 0.913545
    outer loop
      vertex 25.46 87.42 76.7196
      vertex 28.3247 86.46 75.4442
      vertex 28.3247 87.42 75.4442
    endloop
  endfacet
  facet normal 0.406737 0 0.913545
    outer loop
      vertex 28.3247 86.46 75.4442
      vertex 25.46 87.42 76.7196
      vertex 25.46 86.46 76.7196
    endloop
  endfacet
endsolid OpenSCAD_Model
