solid OpenSCAD_Model
  facet normal -1 0 0
    outer loop
      vertex 0 53.9868 79.0347
      vertex 0 90.34 91.17
      vertex 0 90.34 0
    endloop
  endfacet
  facet normal -1 0 0
    outer loop
      vertex 0 90.34 91.17
      vertex 0 59.4358 86.5347
      vertex 0 60.0878 89.6021
    endloop
  endfacet
  facet normal -1 0 0
    outer loop
      vertex 0 90.34 91.17
      vertex 0 58.1604 83.67
      vertex 0 59.4358 86.5347
    endloop
  endfacet
  facet normal -1 0 0
    outer loop
      vertex 0 90.34 91.17
      vertex 0 56.3172 81.133
      vertex 0 58.1604 83.67
    endloop
  endfacet
  facet normal -1 0 0
    outer loop
      vertex 0 90.34 91.17
      vertex 0 53.9868 79.0347
      vertex 0 56.3172 81.133
    endloop
  endfacet
  facet normal -1 0 0
    outer loop
      vertex 0 90.34 0
      vertex 0 51.271 77.4668
      vertex 0 53.9868 79.0347
    endloop
  endfacet
  facet normal -1 0 0
    outer loop
      vertex 0 90.34 0
      vertex 0 48.2887 76.4978
      vertex 0 51.271 77.4668
    endloop
  endfacet
  facet normal -1 0 0
    outer loop
      vertex 0 90.34 0
      vertex 0 45.17 76.17
      vertex 0 48.2887 76.4978
    endloop
  endfacet
  facet normal -1 0 0
    outer loop
      vertex 0 0 0
      vertex 0 45.17 76.17
      vertex 0 90.34 0
    endloop
  endfacet
  facet normal -1 -0 0
    outer loop
      vertex 0 45.17 76.17
      vertex 0 0 0
      vertex 0 42.0513 76.4978
    endloop
  endfacet
  facet normal -1 -0 0
    outer loop
      vertex 0 42.0513 76.4978
      vertex 0 0 0
      vertex 0 39.069 77.4668
    endloop
  endfacet
  facet normal -1 -0 0
    outer loop
      vertex 0 39.069 77.4668
      vertex 0 0 0
      vertex 0 36.3532 79.0347
    endloop
  endfacet
  facet normal -1 0 0
    outer loop
      vertex 0 0 91.17
      vertex 0 36.3532 79.0347
      vertex 0 0 0
    endloop
  endfacet
  facet normal -1 0 0
    outer loop
      vertex 0 36.3532 79.0347
      vertex 0 0 91.17
      vertex 0 34.0228 81.133
    endloop
  endfacet
  facet normal -1 0 0
    outer loop
      vertex 0 34.0228 81.133
      vertex 0 0 91.17
      vertex 0 32.1796 83.67
    endloop
  endfacet
  facet normal -1 0 0
    outer loop
      vertex 0 32.1796 83.67
      vertex 0 0 91.17
      vertex 0 30.9042 86.5347
    endloop
  endfacet
  facet normal -1 0 0
    outer loop
      vertex 0 30.9042 86.5347
      vertex 0 0 91.17
      vertex 0 30.2522 89.6021
    endloop
  endfacet
  facet normal -1 0 0
    outer loop
      vertex 0 30.2522 89.6021
      vertex 0 0 91.17
      vertex 0 30.2522 91.17
    endloop
  endfacet
  facet normal -1 -0 0
    outer loop
      vertex 0 90.34 91.17
      vertex 0 60.0878 89.6021
      vertex 0 60.0878 91.17
    endloop
  endfacet
  facet normal 0 0 1
    outer loop
      vertex 0.959999 30.2522 91.17
      vertex 0 30.2522 91.17
      vertex 0.959999 0.959999 91.17
    endloop
  endfacet
  facet normal 0 0 1
    outer loop
      vertex 67.88 0.959999 91.17
      vertex 68.84 30.2522 91.17
      vertex 67.88 30.2522 91.17
    endloop
  endfacet
  facet normal 0 0 1
    outer loop
      vertex 68.84 30.2522 91.17
      vertex 67.88 0.959999 91.17
      vertex 68.84 0 91.17
    endloop
  endfacet
  facet normal -0 0 1
    outer loop
      vertex 0.959999 0.959999 91.17
      vertex 68.84 0 91.17
      vertex 67.88 0.959999 91.17
    endloop
  endfacet
  facet normal 0 0 1
    outer loop
      vertex 0.959999 0.959999 91.17
      vertex 0 0 91.17
      vertex 68.84 0 91.17
    endloop
  endfacet
  facet normal 0 0 1
    outer loop
      vertex 0 0 91.17
      vertex 0.959999 0.959999 91.17
      vertex 0 30.2522 91.17
    endloop
  endfacet
  facet normal 0 0 1
    outer loop
      vertex 68.84 90.34 91.17
      vertex 67.88 89.38 91.17
      vertex 68.84 60.0878 91.17
    endloop
  endfacet
  facet normal 0 0 1
    outer loop
      vertex 68.84 90.34 91.17
      vertex 0.959999 89.38 91.17
      vertex 67.88 89.38 91.17
    endloop
  endfacet
  facet normal -0 0 1
    outer loop
      vertex 0 90.34 91.17
      vertex 0.959999 89.38 91.17
      vertex 68.84 90.34 91.17
    endloop
  endfacet
  facet normal 0 0 1
    outer loop
      vertex 0 60.0878 91.17
      vertex 0.959999 89.38 91.17
      vertex 0 90.34 91.17
    endloop
  endfacet
  facet normal 0 0 1
    outer loop
      vertex 0.959999 89.38 91.17
      vertex 0 60.0878 91.17
      vertex 0.959999 60.0878 91.17
    endloop
  endfacet
  facet normal 0 0 1
    outer loop
      vertex 68.84 60.0878 91.17
      vertex 67.88 89.38 91.17
      vertex 67.88 60.0878 91.17
    endloop
  endfacet
  facet normal 1 0 0
    outer loop
      vertex 68.84 30.2522 91.17
      vertex 68.84 0 91.17
      vertex 68.84 30.2522 89.6021
    endloop
  endfacet
  facet normal 1 0 0
    outer loop
      vertex 68.84 60.0878 89.6021
      vertex 68.84 90.34 91.17
      vertex 68.84 60.0878 91.17
    endloop
  endfacet
  facet normal 1 0 0
    outer loop
      vertex 68.84 59.4358 86.5347
      vertex 68.84 90.34 91.17
      vertex 68.84 60.0878 89.6021
    endloop
  endfacet
  facet normal 1 0 0
    outer loop
      vertex 68.84 58.1604 83.67
      vertex 68.84 90.34 91.17
      vertex 68.84 59.4358 86.5347
    endloop
  endfacet
  facet normal 1 0 0
    outer loop
      vertex 68.84 56.3172 81.133
      vertex 68.84 90.34 91.17
      vertex 68.84 58.1604 83.67
    endloop
  endfacet
  facet normal 1 0 0
    outer loop
      vertex 68.84 53.9868 79.0347
      vertex 68.84 90.34 91.17
      vertex 68.84 56.3172 81.133
    endloop
  endfacet
  facet normal 1 0 0
    outer loop
      vertex 68.84 90.34 91.17
      vertex 68.84 53.9868 79.0347
      vertex 68.84 90.34 0
    endloop
  endfacet
  facet normal 1 -0 0
    outer loop
      vertex 68.84 51.271 77.4668
      vertex 68.84 90.34 0
      vertex 68.84 53.9868 79.0347
    endloop
  endfacet
  facet normal 1 -0 0
    outer loop
      vertex 68.84 48.2887 76.4978
      vertex 68.84 90.34 0
      vertex 68.84 51.271 77.4668
    endloop
  endfacet
  facet normal 1 -0 0
    outer loop
      vertex 68.84 45.17 76.17
      vertex 68.84 90.34 0
      vertex 68.84 48.2887 76.4978
    endloop
  endfacet
  facet normal 1 0 0
    outer loop
      vertex 68.84 0 0
      vertex 68.84 45.17 76.17
      vertex 68.84 42.0513 76.4978
    endloop
  endfacet
  facet normal 1 0 0
    outer loop
      vertex 68.84 0 0
      vertex 68.84 42.0513 76.4978
      vertex 68.84 39.069 77.4668
    endloop
  endfacet
  facet normal 1 0 0
    outer loop
      vertex 68.84 0 0
      vertex 68.84 39.069 77.4668
      vertex 68.84 36.3532 79.0347
    endloop
  endfacet
  facet normal 1 0 0
    outer loop
      vertex 68.84 0 91.17
      vertex 68.84 36.3532 79.0347
      vertex 68.84 34.0228 81.133
    endloop
  endfacet
  facet normal 1 0 0
    outer loop
      vertex 68.84 0 91.17
      vertex 68.84 34.0228 81.133
      vertex 68.84 32.1796 83.67
    endloop
  endfacet
  facet normal 1 0 0
    outer loop
      vertex 68.84 0 91.17
      vertex 68.84 30.9042 86.5347
      vertex 68.84 30.2522 89.6021
    endloop
  endfacet
  facet normal 1 0 0
    outer loop
      vertex 68.84 0 91.17
      vertex 68.84 32.1796 83.67
      vertex 68.84 30.9042 86.5347
    endloop
  endfacet
  facet normal 1 0 0
    outer loop
      vertex 68.84 36.3532 79.0347
      vertex 68.84 0 91.17
      vertex 68.84 0 0
    endloop
  endfacet
  facet normal 1 0 0
    outer loop
      vertex 68.84 45.17 76.17
      vertex 68.84 0 0
      vertex 68.84 90.34 0
    endloop
  endfacet
  facet normal 0 0 -1
    outer loop
      vertex 0 0 0
      vertex 68.84 90.34 0
      vertex 68.84 0 0
    endloop
  endfacet
  facet normal -0 0 -1
    outer loop
      vertex 68.84 90.34 0
      vertex 0 0 0
      vertex 0 90.34 0
    endloop
  endfacet
  facet normal 0 -1 0
    outer loop
      vertex 23.8618 0 27.0326
      vertex 27.2349 0 36.1058
      vertex 23.8618 0 32.433
    endloop
  endfacet
  facet normal 0 -1 0
    outer loop
      vertex 0 0 91.17
      vertex 45.1164 0 47.2315
      vertex 68.84 0 91.17
    endloop
  endfacet
  facet normal 0 -1 0
    outer loop
      vertex 25.6782 0 39.5826
      vertex 45.1164 0 47.2315
      vertex 0 0 91.17
    endloop
  endfacet
  facet normal 0 -1 0
    outer loop
      vertex 45.1164 0 47.2315
      vertex 25.6782 0 39.5826
      vertex 43.1053 0 45.1454
    endloop
  endfacet
  facet normal 0 -1 0
    outer loop
      vertex 49.8727 0 39.5826
      vertex 41.1849 0 43.0594
      vertex 25.6782 0 39.5826
    endloop
  endfacet
  facet normal 0 -1 0
    outer loop
      vertex 43.1053 0 45.1454
      vertex 25.6782 0 39.5826
      vertex 41.1849 0 43.0594
    endloop
  endfacet
  facet normal 0 -1 0
    outer loop
      vertex 0 0 91.17
      vertex 19.6293 0 33.0802
      vertex 25.6782 0 39.5826
    endloop
  endfacet
  facet normal 0 -1 0
    outer loop
      vertex 0 0 0
      vertex 19.6293 0 33.0802
      vertex 0 0 91.17
    endloop
  endfacet
  facet normal 0 -1 0
    outer loop
      vertex 37.9528 0 23.2418
      vertex 23.8618 0 27.0326
      vertex 18.3568 0 23.2418
    endloop
  endfacet
  facet normal 0 -1 -0
    outer loop
      vertex 19.8184 0 27.2407
      vertex 18.3568 0 23.2418
      vertex 23.8618 0 27.0326
    endloop
  endfacet
  facet normal -0 -1 0
    outer loop
      vertex 16.9042 0 21.7729
      vertex 19.6293 0 33.0802
      vertex 15.4527 0 20.1019
    endloop
  endfacet
  facet normal 0 -1 0
    outer loop
      vertex 19.8184 0 27.2407
      vertex 16.9042 0 21.7729
      vertex 18.3568 0 23.2418
    endloop
  endfacet
  facet normal 0 -1 -0
    outer loop
      vertex 19.6293 0 33.0802
      vertex 16.9042 0 21.7729
      vertex 19.8184 0 27.2407
    endloop
  endfacet
  facet normal 0 -1 0
    outer loop
      vertex 23.6772 0 16.6359
      vertex 27.3233 0 19.8228
      vertex 19.6573 0 16.6359
    endloop
  endfacet
  facet normal 0 -1 0
    outer loop
      vertex 15.4527 0 20.1019
      vertex 19.6573 0 16.6359
      vertex 27.3233 0 19.8228
    endloop
  endfacet
  facet normal 0 -1 0
    outer loop
      vertex 15.4527 0 20.1019
      vertex 19.6573 0 14.7243
      vertex 19.6573 0 16.6359
    endloop
  endfacet
  facet normal 0 -1 0
    outer loop
      vertex 15.4527 0 20.1019
      vertex 19.7311 0 13.3733
      vertex 19.6573 0 14.7243
    endloop
  endfacet
  facet normal 0 -1 0
    outer loop
      vertex 0 0 0
      vertex 19.7311 0 13.3733
      vertex 15.4527 0 20.1019
    endloop
  endfacet
  facet normal 0 -1 -0
    outer loop
      vertex 19.7311 0 13.3733
      vertex 0 0 0
      vertex 19.9102 0 12.8115
    endloop
  endfacet
  facet normal 0 -1 0
    outer loop
      vertex 19.6293 0 33.0802
      vertex 0 0 0
      vertex 15.4527 0 20.1019
    endloop
  endfacet
  facet normal 0 -1 0
    outer loop
      vertex 49.8727 0 39.5826
      vertex 45.1164 0 47.2315
      vertex 45.207 0 45.1454
    endloop
  endfacet
  facet normal 0 -1 0
    outer loop
      vertex 49.8727 0 39.5826
      vertex 45.207 0 45.1454
      vertex 45.207 0 43.0594
    endloop
  endfacet
  facet normal 0 -1 0
    outer loop
      vertex 41.1849 0 43.0594
      vertex 49.8727 0 39.5826
      vertex 45.207 0 43.0594
    endloop
  endfacet
  facet normal 0 -1 0
    outer loop
      vertex 45.1164 0 47.2315
      vertex 49.8727 0 39.5826
      vertex 68.84 0 91.17
    endloop
  endfacet
  facet normal 0 -1 0
    outer loop
      vertex 27.2349 0 36.1058
      vertex 41.3259 0 32.2814
      vertex 46.6876 0 36.1058
    endloop
  endfacet
  facet normal 0 -1 0
    outer loop
      vertex 45.207 0 32.2814
      vertex 46.6876 0 36.1058
      vertex 41.3259 0 32.2814
    endloop
  endfacet
  facet normal 0 -1 0
    outer loop
      vertex 45.207 0 32.2814
      vertex 49.8727 0 39.5826
      vertex 46.6876 0 36.1058
    endloop
  endfacet
  facet normal 0 -1 0
    outer loop
      vertex 45.207 0 26.1832
      vertex 49.8727 0 39.5826
      vertex 45.207 0 32.2814
    endloop
  endfacet
  facet normal 0 -1 0
    outer loop
      vertex 68.84 0 0
      vertex 49.8727 0 39.5826
      vertex 45.207 0 26.1832
    endloop
  endfacet
  facet normal 0 -1 -0
    outer loop
      vertex 27.3233 0 19.8228
      vertex 23.6772 0 16.6359
      vertex 39.1939 0 19.7458
    endloop
  endfacet
  facet normal 0 -1 0
    outer loop
      vertex 21.9213 0 14.7243
      vertex 39.1939 0 19.7458
      vertex 23.6772 0 16.6359
    endloop
  endfacet
  facet normal 0 -1 0
    outer loop
      vertex 19.9102 0 12.8115
      vertex 39.1939 0 19.7458
      vertex 21.9213 0 14.7243
    endloop
  endfacet
  facet normal 0 -1 0
    outer loop
      vertex 68.84 0 0
      vertex 19.9102 0 12.8115
      vertex 0 0 0
    endloop
  endfacet
  facet normal 0 -1 0
    outer loop
      vertex 49.8727 0 39.5826
      vertex 68.84 0 0
      vertex 68.84 0 91.17
    endloop
  endfacet
  facet normal 0 -1 0
    outer loop
      vertex 39.1939 0 19.7458
      vertex 68.84 0 0
      vertex 45.207 0 26.1832
    endloop
  endfacet
  facet normal 0 -1 0
    outer loop
      vertex 19.9102 0 12.8115
      vertex 68.84 0 0
      vertex 39.1939 0 19.7458
    endloop
  endfacet
  facet normal 0 -1 0
    outer loop
      vertex 37.9528 0 23.2418
      vertex 27.2349 0 36.1058
      vertex 23.8618 0 27.0326
    endloop
  endfacet
  facet normal 0 -1 0
    outer loop
      vertex 27.2349 0 36.1058
      vertex 41.3259 0 26.9147
      vertex 41.3259 0 32.2814
    endloop
  endfacet
  facet normal 0 -1 0
    outer loop
      vertex 27.2349 0 36.1058
      vertex 37.9528 0 23.2418
      vertex 41.3259 0 26.9147
    endloop
  endfacet
  facet normal 0 1 -0
    outer loop
      vertex 68.84 90.34 0
      vertex 0 90.34 91.17
      vertex 68.84 90.34 91.17
    endloop
  endfacet
  facet normal 0 1 0
    outer loop
      vertex 0 90.34 91.17
      vertex 68.84 90.34 0
      vertex 0 90.34 0
    endloop
  endfacet
  facet normal 1 0 0
    outer loop
      vertex 0.959999 30.2522 91.17
      vertex 0.959999 0.959999 91.17
      vertex 0.959999 30.2522 89.6021
    endloop
  endfacet
  facet normal 1 0 0
    outer loop
      vertex 0.959999 60.0878 89.6021
      vertex 0.959999 89.38 91.17
      vertex 0.959999 60.0878 91.17
    endloop
  endfacet
  facet normal 1 0 0
    outer loop
      vertex 0.959999 59.4358 86.5347
      vertex 0.959999 89.38 91.17
      vertex 0.959999 60.0878 89.6021
    endloop
  endfacet
  facet normal 1 0 0
    outer loop
      vertex 0.959999 58.1604 83.67
      vertex 0.959999 89.38 91.17
      vertex 0.959999 59.4358 86.5347
    endloop
  endfacet
  facet normal 1 0 0
    outer loop
      vertex 0.959999 56.3172 81.133
      vertex 0.959999 89.38 91.17
      vertex 0.959999 58.1604 83.67
    endloop
  endfacet
  facet normal 1 0 0
    outer loop
      vertex 0.959999 53.9868 79.0347
      vertex 0.959999 89.38 91.17
      vertex 0.959999 56.3172 81.133
    endloop
  endfacet
  facet normal 1 0 0
    outer loop
      vertex 0.959999 89.38 91.17
      vertex 0.959999 53.9868 79.0347
      vertex 0.959999 89.38 0.959999
    endloop
  endfacet
  facet normal 1 -0 0
    outer loop
      vertex 0.959999 51.271 77.4668
      vertex 0.959999 89.38 0.959999
      vertex 0.959999 53.9868 79.0347
    endloop
  endfacet
  facet normal 1 -0 0
    outer loop
      vertex 0.959999 48.2887 76.4978
      vertex 0.959999 89.38 0.959999
      vertex 0.959999 51.271 77.4668
    endloop
  endfacet
  facet normal 1 -0 0
    outer loop
      vertex 0.959999 45.17 76.17
      vertex 0.959999 89.38 0.959999
      vertex 0.959999 48.2887 76.4978
    endloop
  endfacet
  facet normal 1 0 0
    outer loop
      vertex 0.959999 0.959999 0.959999
      vertex 0.959999 45.17 76.17
      vertex 0.959999 42.0513 76.4978
    endloop
  endfacet
  facet normal 1 0 0
    outer loop
      vertex 0.959999 0.959999 0.959999
      vertex 0.959999 42.0513 76.4978
      vertex 0.959999 39.069 77.4668
    endloop
  endfacet
  facet normal 1 0 0
    outer loop
      vertex 0.959999 0.959999 0.959999
      vertex 0.959999 39.069 77.4668
      vertex 0.959999 36.3532 79.0347
    endloop
  endfacet
  facet normal 1 0 0
    outer loop
      vertex 0.959999 0.959999 91.17
      vertex 0.959999 36.3532 79.0347
      vertex 0.959999 34.0228 81.133
    endloop
  endfacet
  facet normal 1 0 0
    outer loop
      vertex 0.959999 0.959999 91.17
      vertex 0.959999 34.0228 81.133
      vertex 0.959999 32.1796 83.67
    endloop
  endfacet
  facet normal 1 0 0
    outer loop
      vertex 0.959999 0.959999 91.17
      vertex 0.959999 30.9042 86.5347
      vertex 0.959999 30.2522 89.6021
    endloop
  endfacet
  facet normal 1 0 0
    outer loop
      vertex 0.959999 0.959999 91.17
      vertex 0.959999 32.1796 83.67
      vertex 0.959999 30.9042 86.5347
    endloop
  endfacet
  facet normal 1 0 0
    outer loop
      vertex 0.959999 36.3532 79.0347
      vertex 0.959999 0.959999 91.17
      vertex 0.959999 0.959999 0.959999
    endloop
  endfacet
  facet normal 1 0 0
    outer loop
      vertex 0.959999 45.17 76.17
      vertex 0.959999 0.959999 0.959999
      vertex 0.959999 89.38 0.959999
    endloop
  endfacet
  facet normal -1 0 0
    outer loop
      vertex 67.88 53.9868 79.0347
      vertex 67.88 89.38 91.17
      vertex 67.88 89.38 0.959999
    endloop
  endfacet
  facet normal -1 0 0
    outer loop
      vertex 67.88 89.38 91.17
      vertex 67.88 59.4358 86.5347
      vertex 67.88 60.0878 89.6021
    endloop
  endfacet
  facet normal -1 0 0
    outer loop
      vertex 67.88 89.38 91.17
      vertex 67.88 58.1604 83.67
      vertex 67.88 59.4358 86.5347
    endloop
  endfacet
  facet normal -1 0 0
    outer loop
      vertex 67.88 89.38 91.17
      vertex 67.88 56.3172 81.133
      vertex 67.88 58.1604 83.67
    endloop
  endfacet
  facet normal -1 0 0
    outer loop
      vertex 67.88 89.38 91.17
      vertex 67.88 53.9868 79.0347
      vertex 67.88 56.3172 81.133
    endloop
  endfacet
  facet normal -1 0 0
    outer loop
      vertex 67.88 89.38 0.959999
      vertex 67.88 51.271 77.4668
      vertex 67.88 53.9868 79.0347
    endloop
  endfacet
  facet normal -1 0 0
    outer loop
      vertex 67.88 89.38 0.959999
      vertex 67.88 48.2887 76.4978
      vertex 67.88 51.271 77.4668
    endloop
  endfacet
  facet normal -1 0 0
    outer loop
      vertex 67.88 89.38 0.959999
      vertex 67.88 45.17 76.17
      vertex 67.88 48.2887 76.4978
    endloop
  endfacet
  facet normal -1 0 0
    outer loop
      vertex 67.88 0.959999 0.959999
      vertex 67.88 45.17 76.17
      vertex 67.88 89.38 0.959999
    endloop
  endfacet
  facet normal -1 -0 0
    outer loop
      vertex 67.88 45.17 76.17
      vertex 67.88 0.959999 0.959999
      vertex 67.88 42.0513 76.4978
    endloop
  endfacet
  facet normal -1 -0 0
    outer loop
      vertex 67.88 42.0513 76.4978
      vertex 67.88 0.959999 0.959999
      vertex 67.88 39.069 77.4668
    endloop
  endfacet
  facet normal -1 -0 0
    outer loop
      vertex 67.88 39.069 77.4668
      vertex 67.88 0.959999 0.959999
      vertex 67.88 36.3532 79.0347
    endloop
  endfacet
  facet normal -1 0 0
    outer loop
      vertex 67.88 0.959999 91.17
      vertex 67.88 36.3532 79.0347
      vertex 67.88 0.959999 0.959999
    endloop
  endfacet
  facet normal -1 0 0
    outer loop
      vertex 67.88 36.3532 79.0347
      vertex 67.88 0.959999 91.17
      vertex 67.88 34.0228 81.133
    endloop
  endfacet
  facet normal -1 0 0
    outer loop
      vertex 67.88 34.0228 81.133
      vertex 67.88 0.959999 91.17
      vertex 67.88 32.1796 83.67
    endloop
  endfacet
  facet normal -1 0 0
    outer loop
      vertex 67.88 32.1796 83.67
      vertex 67.88 0.959999 91.17
      vertex 67.88 30.9042 86.5347
    endloop
  endfacet
  facet normal -1 0 0
    outer loop
      vertex 67.88 30.9042 86.5347
      vertex 67.88 0.959999 91.17
      vertex 67.88 30.2522 89.6021
    endloop
  endfacet
  facet normal -1 0 0
    outer loop
      vertex 67.88 30.2522 89.6021
      vertex 67.88 0.959999 91.17
      vertex 67.88 30.2522 91.17
    endloop
  endfacet
  facet normal -1 -0 0
    outer loop
      vertex 67.88 89.38 91.17
      vertex 67.88 60.0878 89.6021
      vertex 67.88 60.0878 91.17
    endloop
  endfacet
  facet normal -0 0 1
    outer loop
      vertex 0.959999 89.38 0.959999
      vertex 67.88 0.959999 0.959999
      vertex 67.88 89.38 0.959999
    endloop
  endfacet
  facet normal 0 0 1
    outer loop
      vertex 67.88 0.959999 0.959999
      vertex 0.959999 89.38 0.959999
      vertex 0.959999 0.959999 0.959999
    endloop
  endfacet
  facet normal 0 1 -0
    outer loop
      vertex 67.88 0.959999 0.959999
      vertex 0.959999 0.959999 91.17
      vertex 67.88 0.959999 91.17
    endloop
  endfacet
  facet normal 0 1 0
    outer loop
      vertex 0.959999 0.959999 91.17
      vertex 67.88 0.959999 0.959999
      vertex 0.959999 0.959999 0.959999
    endloop
  endfacet
  facet normal 0 -1 0
    outer loop
      vertex 0.959999 89.38 0.959999
      vertex 67.88 89.38 91.17
      vertex 0.959999 89.38 91.17
    endloop
  endfacet
  facet normal 0 -1 -0
    outer loop
      vertex 67.88 89.38 91.17
      vertex 0.959999 89.38 0.959999
      vertex 67.88 89.38 0.959999
    endloop
  endfacet
  facet normal -0 0.499999 0.866026
    outer loop
      vertex 0 39.069 77.4668
      vertex 0.959999 36.3532 79.0347
      vertex 0.959999 39.069 77.4668
    endloop
  endfacet
  facet normal 0 0.499999 0.866026
    outer loop
      vertex 0.959999 36.3532 79.0347
      vertex 0 39.069 77.4668
      vertex 0 36.3532 79.0347
    endloop
  endfacet
  facet normal -0 0.499999 0.866026
    outer loop
      vertex 67.88 39.069 77.4668
      vertex 68.84 36.3532 79.0347
      vertex 68.84 39.069 77.4668
    endloop
  endfacet
  facet normal 0 0.499999 0.866026
    outer loop
      vertex 68.84 36.3532 79.0347
      vertex 67.88 39.069 77.4668
      vertex 67.88 36.3532 79.0347
    endloop
  endfacet
  facet normal -0 0.10453 0.994522
    outer loop
      vertex 0 45.17 76.17
      vertex 0.959999 42.0513 76.4978
      vertex 0.959999 45.17 76.17
    endloop
  endfacet
  facet normal 0 0.10453 0.994522
    outer loop
      vertex 0.959999 42.0513 76.4978
      vertex 0 45.17 76.17
      vertex 0 42.0513 76.4978
    endloop
  endfacet
  facet normal -0 0.10453 0.994522
    outer loop
      vertex 67.88 45.17 76.17
      vertex 68.84 42.0513 76.4978
      vertex 68.84 45.17 76.17
    endloop
  endfacet
  facet normal 0 0.10453 0.994522
    outer loop
      vertex 68.84 42.0513 76.4978
      vertex 67.88 45.17 76.17
      vertex 67.88 42.0513 76.4978
    endloop
  endfacet
  facet normal 0 -0.499999 0.866026
    outer loop
      vertex 0 53.9868 79.0347
      vertex 0.959999 51.271 77.4668
      vertex 0.959999 53.9868 79.0347
    endloop
  endfacet
  facet normal 0 -0.499999 0.866026
    outer loop
      vertex 0.959999 51.271 77.4668
      vertex 0 53.9868 79.0347
      vertex 0 51.271 77.4668
    endloop
  endfacet
  facet normal 0 -0.499999 0.866026
    outer loop
      vertex 67.88 53.9868 79.0347
      vertex 68.84 51.271 77.4668
      vertex 68.84 53.9868 79.0347
    endloop
  endfacet
  facet normal 0 -0.499999 0.866026
    outer loop
      vertex 68.84 51.271 77.4668
      vertex 67.88 53.9868 79.0347
      vertex 67.88 51.271 77.4668
    endloop
  endfacet
  facet normal 0 -1 0
    outer loop
      vertex 0 60.0878 89.6021
      vertex 0.959999 60.0878 91.17
      vertex 0 60.0878 91.17
    endloop
  endfacet
  facet normal 0 -1 -0
    outer loop
      vertex 0.959999 60.0878 91.17
      vertex 0 60.0878 89.6021
      vertex 0.959999 60.0878 89.6021
    endloop
  endfacet
  facet normal 0 -1 0
    outer loop
      vertex 67.88 60.0878 89.6021
      vertex 68.84 60.0878 91.17
      vertex 67.88 60.0878 91.17
    endloop
  endfacet
  facet normal 0 -1 -0
    outer loop
      vertex 68.84 60.0878 91.17
      vertex 67.88 60.0878 89.6021
      vertex 68.84 60.0878 89.6021
    endloop
  endfacet
  facet normal 0 -0.978148 0.207912
    outer loop
      vertex 0 59.4358 86.5347
      vertex 0.959999 60.0878 89.6021
      vertex 0 60.0878 89.6021
    endloop
  endfacet
  facet normal 0 -0.978148 0.207912
    outer loop
      vertex 0.959999 60.0878 89.6021
      vertex 0 59.4358 86.5347
      vertex 0.959999 59.4358 86.5347
    endloop
  endfacet
  facet normal 0 -0.978148 0.207912
    outer loop
      vertex 67.88 59.4358 86.5347
      vertex 68.84 60.0878 89.6021
      vertex 67.88 60.0878 89.6021
    endloop
  endfacet
  facet normal 0 -0.978148 0.207912
    outer loop
      vertex 68.84 60.0878 89.6021
      vertex 67.88 59.4358 86.5347
      vertex 68.84 59.4358 86.5347
    endloop
  endfacet
  facet normal 0 0.913545 0.406737
    outer loop
      vertex 0.959999 32.1796 83.67
      vertex 0 30.9042 86.5347
      vertex 0.959999 30.9042 86.5347
    endloop
  endfacet
  facet normal 0 0.913545 0.406737
    outer loop
      vertex 0 30.9042 86.5347
      vertex 0.959999 32.1796 83.67
      vertex 0 32.1796 83.67
    endloop
  endfacet
  facet normal 0 0.913545 0.406737
    outer loop
      vertex 68.84 32.1796 83.67
      vertex 67.88 30.9042 86.5347
      vertex 68.84 30.9042 86.5347
    endloop
  endfacet
  facet normal 0 0.913545 0.406737
    outer loop
      vertex 67.88 30.9042 86.5347
      vertex 68.84 32.1796 83.67
      vertex 67.88 32.1796 83.67
    endloop
  endfacet
  facet normal 0 -0.913545 0.406737
    outer loop
      vertex 0 58.1604 83.67
      vertex 0.959999 59.4358 86.5347
      vertex 0 59.4358 86.5347
    endloop
  endfacet
  facet normal 0 -0.913545 0.406737
    outer loop
      vertex 0.959999 59.4358 86.5347
      vertex 0 58.1604 83.67
      vertex 0.959999 58.1604 83.67
    endloop
  endfacet
  facet normal 0 -0.913545 0.406737
    outer loop
      vertex 67.88 58.1604 83.67
      vertex 68.84 59.4358 86.5347
      vertex 67.88 59.4358 86.5347
    endloop
  endfacet
  facet normal 0 -0.913545 0.406737
    outer loop
      vertex 68.84 59.4358 86.5347
      vertex 67.88 58.1604 83.67
      vertex 68.84 58.1604 83.67
    endloop
  endfacet
  facet normal 0 -0.10453 0.994522
    outer loop
      vertex 0 48.2887 76.4978
      vertex 0.959999 45.17 76.17
      vertex 0.959999 48.2887 76.4978
    endloop
  endfacet
  facet normal 0 -0.10453 0.994522
    outer loop
      vertex 0.959999 45.17 76.17
      vertex 0 48.2887 76.4978
      vertex 0 45.17 76.17
    endloop
  endfacet
  facet normal 0 -0.10453 0.994522
    outer loop
      vertex 67.88 48.2887 76.4978
      vertex 68.84 45.17 76.17
      vertex 68.84 48.2887 76.4978
    endloop
  endfacet
  facet normal 0 -0.10453 0.994522
    outer loop
      vertex 68.84 45.17 76.17
      vertex 67.88 48.2887 76.4978
      vertex 67.88 45.17 76.17
    endloop
  endfacet
  facet normal 0 -0.669131 0.743145
    outer loop
      vertex 0 56.3172 81.133
      vertex 0.959999 53.9868 79.0347
      vertex 0.959999 56.3172 81.133
    endloop
  endfacet
  facet normal 0 -0.669131 0.743145
    outer loop
      vertex 0.959999 53.9868 79.0347
      vertex 0 56.3172 81.133
      vertex 0 53.9868 79.0347
    endloop
  endfacet
  facet normal 0 -0.669131 0.743145
    outer loop
      vertex 67.88 56.3172 81.133
      vertex 68.84 53.9868 79.0347
      vertex 68.84 56.3172 81.133
    endloop
  endfacet
  facet normal 0 -0.669131 0.743145
    outer loop
      vertex 68.84 53.9868 79.0347
      vertex 67.88 56.3172 81.133
      vertex 67.88 53.9868 79.0347
    endloop
  endfacet
  facet normal 0 -0.309017 0.951057
    outer loop
      vertex 0 51.271 77.4668
      vertex 0.959999 48.2887 76.4978
      vertex 0.959999 51.271 77.4668
    endloop
  endfacet
  facet normal 0 -0.309017 0.951057
    outer loop
      vertex 0.959999 48.2887 76.4978
      vertex 0 51.271 77.4668
      vertex 0 48.2887 76.4978
    endloop
  endfacet
  facet normal 0 -0.309017 0.951057
    outer loop
      vertex 67.88 51.271 77.4668
      vertex 68.84 48.2887 76.4978
      vertex 68.84 51.271 77.4668
    endloop
  endfacet
  facet normal 0 -0.309017 0.951057
    outer loop
      vertex 68.84 48.2887 76.4978
      vertex 67.88 51.271 77.4668
      vertex 67.88 48.2887 76.4978
    endloop
  endfacet
  facet normal -0 0.669131 0.743145
    outer loop
      vertex 0 36.3532 79.0347
      vertex 0.959999 34.0228 81.133
      vertex 0.959999 36.3532 79.0347
    endloop
  endfacet
  facet normal 0 0.669131 0.743145
    outer loop
      vertex 0.959999 34.0228 81.133
      vertex 0 36.3532 79.0347
      vertex 0 34.0228 81.133
    endloop
  endfacet
  facet normal -0 0.669131 0.743145
    outer loop
      vertex 67.88 36.3532 79.0347
      vertex 68.84 34.0228 81.133
      vertex 68.84 36.3532 79.0347
    endloop
  endfacet
  facet normal 0 0.669131 0.743145
    outer loop
      vertex 68.84 34.0228 81.133
      vertex 67.88 36.3532 79.0347
      vertex 67.88 34.0228 81.133
    endloop
  endfacet
  facet normal 0 -0.809017 0.587786
    outer loop
      vertex 0 56.3172 81.133
      vertex 0.959999 58.1604 83.67
      vertex 0 58.1604 83.67
    endloop
  endfacet
  facet normal 0 -0.809017 0.587786
    outer loop
      vertex 0.959999 58.1604 83.67
      vertex 0 56.3172 81.133
      vertex 0.959999 56.3172 81.133
    endloop
  endfacet
  facet normal 0 -0.809017 0.587786
    outer loop
      vertex 67.88 56.3172 81.133
      vertex 68.84 58.1604 83.67
      vertex 67.88 58.1604 83.67
    endloop
  endfacet
  facet normal 0 -0.809017 0.587786
    outer loop
      vertex 68.84 58.1604 83.67
      vertex 67.88 56.3172 81.133
      vertex 68.84 56.3172 81.133
    endloop
  endfacet
  facet normal 0 0.978148 0.207912
    outer loop
      vertex 0.959999 30.9042 86.5347
      vertex 0 30.2522 89.6021
      vertex 0.959999 30.2522 89.6021
    endloop
  endfacet
  facet normal 0 0.978148 0.207912
    outer loop
      vertex 0 30.2522 89.6021
      vertex 0.959999 30.9042 86.5347
      vertex 0 30.9042 86.5347
    endloop
  endfacet
  facet normal 0 0.978148 0.207912
    outer loop
      vertex 68.84 30.9042 86.5347
      vertex 67.88 30.2522 89.6021
      vertex 68.84 30.2522 89.6021
    endloop
  endfacet
  facet normal 0 0.978148 0.207912
    outer loop
      vertex 67.88 30.2522 89.6021
      vertex 68.84 30.9042 86.5347
      vertex 67.88 30.9042 86.5347
    endloop
  endfacet
  facet normal 0 1 -0
    outer loop
      vertex 0.959999 30.2522 89.6021
      vertex 0 30.2522 91.17
      vertex 0.959999 30.2522 91.17
    endloop
  endfacet
  facet normal 0 1 0
    outer loop
      vertex 0 30.2522 91.17
      vertex 0.959999 30.2522 89.6021
      vertex 0 30.2522 89.6021
    endloop
  endfacet
  facet normal 0 1 -0
    outer loop
      vertex 68.84 30.2522 89.6021
      vertex 67.88 30.2522 91.17
      vertex 68.84 30.2522 91.17
    endloop
  endfacet
  facet normal 0 1 0
    outer loop
      vertex 67.88 30.2522 91.17
      vertex 68.84 30.2522 89.6021
      vertex 67.88 30.2522 89.6021
    endloop
  endfacet
  facet normal 0 0.809017 0.587786
    outer loop
      vertex 0.959999 34.0228 81.133
      vertex 0 32.1796 83.67
      vertex 0.959999 32.1796 83.67
    endloop
  endfacet
  facet normal 0 0.809017 0.587786
    outer loop
      vertex 0 32.1796 83.67
      vertex 0.959999 34.0228 81.133
      vertex 0 34.0228 81.133
    endloop
  endfacet
  facet normal 0 0.809017 0.587786
    outer loop
      vertex 68.84 34.0228 81.133
      vertex 67.88 32.1796 83.67
      vertex 68.84 32.1796 83.67
    endloop
  endfacet
  facet normal 0 0.809017 0.587786
    outer loop
      vertex 67.88 32.1796 83.67
      vertex 68.84 34.0228 81.133
      vertex 67.88 34.0228 81.133
    endloop
  endfacet
  facet normal -0 0.309017 0.951056
    outer loop
      vertex 0 42.0513 76.4978
      vertex 0.959999 39.069 77.4668
      vertex 0.959999 42.0513 76.4978
    endloop
  endfacet
  facet normal 0 0.309017 0.951056
    outer loop
      vertex 0.959999 39.069 77.4668
      vertex 0 42.0513 76.4978
      vertex 0 39.069 77.4668
    endloop
  endfacet
  facet normal -0 0.309017 0.951056
    outer loop
      vertex 67.88 42.0513 76.4978
      vertex 68.84 39.069 77.4668
      vertex 68.84 42.0513 76.4978
    endloop
  endfacet
  facet normal 0 0.309017 0.951056
    outer loop
      vertex 68.84 39.069 77.4668
      vertex 67.88 42.0513 76.4978
      vertex 67.88 39.069 77.4668
    endloop
  endfacet
  facet normal 0 -1 0
    outer loop
      vertex 21.9213 0.48 14.7243
      vertex 19.6573 0.48 16.6359
      vertex 19.6573 0.48 14.7243
    endloop
  endfacet
  facet normal 0 -1 0
    outer loop
      vertex 19.6573 0.48 16.6359
      vertex 21.9213 0.48 14.7243
      vertex 23.6772 0.48 16.6359
    endloop
  endfacet
  facet normal 0 -1 0
    outer loop
      vertex 19.7311 0.48 13.3733
      vertex 21.9213 0.48 14.7243
      vertex 19.6573 0.48 14.7243
    endloop
  endfacet
  facet normal 0 -1 0
    outer loop
      vertex 21.9213 0.48 14.7243
      vertex 19.7311 0.48 13.3733
      vertex 19.9102 0.48 12.8115
    endloop
  endfacet
  facet normal 0 -1 0
    outer loop
      vertex 27.3233 0.48 19.8228
      vertex 18.3568 0.48 23.2418
      vertex 16.9042 0.48 21.7729
    endloop
  endfacet
  facet normal 0 -1 0
    outer loop
      vertex 41.3259 0.48 26.9147
      vertex 45.207 0.48 32.2814
      vertex 41.3259 0.48 32.2814
    endloop
  endfacet
  facet normal 0 -1 0
    outer loop
      vertex 41.3259 0.48 26.9147
      vertex 45.207 0.48 26.1832
      vertex 45.207 0.48 32.2814
    endloop
  endfacet
  facet normal 0 -1 0
    outer loop
      vertex 39.1939 0.48 19.7458
      vertex 41.3259 0.48 26.9147
      vertex 37.9528 0.48 23.2418
    endloop
  endfacet
  facet normal 0 -1 0
    outer loop
      vertex 27.3233 0.48 19.8228
      vertex 16.9042 0.48 21.7729
      vertex 15.4527 0.48 20.1019
    endloop
  endfacet
  facet normal 0 -1 0
    outer loop
      vertex 18.3568 0.48 23.2418
      vertex 27.3233 0.48 19.8228
      vertex 37.9528 0.48 23.2418
    endloop
  endfacet
  facet normal 0 -1 -0
    outer loop
      vertex 41.3259 0.48 26.9147
      vertex 39.1939 0.48 19.7458
      vertex 45.207 0.48 26.1832
    endloop
  endfacet
  facet normal 0 -1 0
    outer loop
      vertex 39.1939 0.48 19.7458
      vertex 37.9528 0.48 23.2418
      vertex 27.3233 0.48 19.8228
    endloop
  endfacet
  facet normal 0 -1 0
    outer loop
      vertex 46.6876 0.48 36.1058
      vertex 25.6782 0.48 39.5826
      vertex 27.2349 0.48 36.1058
    endloop
  endfacet
  facet normal 0 -1 0
    outer loop
      vertex 23.8618 0.48 32.433
      vertex 25.6782 0.48 39.5826
      vertex 19.6293 0.48 33.0802
    endloop
  endfacet
  facet normal 0 -1 -0
    outer loop
      vertex 25.6782 0.48 39.5826
      vertex 23.8618 0.48 32.433
      vertex 27.2349 0.48 36.1058
    endloop
  endfacet
  facet normal 0 -1 0
    outer loop
      vertex 19.8184 0.48 27.2407
      vertex 23.8618 0.48 32.433
      vertex 19.6293 0.48 33.0802
    endloop
  endfacet
  facet normal 0 -1 -0
    outer loop
      vertex 23.8618 0.48 32.433
      vertex 19.8184 0.48 27.2407
      vertex 23.8618 0.48 27.0326
    endloop
  endfacet
  facet normal 0 -1 0
    outer loop
      vertex 25.6782 0.48 39.5826
      vertex 46.6876 0.48 36.1058
      vertex 49.8727 0.48 39.5826
    endloop
  endfacet
  facet normal 0 -1 0
    outer loop
      vertex 43.1053 0.48 45.1454
      vertex 45.207 0.48 45.1454
      vertex 45.1164 0.48 47.2315
    endloop
  endfacet
  facet normal 0 -1 0
    outer loop
      vertex 45.207 0.48 43.0594
      vertex 43.1053 0.48 45.1454
      vertex 41.1849 0.48 43.0594
    endloop
  endfacet
  facet normal 0 -1 0
    outer loop
      vertex 43.1053 0.48 45.1454
      vertex 45.207 0.48 43.0594
      vertex 45.207 0.48 45.1454
    endloop
  endfacet
  facet normal 0.998509 -0 0.0545918
    outer loop
      vertex 19.6573 0 14.7243
      vertex 19.7311 0.48 13.3733
      vertex 19.6573 0.48 14.7243
    endloop
  endfacet
  facet normal 0.998509 0 0.0545918
    outer loop
      vertex 19.7311 0.48 13.3733
      vertex 19.6573 0 14.7243
      vertex 19.7311 0 13.3733
    endloop
  endfacet
  facet normal 0.952779 -0 0.303666
    outer loop
      vertex 19.7311 0 13.3733
      vertex 19.9102 0.48 12.8115
      vertex 19.7311 0.48 13.3733
    endloop
  endfacet
  facet normal 0.952779 0 0.303666
    outer loop
      vertex 19.9102 0.48 12.8115
      vertex 19.7311 0 13.3733
      vertex 19.9102 0 12.8115
    endloop
  endfacet
  facet normal -0.689185 0 0.724586
    outer loop
      vertex 19.9102 0.48 12.8115
      vertex 21.9213 0 14.7243
      vertex 21.9213 0.48 14.7243
    endloop
  endfacet
  facet normal -0.689185 0 0.724586
    outer loop
      vertex 21.9213 0 14.7243
      vertex 19.9102 0.48 12.8115
      vertex 19.9102 0 12.8115
    endloop
  endfacet
  facet normal -0.736463 0 0.676478
    outer loop
      vertex 21.9213 0 14.7243
      vertex 23.6772 0.48 16.6359
      vertex 21.9213 0.48 14.7243
    endloop
  endfacet
  facet normal -0.736463 0 0.676478
    outer loop
      vertex 23.6772 0.48 16.6359
      vertex 21.9213 0 14.7243
      vertex 23.6772 0 16.6359
    endloop
  endfacet
  facet normal 0 0 -1
    outer loop
      vertex 19.6573 0 16.6359
      vertex 23.6772 0.48 16.6359
      vertex 23.6772 0 16.6359
    endloop
  endfacet
  facet normal -0 0 -1
    outer loop
      vertex 23.6772 0.48 16.6359
      vertex 19.6573 0 16.6359
      vertex 19.6573 0.48 16.6359
    endloop
  endfacet
  facet normal 1 -0 0
    outer loop
      vertex 19.6573 0 16.6359
      vertex 19.6573 0.48 14.7243
      vertex 19.6573 0.48 16.6359
    endloop
  endfacet
  facet normal 1 0 0
    outer loop
      vertex 19.6573 0.48 14.7243
      vertex 19.6573 0 16.6359
      vertex 19.6573 0 14.7243
    endloop
  endfacet
  facet normal 0.736527 0 -0.676408
    outer loop
      vertex 41.3259 0 26.9147
      vertex 37.9528 0.48 23.2418
      vertex 41.3259 0.48 26.9147
    endloop
  endfacet
  facet normal 0.736527 0 -0.676408
    outer loop
      vertex 37.9528 0.48 23.2418
      vertex 41.3259 0 26.9147
      vertex 37.9528 0 23.2418
    endloop
  endfacet
  facet normal 0 0 -1
    outer loop
      vertex 18.3568 0 23.2418
      vertex 37.9528 0.48 23.2418
      vertex 37.9528 0 23.2418
    endloop
  endfacet
  facet normal -0 0 -1
    outer loop
      vertex 37.9528 0.48 23.2418
      vertex 18.3568 0 23.2418
      vertex 18.3568 0.48 23.2418
    endloop
  endfacet
  facet normal 0.711034 0 -0.703158
    outer loop
      vertex 18.3568 0 23.2418
      vertex 16.9042 0.48 21.7729
      vertex 18.3568 0.48 23.2418
    endloop
  endfacet
  facet normal 0.711034 0 -0.703158
    outer loop
      vertex 16.9042 0.48 21.7729
      vertex 18.3568 0 23.2418
      vertex 16.9042 0 21.7729
    endloop
  endfacet
  facet normal 0.75495 0 -0.655782
    outer loop
      vertex 16.9042 0 21.7729
      vertex 15.4527 0.48 20.1019
      vertex 16.9042 0.48 21.7729
    endloop
  endfacet
  facet normal 0.75495 0 -0.655782
    outer loop
      vertex 15.4527 0.48 20.1019
      vertex 16.9042 0 21.7729
      vertex 15.4527 0 20.1019
    endloop
  endfacet
  facet normal 0.0235058 0 0.999724
    outer loop
      vertex 15.4527 0.48 20.1019
      vertex 27.3233 0 19.8228
      vertex 27.3233 0.48 19.8228
    endloop
  endfacet
  facet normal 0.0235058 0 0.999724
    outer loop
      vertex 27.3233 0 19.8228
      vertex 15.4527 0.48 20.1019
      vertex 15.4527 0 20.1019
    endloop
  endfacet
  facet normal 0.00648579 0 0.999979
    outer loop
      vertex 27.3233 0.48 19.8228
      vertex 39.1939 0 19.7458
      vertex 39.1939 0.48 19.7458
    endloop
  endfacet
  facet normal 0.00648579 0 0.999979
    outer loop
      vertex 39.1939 0 19.7458
      vertex 27.3233 0.48 19.8228
      vertex 27.3233 0 19.8228
    endloop
  endfacet
  facet normal -0.730782 0 0.682611
    outer loop
      vertex 39.1939 0 19.7458
      vertex 45.207 0.48 26.1832
      vertex 39.1939 0.48 19.7458
    endloop
  endfacet
  facet normal -0.730782 0 0.682611
    outer loop
      vertex 45.207 0.48 26.1832
      vertex 39.1939 0 19.7458
      vertex 45.207 0 26.1832
    endloop
  endfacet
  facet normal -1 0 0
    outer loop
      vertex 45.207 0 26.1832
      vertex 45.207 0.48 32.2814
      vertex 45.207 0.48 26.1832
    endloop
  endfacet
  facet normal -1 -0 0
    outer loop
      vertex 45.207 0.48 32.2814
      vertex 45.207 0 26.1832
      vertex 45.207 0 32.2814
    endloop
  endfacet
  facet normal 0 0 -1
    outer loop
      vertex 41.3259 0 32.2814
      vertex 45.207 0.48 32.2814
      vertex 45.207 0 32.2814
    endloop
  endfacet
  facet normal -0 0 -1
    outer loop
      vertex 45.207 0.48 32.2814
      vertex 41.3259 0 32.2814
      vertex 41.3259 0.48 32.2814
    endloop
  endfacet
  facet normal 1 -0 0
    outer loop
      vertex 41.3259 0 32.2814
      vertex 41.3259 0.48 26.9147
      vertex 41.3259 0.48 32.2814
    endloop
  endfacet
  facet normal 1 0 0
    outer loop
      vertex 41.3259 0.48 26.9147
      vertex 41.3259 0 32.2814
      vertex 41.3259 0 26.9147
    endloop
  endfacet
  facet normal 0.732178 0 -0.681114
    outer loop
      vertex 25.6782 0 39.5826
      vertex 19.6293 0.48 33.0802
      vertex 25.6782 0.48 39.5826
    endloop
  endfacet
  facet normal 0.732178 0 -0.681114
    outer loop
      vertex 19.6293 0.48 33.0802
      vertex 25.6782 0 39.5826
      vertex 19.6293 0 33.0802
    endloop
  endfacet
  facet normal 0.999476 -0 0.0323714
    outer loop
      vertex 19.6293 0 33.0802
      vertex 19.8184 0.48 27.2407
      vertex 19.6293 0.48 33.0802
    endloop
  endfacet
  facet normal 0.999476 0 0.0323714
    outer loop
      vertex 19.8184 0.48 27.2407
      vertex 19.6293 0 33.0802
      vertex 19.8184 0 27.2407
    endloop
  endfacet
  facet normal 0.0514047 0 0.998678
    outer loop
      vertex 19.8184 0.48 27.2407
      vertex 23.8618 0 27.0326
      vertex 23.8618 0.48 27.0326
    endloop
  endfacet
  facet normal 0.0514047 0 0.998678
    outer loop
      vertex 23.8618 0 27.0326
      vertex 19.8184 0.48 27.2407
      vertex 19.8184 0 27.2407
    endloop
  endfacet
  facet normal -1 0 0
    outer loop
      vertex 23.8618 0 27.0326
      vertex 23.8618 0.48 32.433
      vertex 23.8618 0.48 27.0326
    endloop
  endfacet
  facet normal -1 -0 0
    outer loop
      vertex 23.8618 0.48 32.433
      vertex 23.8618 0 27.0326
      vertex 23.8618 0 32.433
    endloop
  endfacet
  facet normal -0.736528 0 0.676407
    outer loop
      vertex 23.8618 0 32.433
      vertex 27.2349 0.48 36.1058
      vertex 23.8618 0.48 32.433
    endloop
  endfacet
  facet normal -0.736528 0 0.676407
    outer loop
      vertex 27.2349 0.48 36.1058
      vertex 23.8618 0 32.433
      vertex 27.2349 0 36.1058
    endloop
  endfacet
  facet normal -0 0 1
    outer loop
      vertex 27.2349 0.48 36.1058
      vertex 46.6876 0 36.1058
      vertex 46.6876 0.48 36.1058
    endloop
  endfacet
  facet normal 0 0 1
    outer loop
      vertex 46.6876 0 36.1058
      vertex 27.2349 0.48 36.1058
      vertex 27.2349 0 36.1058
    endloop
  endfacet
  facet normal -0.737364 0 0.675496
    outer loop
      vertex 46.6876 0 36.1058
      vertex 49.8727 0.48 39.5826
      vertex 46.6876 0.48 36.1058
    endloop
  endfacet
  facet normal -0.737364 0 0.675496
    outer loop
      vertex 49.8727 0.48 39.5826
      vertex 46.6876 0 36.1058
      vertex 49.8727 0 39.5826
    endloop
  endfacet
  facet normal 0 0 -1
    outer loop
      vertex 25.6782 0 39.5826
      vertex 49.8727 0.48 39.5826
      vertex 49.8727 0 39.5826
    endloop
  endfacet
  facet normal -0 0 -1
    outer loop
      vertex 49.8727 0.48 39.5826
      vertex 25.6782 0 39.5826
      vertex 25.6782 0.48 39.5826
    endloop
  endfacet
  facet normal 0.73571 0 -0.677297
    outer loop
      vertex 43.1053 0 45.1454
      vertex 41.1849 0.48 43.0594
      vertex 43.1053 0.48 45.1454
    endloop
  endfacet
  facet normal 0.73571 0 -0.677297
    outer loop
      vertex 41.1849 0.48 43.0594
      vertex 43.1053 0 45.1454
      vertex 41.1849 0 43.0594
    endloop
  endfacet
  facet normal -0 0 1
    outer loop
      vertex 41.1849 0.48 43.0594
      vertex 45.207 0 43.0594
      vertex 45.207 0.48 43.0594
    endloop
  endfacet
  facet normal 0 0 1
    outer loop
      vertex 45.207 0 43.0594
      vertex 41.1849 0.48 43.0594
      vertex 41.1849 0 43.0594
    endloop
  endfacet
  facet normal -1 0 0
    outer loop
      vertex 45.207 0 43.0594
      vertex 45.207 0.48 45.1454
      vertex 45.207 0.48 43.0594
    endloop
  endfacet
  facet normal -1 -0 0
    outer loop
      vertex 45.207 0.48 45.1454
      vertex 45.207 0 43.0594
      vertex 45.207 0 45.1454
    endloop
  endfacet
  facet normal -0.999057 0 -0.0434134
    outer loop
      vertex 45.207 0 45.1454
      vertex 45.1164 0.48 47.2315
      vertex 45.207 0.48 45.1454
    endloop
  endfacet
  facet normal -0.999057 -0 -0.0434134
    outer loop
      vertex 45.1164 0.48 47.2315
      vertex 45.207 0 45.1454
      vertex 45.1164 0 47.2315
    endloop
  endfacet
  facet normal 0.719928 0 -0.694049
    outer loop
      vertex 45.1164 0 47.2315
      vertex 43.1053 0.48 45.1454
      vertex 45.1164 0.48 47.2315
    endloop
  endfacet
  facet normal 0.719928 0 -0.694049
    outer loop
      vertex 43.1053 0.48 45.1454
      vertex 45.1164 0 47.2315
      vertex 43.1053 0 45.1454
    endloop
  endfacet
endsolid OpenSCAD_Model
