solid OpenSCAD_Model
  facet normal -1 0 0
    outer loop
      vertex 0 115.817 82.633
      vertex 0 209.34 92.67
      vertex 0 209.34 0
    endloop
  endfacet
  facet normal -1 0 0
    outer loop
      vertex 0 209.34 92.67
      vertex 0 118.936 88.0347
      vertex 0 119.588 91.1021
    endloop
  endfacet
  facet normal -1 0 0
    outer loop
      vertex 0 209.34 92.67
      vertex 0 117.66 85.17
      vertex 0 118.936 88.0347
    endloop
  endfacet
  facet normal -1 0 0
    outer loop
      vertex 0 209.34 92.67
      vertex 0 115.817 82.633
      vertex 0 117.66 85.17
    endloop
  endfacet
  facet normal -1 0 0
    outer loop
      vertex 0 209.34 0
      vertex 0 113.487 80.5347
      vertex 0 115.817 82.633
    endloop
  endfacet
  facet normal -1 0 0
    outer loop
      vertex 0 209.34 0
      vertex 0 110.771 78.9668
      vertex 0 113.487 80.5347
    endloop
  endfacet
  facet normal -1 0 0
    outer loop
      vertex 0 209.34 0
      vertex 0 107.789 77.9978
      vertex 0 110.771 78.9668
    endloop
  endfacet
  facet normal -1 0 0
    outer loop
      vertex 0 209.34 0
      vertex 0 104.67 77.67
      vertex 0 107.789 77.9978
    endloop
  endfacet
  facet normal -1 0 0
    outer loop
      vertex 0 0 0
      vertex 0 104.67 77.67
      vertex 0 209.34 0
    endloop
  endfacet
  facet normal -1 -0 0
    outer loop
      vertex 0 104.67 77.67
      vertex 0 0 0
      vertex 0 101.551 77.9978
    endloop
  endfacet
  facet normal -1 -0 0
    outer loop
      vertex 0 101.551 77.9978
      vertex 0 0 0
      vertex 0 98.5689 78.9668
    endloop
  endfacet
  facet normal -1 -0 0
    outer loop
      vertex 0 98.5689 78.9668
      vertex 0 0 0
      vertex 0 95.8532 80.5347
    endloop
  endfacet
  facet normal -1 0 0
    outer loop
      vertex 0 0 0
      vertex 0 93.5228 82.633
      vertex 0 95.8532 80.5347
    endloop
  endfacet
  facet normal -1 0 0
    outer loop
      vertex 0 0 92.67
      vertex 0 93.5228 82.633
      vertex 0 0 0
    endloop
  endfacet
  facet normal -1 0 0
    outer loop
      vertex 0 93.5228 82.633
      vertex 0 0 92.67
      vertex 0 91.6796 85.17
    endloop
  endfacet
  facet normal -1 0 0
    outer loop
      vertex 0 91.6796 85.17
      vertex 0 0 92.67
      vertex 0 90.4042 88.0347
    endloop
  endfacet
  facet normal -1 0 0
    outer loop
      vertex 0 90.4042 88.0347
      vertex 0 0 92.67
      vertex 0 89.7522 91.1021
    endloop
  endfacet
  facet normal -1 0 0
    outer loop
      vertex 0 89.7522 91.1021
      vertex 0 0 92.67
      vertex 0 89.7522 92.67
    endloop
  endfacet
  facet normal -1 -0 0
    outer loop
      vertex 0 209.34 92.67
      vertex 0 119.588 91.1021
      vertex 0 119.588 92.67
    endloop
  endfacet
  facet normal 0 0 1
    outer loop
      vertex 0.959999 89.7522 92.67
      vertex 0 89.7522 92.67
      vertex 0.959999 0.959999 92.67
    endloop
  endfacet
  facet normal 0 0 1
    outer loop
      vertex 69.38 0.959999 92.67
      vertex 70.34 89.7522 92.67
      vertex 69.38 89.7522 92.67
    endloop
  endfacet
  facet normal 0 0 1
    outer loop
      vertex 70.34 89.7522 92.67
      vertex 69.38 0.959999 92.67
      vertex 70.34 0 92.67
    endloop
  endfacet
  facet normal -0 0 1
    outer loop
      vertex 0.959999 0.959999 92.67
      vertex 70.34 0 92.67
      vertex 69.38 0.959999 92.67
    endloop
  endfacet
  facet normal 0 0 1
    outer loop
      vertex 0.959999 0.959999 92.67
      vertex 0 0 92.67
      vertex 70.34 0 92.67
    endloop
  endfacet
  facet normal 0 0 1
    outer loop
      vertex 0 0 92.67
      vertex 0.959999 0.959999 92.67
      vertex 0 89.7522 92.67
    endloop
  endfacet
  facet normal 0 0 1
    outer loop
      vertex 70.34 209.34 92.67
      vertex 69.38 208.38 92.67
      vertex 70.34 119.588 92.67
    endloop
  endfacet
  facet normal 0 0 1
    outer loop
      vertex 70.34 209.34 92.67
      vertex 0.959999 208.38 92.67
      vertex 69.38 208.38 92.67
    endloop
  endfacet
  facet normal -0 0 1
    outer loop
      vertex 0 209.34 92.67
      vertex 0.959999 208.38 92.67
      vertex 70.34 209.34 92.67
    endloop
  endfacet
  facet normal 0 0 1
    outer loop
      vertex 0 119.588 92.67
      vertex 0.959999 208.38 92.67
      vertex 0 209.34 92.67
    endloop
  endfacet
  facet normal 0 0 1
    outer loop
      vertex 0.959999 208.38 92.67
      vertex 0 119.588 92.67
      vertex 0.959999 119.588 92.67
    endloop
  endfacet
  facet normal 0 0 1
    outer loop
      vertex 70.34 119.588 92.67
      vertex 69.38 208.38 92.67
      vertex 69.38 119.588 92.67
    endloop
  endfacet
  facet normal 1 0 0
    outer loop
      vertex 70.34 89.7522 92.67
      vertex 70.34 0 92.67
      vertex 70.34 89.7522 91.1021
    endloop
  endfacet
  facet normal 1 0 0
    outer loop
      vertex 70.34 119.588 91.1021
      vertex 70.34 209.34 92.67
      vertex 70.34 119.588 92.67
    endloop
  endfacet
  facet normal 1 0 0
    outer loop
      vertex 70.34 118.936 88.0347
      vertex 70.34 209.34 92.67
      vertex 70.34 119.588 91.1021
    endloop
  endfacet
  facet normal 1 0 0
    outer loop
      vertex 70.34 117.66 85.17
      vertex 70.34 209.34 92.67
      vertex 70.34 118.936 88.0347
    endloop
  endfacet
  facet normal 1 0 0
    outer loop
      vertex 70.34 115.817 82.633
      vertex 70.34 209.34 92.67
      vertex 70.34 117.66 85.17
    endloop
  endfacet
  facet normal 1 0 0
    outer loop
      vertex 70.34 209.34 92.67
      vertex 70.34 115.817 82.633
      vertex 70.34 209.34 0
    endloop
  endfacet
  facet normal 1 -0 0
    outer loop
      vertex 70.34 113.487 80.5347
      vertex 70.34 209.34 0
      vertex 70.34 115.817 82.633
    endloop
  endfacet
  facet normal 1 -0 0
    outer loop
      vertex 70.34 110.771 78.9668
      vertex 70.34 209.34 0
      vertex 70.34 113.487 80.5347
    endloop
  endfacet
  facet normal 1 -0 0
    outer loop
      vertex 70.34 107.789 77.9978
      vertex 70.34 209.34 0
      vertex 70.34 110.771 78.9668
    endloop
  endfacet
  facet normal 1 -0 0
    outer loop
      vertex 70.34 104.67 77.67
      vertex 70.34 209.34 0
      vertex 70.34 107.789 77.9978
    endloop
  endfacet
  facet normal 1 0 0
    outer loop
      vertex 70.34 0 0
      vertex 70.34 104.67 77.67
      vertex 70.34 101.551 77.9978
    endloop
  endfacet
  facet normal 1 0 0
    outer loop
      vertex 70.34 0 0
      vertex 70.34 101.551 77.9978
      vertex 70.34 98.5689 78.9668
    endloop
  endfacet
  facet normal 1 0 0
    outer loop
      vertex 70.34 0 0
      vertex 70.34 98.5689 78.9668
      vertex 70.34 95.8532 80.5347
    endloop
  endfacet
  facet normal 1 0 0
    outer loop
      vertex 70.34 0 92.67
      vertex 70.34 90.4042 88.0347
      vertex 70.34 89.7522 91.1021
    endloop
  endfacet
  facet normal 1 0 0
    outer loop
      vertex 70.34 0 92.67
      vertex 70.34 91.6796 85.17
      vertex 70.34 90.4042 88.0347
    endloop
  endfacet
  facet normal 1 0 0
    outer loop
      vertex 70.34 0 92.67
      vertex 70.34 93.5228 82.633
      vertex 70.34 91.6796 85.17
    endloop
  endfacet
  facet normal 1 0 0
    outer loop
      vertex 70.34 0 0
      vertex 70.34 93.5228 82.633
      vertex 70.34 0 92.67
    endloop
  endfacet
  facet normal 1 0 0
    outer loop
      vertex 70.34 93.5228 82.633
      vertex 70.34 0 0
      vertex 70.34 95.8532 80.5347
    endloop
  endfacet
  facet normal 1 0 0
    outer loop
      vertex 70.34 104.67 77.67
      vertex 70.34 0 0
      vertex 70.34 209.34 0
    endloop
  endfacet
  facet normal 0 1 -0
    outer loop
      vertex 70.34 209.34 0
      vertex 0 209.34 92.67
      vertex 70.34 209.34 92.67
    endloop
  endfacet
  facet normal 0 1 0
    outer loop
      vertex 0 209.34 92.67
      vertex 70.34 209.34 0
      vertex 0 209.34 0
    endloop
  endfacet
  facet normal 0 0 -1
    outer loop
      vertex 0 0 0
      vertex 70.34 209.34 0
      vertex 70.34 0 0
    endloop
  endfacet
  facet normal -0 0 -1
    outer loop
      vertex 70.34 209.34 0
      vertex 0 0 0
      vertex 0 209.34 0
    endloop
  endfacet
  facet normal 0 -1 0
    outer loop
      vertex 0 0 0
      vertex 70.34 0 92.67
      vertex 0 0 92.67
    endloop
  endfacet
  facet normal 0 -1 -0
    outer loop
      vertex 70.34 0 92.67
      vertex 0 0 0
      vertex 70.34 0 0
    endloop
  endfacet
  facet normal 1 0 0
    outer loop
      vertex 0.959999 89.7522 92.67
      vertex 0.959999 0.959999 92.67
      vertex 0.959999 89.7522 91.1021
    endloop
  endfacet
  facet normal 1 0 0
    outer loop
      vertex 0.959999 119.588 91.1021
      vertex 0.959999 208.38 92.67
      vertex 0.959999 119.588 92.67
    endloop
  endfacet
  facet normal 1 0 0
    outer loop
      vertex 0.959999 118.936 88.0347
      vertex 0.959999 208.38 92.67
      vertex 0.959999 119.588 91.1021
    endloop
  endfacet
  facet normal 1 0 0
    outer loop
      vertex 0.959999 117.66 85.17
      vertex 0.959999 208.38 92.67
      vertex 0.959999 118.936 88.0347
    endloop
  endfacet
  facet normal 1 0 0
    outer loop
      vertex 0.959999 115.817 82.633
      vertex 0.959999 208.38 92.67
      vertex 0.959999 117.66 85.17
    endloop
  endfacet
  facet normal 1 0 0
    outer loop
      vertex 0.959999 208.38 92.67
      vertex 0.959999 115.817 82.633
      vertex 0.959999 208.38 0.959999
    endloop
  endfacet
  facet normal 1 -0 0
    outer loop
      vertex 0.959999 113.487 80.5347
      vertex 0.959999 208.38 0.959999
      vertex 0.959999 115.817 82.633
    endloop
  endfacet
  facet normal 1 -0 0
    outer loop
      vertex 0.959999 110.771 78.9668
      vertex 0.959999 208.38 0.959999
      vertex 0.959999 113.487 80.5347
    endloop
  endfacet
  facet normal 1 -0 0
    outer loop
      vertex 0.959999 107.789 77.9978
      vertex 0.959999 208.38 0.959999
      vertex 0.959999 110.771 78.9668
    endloop
  endfacet
  facet normal 1 -0 0
    outer loop
      vertex 0.959999 104.67 77.67
      vertex 0.959999 208.38 0.959999
      vertex 0.959999 107.789 77.9978
    endloop
  endfacet
  facet normal 1 0 0
    outer loop
      vertex 0.959999 0.959999 0.959999
      vertex 0.959999 104.67 77.67
      vertex 0.959999 101.551 77.9978
    endloop
  endfacet
  facet normal 1 0 0
    outer loop
      vertex 0.959999 0.959999 0.959999
      vertex 0.959999 101.551 77.9978
      vertex 0.959999 98.5689 78.9668
    endloop
  endfacet
  facet normal 1 0 0
    outer loop
      vertex 0.959999 0.959999 0.959999
      vertex 0.959999 98.5689 78.9668
      vertex 0.959999 95.8532 80.5347
    endloop
  endfacet
  facet normal 1 0 0
    outer loop
      vertex 0.959999 0.959999 92.67
      vertex 0.959999 90.4042 88.0347
      vertex 0.959999 89.7522 91.1021
    endloop
  endfacet
  facet normal 1 0 0
    outer loop
      vertex 0.959999 0.959999 92.67
      vertex 0.959999 91.6796 85.17
      vertex 0.959999 90.4042 88.0347
    endloop
  endfacet
  facet normal 1 0 0
    outer loop
      vertex 0.959999 0.959999 92.67
      vertex 0.959999 93.5228 82.633
      vertex 0.959999 91.6796 85.17
    endloop
  endfacet
  facet normal 1 0 0
    outer loop
      vertex 0.959999 0.959999 0.959999
      vertex 0.959999 93.5228 82.633
      vertex 0.959999 0.959999 92.67
    endloop
  endfacet
  facet normal 1 0 0
    outer loop
      vertex 0.959999 93.5228 82.633
      vertex 0.959999 0.959999 0.959999
      vertex 0.959999 95.8532 80.5347
    endloop
  endfacet
  facet normal 1 0 0
    outer loop
      vertex 0.959999 104.67 77.67
      vertex 0.959999 0.959999 0.959999
      vertex 0.959999 208.38 0.959999
    endloop
  endfacet
  facet normal -1 0 0
    outer loop
      vertex 69.38 115.817 82.633
      vertex 69.38 208.38 92.67
      vertex 69.38 208.38 0.959999
    endloop
  endfacet
  facet normal -1 0 0
    outer loop
      vertex 69.38 208.38 92.67
      vertex 69.38 118.936 88.0347
      vertex 69.38 119.588 91.1021
    endloop
  endfacet
  facet normal -1 0 0
    outer loop
      vertex 69.38 208.38 92.67
      vertex 69.38 117.66 85.17
      vertex 69.38 118.936 88.0347
    endloop
  endfacet
  facet normal -1 0 0
    outer loop
      vertex 69.38 208.38 92.67
      vertex 69.38 115.817 82.633
      vertex 69.38 117.66 85.17
    endloop
  endfacet
  facet normal -1 0 0
    outer loop
      vertex 69.38 208.38 0.959999
      vertex 69.38 113.487 80.5347
      vertex 69.38 115.817 82.633
    endloop
  endfacet
  facet normal -1 0 0
    outer loop
      vertex 69.38 208.38 0.959999
      vertex 69.38 110.771 78.9668
      vertex 69.38 113.487 80.5347
    endloop
  endfacet
  facet normal -1 0 0
    outer loop
      vertex 69.38 208.38 0.959999
      vertex 69.38 107.789 77.9978
      vertex 69.38 110.771 78.9668
    endloop
  endfacet
  facet normal -1 0 0
    outer loop
      vertex 69.38 208.38 0.959999
      vertex 69.38 104.67 77.67
      vertex 69.38 107.789 77.9978
    endloop
  endfacet
  facet normal -1 0 0
    outer loop
      vertex 69.38 0.959999 0.959999
      vertex 69.38 104.67 77.67
      vertex 69.38 208.38 0.959999
    endloop
  endfacet
  facet normal -1 -0 0
    outer loop
      vertex 69.38 104.67 77.67
      vertex 69.38 0.959999 0.959999
      vertex 69.38 101.551 77.9978
    endloop
  endfacet
  facet normal -1 -0 0
    outer loop
      vertex 69.38 101.551 77.9978
      vertex 69.38 0.959999 0.959999
      vertex 69.38 98.5689 78.9668
    endloop
  endfacet
  facet normal -1 -0 0
    outer loop
      vertex 69.38 98.5689 78.9668
      vertex 69.38 0.959999 0.959999
      vertex 69.38 95.8532 80.5347
    endloop
  endfacet
  facet normal -1 0 0
    outer loop
      vertex 69.38 0.959999 0.959999
      vertex 69.38 93.5228 82.633
      vertex 69.38 95.8532 80.5347
    endloop
  endfacet
  facet normal -1 0 0
    outer loop
      vertex 69.38 0.959999 92.67
      vertex 69.38 93.5228 82.633
      vertex 69.38 0.959999 0.959999
    endloop
  endfacet
  facet normal -1 0 0
    outer loop
      vertex 69.38 93.5228 82.633
      vertex 69.38 0.959999 92.67
      vertex 69.38 91.6796 85.17
    endloop
  endfacet
  facet normal -1 0 0
    outer loop
      vertex 69.38 91.6796 85.17
      vertex 69.38 0.959999 92.67
      vertex 69.38 90.4042 88.0347
    endloop
  endfacet
  facet normal -1 0 0
    outer loop
      vertex 69.38 90.4042 88.0347
      vertex 69.38 0.959999 92.67
      vertex 69.38 89.7522 91.1021
    endloop
  endfacet
  facet normal -1 0 0
    outer loop
      vertex 69.38 89.7522 91.1021
      vertex 69.38 0.959999 92.67
      vertex 69.38 89.7522 92.67
    endloop
  endfacet
  facet normal -1 -0 0
    outer loop
      vertex 69.38 208.38 92.67
      vertex 69.38 119.588 91.1021
      vertex 69.38 119.588 92.67
    endloop
  endfacet
  facet normal -0 0 1
    outer loop
      vertex 0.959999 208.38 0.959999
      vertex 69.38 0.959999 0.959999
      vertex 69.38 208.38 0.959999
    endloop
  endfacet
  facet normal 0 0 1
    outer loop
      vertex 69.38 0.959999 0.959999
      vertex 0.959999 208.38 0.959999
      vertex 0.959999 0.959999 0.959999
    endloop
  endfacet
  facet normal 0 1 -0
    outer loop
      vertex 69.38 0.959999 0.959999
      vertex 0.959999 0.959999 92.67
      vertex 69.38 0.959999 92.67
    endloop
  endfacet
  facet normal 0 1 0
    outer loop
      vertex 0.959999 0.959999 92.67
      vertex 69.38 0.959999 0.959999
      vertex 0.959999 0.959999 0.959999
    endloop
  endfacet
  facet normal 0 -1 0
    outer loop
      vertex 0.959999 208.38 0.959999
      vertex 69.38 208.38 92.67
      vertex 0.959999 208.38 92.67
    endloop
  endfacet
  facet normal 0 -1 -0
    outer loop
      vertex 69.38 208.38 92.67
      vertex 0.959999 208.38 0.959999
      vertex 69.38 208.38 0.959999
    endloop
  endfacet
  facet normal 0 -0.10453 0.994522
    outer loop
      vertex 0 107.789 77.9978
      vertex 0.959999 104.67 77.67
      vertex 0.959999 107.789 77.9978
    endloop
  endfacet
  facet normal 0 -0.10453 0.994522
    outer loop
      vertex 0.959999 104.67 77.67
      vertex 0 107.789 77.9978
      vertex 0 104.67 77.67
    endloop
  endfacet
  facet normal 0 -0.10453 0.994522
    outer loop
      vertex 69.38 107.789 77.9978
      vertex 70.34 104.67 77.67
      vertex 70.34 107.789 77.9978
    endloop
  endfacet
  facet normal 0 -0.10453 0.994522
    outer loop
      vertex 70.34 104.67 77.67
      vertex 69.38 107.789 77.9978
      vertex 69.38 104.67 77.67
    endloop
  endfacet
  facet normal 0 0.978148 0.207911
    outer loop
      vertex 0.959999 90.4042 88.0347
      vertex 0 89.7522 91.1021
      vertex 0.959999 89.7522 91.1021
    endloop
  endfacet
  facet normal 0 0.978148 0.207911
    outer loop
      vertex 0 89.7522 91.1021
      vertex 0.959999 90.4042 88.0347
      vertex 0 90.4042 88.0347
    endloop
  endfacet
  facet normal 0 0.978148 0.207911
    outer loop
      vertex 70.34 90.4042 88.0347
      vertex 69.38 89.7522 91.1021
      vertex 70.34 89.7522 91.1021
    endloop
  endfacet
  facet normal 0 0.978148 0.207911
    outer loop
      vertex 69.38 89.7522 91.1021
      vertex 70.34 90.4042 88.0347
      vertex 69.38 90.4042 88.0347
    endloop
  endfacet
  facet normal 0 -0.809017 0.587786
    outer loop
      vertex 0 115.817 82.633
      vertex 0.959999 117.66 85.17
      vertex 0 117.66 85.17
    endloop
  endfacet
  facet normal 0 -0.809017 0.587786
    outer loop
      vertex 0.959999 117.66 85.17
      vertex 0 115.817 82.633
      vertex 0.959999 115.817 82.633
    endloop
  endfacet
  facet normal 0 -0.809017 0.587786
    outer loop
      vertex 69.38 115.817 82.633
      vertex 70.34 117.66 85.17
      vertex 69.38 117.66 85.17
    endloop
  endfacet
  facet normal 0 -0.809017 0.587786
    outer loop
      vertex 70.34 117.66 85.17
      vertex 69.38 115.817 82.633
      vertex 70.34 115.817 82.633
    endloop
  endfacet
  facet normal 0 -0.669131 0.743144
    outer loop
      vertex 0 115.817 82.633
      vertex 0.959999 113.487 80.5347
      vertex 0.959999 115.817 82.633
    endloop
  endfacet
  facet normal 0 -0.669131 0.743144
    outer loop
      vertex 0.959999 113.487 80.5347
      vertex 0 115.817 82.633
      vertex 0 113.487 80.5347
    endloop
  endfacet
  facet normal 0 -0.669131 0.743144
    outer loop
      vertex 69.38 115.817 82.633
      vertex 70.34 113.487 80.5347
      vertex 70.34 115.817 82.633
    endloop
  endfacet
  facet normal 0 -0.669131 0.743144
    outer loop
      vertex 70.34 113.487 80.5347
      vertex 69.38 115.817 82.633
      vertex 69.38 113.487 80.5347
    endloop
  endfacet
  facet normal 0 -1 0
    outer loop
      vertex 0 119.588 91.1021
      vertex 0.959999 119.588 92.67
      vertex 0 119.588 92.67
    endloop
  endfacet
  facet normal 0 -1 -0
    outer loop
      vertex 0.959999 119.588 92.67
      vertex 0 119.588 91.1021
      vertex 0.959999 119.588 91.1021
    endloop
  endfacet
  facet normal 0 -1 0
    outer loop
      vertex 69.38 119.588 91.1021
      vertex 70.34 119.588 92.67
      vertex 69.38 119.588 92.67
    endloop
  endfacet
  facet normal 0 -1 -0
    outer loop
      vertex 70.34 119.588 92.67
      vertex 69.38 119.588 91.1021
      vertex 70.34 119.588 91.1021
    endloop
  endfacet
  facet normal 0 -0.913545 0.406737
    outer loop
      vertex 0 117.66 85.17
      vertex 0.959999 118.936 88.0347
      vertex 0 118.936 88.0347
    endloop
  endfacet
  facet normal 0 -0.913545 0.406737
    outer loop
      vertex 0.959999 118.936 88.0347
      vertex 0 117.66 85.17
      vertex 0.959999 117.66 85.17
    endloop
  endfacet
  facet normal 0 -0.913545 0.406737
    outer loop
      vertex 69.38 117.66 85.17
      vertex 70.34 118.936 88.0347
      vertex 69.38 118.936 88.0347
    endloop
  endfacet
  facet normal 0 -0.913545 0.406737
    outer loop
      vertex 70.34 118.936 88.0347
      vertex 69.38 117.66 85.17
      vertex 70.34 117.66 85.17
    endloop
  endfacet
  facet normal -0 0.10453 0.994522
    outer loop
      vertex 0 104.67 77.67
      vertex 0.959999 101.551 77.9978
      vertex 0.959999 104.67 77.67
    endloop
  endfacet
  facet normal 0 0.10453 0.994522
    outer loop
      vertex 0.959999 101.551 77.9978
      vertex 0 104.67 77.67
      vertex 0 101.551 77.9978
    endloop
  endfacet
  facet normal -0 0.10453 0.994522
    outer loop
      vertex 69.38 104.67 77.67
      vertex 70.34 101.551 77.9978
      vertex 70.34 104.67 77.67
    endloop
  endfacet
  facet normal 0 0.10453 0.994522
    outer loop
      vertex 70.34 101.551 77.9978
      vertex 69.38 104.67 77.67
      vertex 69.38 101.551 77.9978
    endloop
  endfacet
  facet normal 0 -0.309017 0.951057
    outer loop
      vertex 0 110.771 78.9668
      vertex 0.959999 107.789 77.9978
      vertex 0.959999 110.771 78.9668
    endloop
  endfacet
  facet normal 0 -0.309017 0.951057
    outer loop
      vertex 0.959999 107.789 77.9978
      vertex 0 110.771 78.9668
      vertex 0 107.789 77.9978
    endloop
  endfacet
  facet normal 0 -0.309017 0.951057
    outer loop
      vertex 69.38 110.771 78.9668
      vertex 70.34 107.789 77.9978
      vertex 70.34 110.771 78.9668
    endloop
  endfacet
  facet normal 0 -0.309017 0.951057
    outer loop
      vertex 70.34 107.789 77.9978
      vertex 69.38 110.771 78.9668
      vertex 69.38 107.789 77.9978
    endloop
  endfacet
  facet normal -0 0.669131 0.743144
    outer loop
      vertex 0 95.8532 80.5347
      vertex 0.959999 93.5228 82.633
      vertex 0.959999 95.8532 80.5347
    endloop
  endfacet
  facet normal 0 0.669131 0.743144
    outer loop
      vertex 0.959999 93.5228 82.633
      vertex 0 95.8532 80.5347
      vertex 0 93.5228 82.633
    endloop
  endfacet
  facet normal -0 0.669131 0.743144
    outer loop
      vertex 69.38 95.8532 80.5347
      vertex 70.34 93.5228 82.633
      vertex 70.34 95.8532 80.5347
    endloop
  endfacet
  facet normal 0 0.669131 0.743144
    outer loop
      vertex 70.34 93.5228 82.633
      vertex 69.38 95.8532 80.5347
      vertex 69.38 93.5228 82.633
    endloop
  endfacet
  facet normal 0 -0.978147 0.207913
    outer loop
      vertex 0 118.936 88.0347
      vertex 0.959999 119.588 91.1021
      vertex 0 119.588 91.1021
    endloop
  endfacet
  facet normal 0 -0.978147 0.207913
    outer loop
      vertex 0.959999 119.588 91.1021
      vertex 0 118.936 88.0347
      vertex 0.959999 118.936 88.0347
    endloop
  endfacet
  facet normal 0 -0.978147 0.207913
    outer loop
      vertex 69.38 118.936 88.0347
      vertex 70.34 119.588 91.1021
      vertex 69.38 119.588 91.1021
    endloop
  endfacet
  facet normal 0 -0.978147 0.207913
    outer loop
      vertex 70.34 119.588 91.1021
      vertex 69.38 118.936 88.0347
      vertex 70.34 118.936 88.0347
    endloop
  endfacet
  facet normal -0 0.499999 0.866026
    outer loop
      vertex 0 98.5689 78.9668
      vertex 0.959999 95.8532 80.5347
      vertex 0.959999 98.5689 78.9668
    endloop
  endfacet
  facet normal 0 0.499999 0.866026
    outer loop
      vertex 0.959999 95.8532 80.5347
      vertex 0 98.5689 78.9668
      vertex 0 95.8532 80.5347
    endloop
  endfacet
  facet normal -0 0.499999 0.866026
    outer loop
      vertex 69.38 98.5689 78.9668
      vertex 70.34 95.8532 80.5347
      vertex 70.34 98.5689 78.9668
    endloop
  endfacet
  facet normal 0 0.499999 0.866026
    outer loop
      vertex 70.34 95.8532 80.5347
      vertex 69.38 98.5689 78.9668
      vertex 69.38 95.8532 80.5347
    endloop
  endfacet
  facet normal 0 -0.499999 0.866026
    outer loop
      vertex 0 113.487 80.5347
      vertex 0.959999 110.771 78.9668
      vertex 0.959999 113.487 80.5347
    endloop
  endfacet
  facet normal 0 -0.499999 0.866026
    outer loop
      vertex 0.959999 110.771 78.9668
      vertex 0 113.487 80.5347
      vertex 0 110.771 78.9668
    endloop
  endfacet
  facet normal 0 -0.499999 0.866026
    outer loop
      vertex 69.38 113.487 80.5347
      vertex 70.34 110.771 78.9668
      vertex 70.34 113.487 80.5347
    endloop
  endfacet
  facet normal 0 -0.499999 0.866026
    outer loop
      vertex 70.34 110.771 78.9668
      vertex 69.38 113.487 80.5347
      vertex 69.38 110.771 78.9668
    endloop
  endfacet
  facet normal -0 0.309017 0.951057
    outer loop
      vertex 0 101.551 77.9978
      vertex 0.959999 98.5689 78.9668
      vertex 0.959999 101.551 77.9978
    endloop
  endfacet
  facet normal 0 0.309017 0.951057
    outer loop
      vertex 0.959999 98.5689 78.9668
      vertex 0 101.551 77.9978
      vertex 0 98.5689 78.9668
    endloop
  endfacet
  facet normal -0 0.309017 0.951057
    outer loop
      vertex 69.38 101.551 77.9978
      vertex 70.34 98.5689 78.9668
      vertex 70.34 101.551 77.9978
    endloop
  endfacet
  facet normal 0 0.309017 0.951057
    outer loop
      vertex 70.34 98.5689 78.9668
      vertex 69.38 101.551 77.9978
      vertex 69.38 98.5689 78.9668
    endloop
  endfacet
  facet normal 0 0.809017 0.587786
    outer loop
      vertex 0.959999 93.5228 82.633
      vertex 0 91.6796 85.17
      vertex 0.959999 91.6796 85.17
    endloop
  endfacet
  facet normal 0 0.809017 0.587786
    outer loop
      vertex 0 91.6796 85.17
      vertex 0.959999 93.5228 82.633
      vertex 0 93.5228 82.633
    endloop
  endfacet
  facet normal 0 0.809017 0.587786
    outer loop
      vertex 70.34 93.5228 82.633
      vertex 69.38 91.6796 85.17
      vertex 70.34 91.6796 85.17
    endloop
  endfacet
  facet normal 0 0.809017 0.587786
    outer loop
      vertex 69.38 91.6796 85.17
      vertex 70.34 93.5228 82.633
      vertex 69.38 93.5228 82.633
    endloop
  endfacet
  facet normal 0 0.913545 0.406737
    outer loop
      vertex 0.959999 91.6796 85.17
      vertex 0 90.4042 88.0347
      vertex 0.959999 90.4042 88.0347
    endloop
  endfacet
  facet normal 0 0.913545 0.406737
    outer loop
      vertex 0 90.4042 88.0347
      vertex 0.959999 91.6796 85.17
      vertex 0 91.6796 85.17
    endloop
  endfacet
  facet normal 0 0.913545 0.406737
    outer loop
      vertex 70.34 91.6796 85.17
      vertex 69.38 90.4042 88.0347
      vertex 70.34 90.4042 88.0347
    endloop
  endfacet
  facet normal 0 0.913545 0.406737
    outer loop
      vertex 69.38 90.4042 88.0347
      vertex 70.34 91.6796 85.17
      vertex 69.38 91.6796 85.17
    endloop
  endfacet
  facet normal 0 1 -0
    outer loop
      vertex 0.959999 89.7522 91.1021
      vertex 0 89.7522 92.67
      vertex 0.959999 89.7522 92.67
    endloop
  endfacet
  facet normal 0 1 0
    outer loop
      vertex 0 89.7522 92.67
      vertex 0.959999 89.7522 91.1021
      vertex 0 89.7522 91.1021
    endloop
  endfacet
  facet normal 0 1 -0
    outer loop
      vertex 70.34 89.7522 91.1021
      vertex 69.38 89.7522 92.67
      vertex 70.34 89.7522 92.67
    endloop
  endfacet
  facet normal 0 1 0
    outer loop
      vertex 69.38 89.7522 92.67
      vertex 70.34 89.7522 91.1021
      vertex 69.38 89.7522 91.1021
    endloop
  endfacet
endsolid OpenSCAD_Model
