solid OpenSCAD_Model
  facet normal -1 0 0
    outer loop
      vertex 0 117.66 83.67
      vertex 0 209.34 91.17
      vertex 0 209.34 0
    endloop
  endfacet
  facet normal -1 0 0
    outer loop
      vertex 0 209.34 91.17
      vertex 0 118.936 86.5347
      vertex 0 119.588 89.6021
    endloop
  endfacet
  facet normal -1 0 0
    outer loop
      vertex 0 209.34 91.17
      vertex 0 117.66 83.67
      vertex 0 118.936 86.5347
    endloop
  endfacet
  facet normal -1 0 0
    outer loop
      vertex 0 209.34 0
      vertex 0 115.817 81.133
      vertex 0 117.66 83.67
    endloop
  endfacet
  facet normal -1 0 0
    outer loop
      vertex 0 209.34 0
      vertex 0 113.487 79.0347
      vertex 0 115.817 81.133
    endloop
  endfacet
  facet normal -1 0 0
    outer loop
      vertex 0 209.34 0
      vertex 0 110.771 77.4668
      vertex 0 113.487 79.0347
    endloop
  endfacet
  facet normal -1 0 0
    outer loop
      vertex 0 209.34 0
      vertex 0 107.789 76.4978
      vertex 0 110.771 77.4668
    endloop
  endfacet
  facet normal -1 0 0
    outer loop
      vertex 0 209.34 0
      vertex 0 104.67 76.17
      vertex 0 107.789 76.4978
    endloop
  endfacet
  facet normal -1 0 0
    outer loop
      vertex 0 0 0
      vertex 0 104.67 76.17
      vertex 0 209.34 0
    endloop
  endfacet
  facet normal -1 -0 0
    outer loop
      vertex 0 104.67 76.17
      vertex 0 0 0
      vertex 0 101.551 76.4978
    endloop
  endfacet
  facet normal -1 -0 0
    outer loop
      vertex 0 101.551 76.4978
      vertex 0 0 0
      vertex 0 98.5689 77.4668
    endloop
  endfacet
  facet normal -1 -0 0
    outer loop
      vertex 0 98.5689 77.4668
      vertex 0 0 0
      vertex 0 95.8532 79.0347
    endloop
  endfacet
  facet normal -1 0 0
    outer loop
      vertex 0 0 0
      vertex 0 93.5228 81.133
      vertex 0 95.8532 79.0347
    endloop
  endfacet
  facet normal -1 0 0
    outer loop
      vertex 0 0 0
      vertex 0 91.6796 83.67
      vertex 0 93.5228 81.133
    endloop
  endfacet
  facet normal -1 0 0
    outer loop
      vertex 0 0 91.17
      vertex 0 91.6796 83.67
      vertex 0 0 0
    endloop
  endfacet
  facet normal -1 0 0
    outer loop
      vertex 0 91.6796 83.67
      vertex 0 0 91.17
      vertex 0 90.4042 86.5347
    endloop
  endfacet
  facet normal -1 0 0
    outer loop
      vertex 0 90.4042 86.5347
      vertex 0 0 91.17
      vertex 0 89.7522 89.6021
    endloop
  endfacet
  facet normal -1 0 0
    outer loop
      vertex 0 89.7522 89.6021
      vertex 0 0 91.17
      vertex 0 89.7522 91.17
    endloop
  endfacet
  facet normal -1 -0 0
    outer loop
      vertex 0 209.34 91.17
      vertex 0 119.588 89.6021
      vertex 0 119.588 91.17
    endloop
  endfacet
  facet normal 0 0 1
    outer loop
      vertex 0.959999 89.7522 91.17
      vertex 0 89.7522 91.17
      vertex 0.959999 0.959999 91.17
    endloop
  endfacet
  facet normal 0 0 1
    outer loop
      vertex 67.88 0.959999 91.17
      vertex 68.84 89.7522 91.17
      vertex 67.88 89.7522 91.17
    endloop
  endfacet
  facet normal 0 0 1
    outer loop
      vertex 68.84 89.7522 91.17
      vertex 67.88 0.959999 91.17
      vertex 68.84 0 91.17
    endloop
  endfacet
  facet normal -0 0 1
    outer loop
      vertex 0.959999 0.959999 91.17
      vertex 68.84 0 91.17
      vertex 67.88 0.959999 91.17
    endloop
  endfacet
  facet normal 0 0 1
    outer loop
      vertex 0.959999 0.959999 91.17
      vertex 0 0 91.17
      vertex 68.84 0 91.17
    endloop
  endfacet
  facet normal 0 0 1
    outer loop
      vertex 0 0 91.17
      vertex 0.959999 0.959999 91.17
      vertex 0 89.7522 91.17
    endloop
  endfacet
  facet normal 0 0 1
    outer loop
      vertex 68.84 209.34 91.17
      vertex 67.88 208.38 91.17
      vertex 68.84 119.588 91.17
    endloop
  endfacet
  facet normal 0 0 1
    outer loop
      vertex 68.84 209.34 91.17
      vertex 0.959999 208.38 91.17
      vertex 67.88 208.38 91.17
    endloop
  endfacet
  facet normal -0 0 1
    outer loop
      vertex 0 209.34 91.17
      vertex 0.959999 208.38 91.17
      vertex 68.84 209.34 91.17
    endloop
  endfacet
  facet normal 0 0 1
    outer loop
      vertex 0 119.588 91.17
      vertex 0.959999 208.38 91.17
      vertex 0 209.34 91.17
    endloop
  endfacet
  facet normal 0 0 1
    outer loop
      vertex 0.959999 208.38 91.17
      vertex 0 119.588 91.17
      vertex 0.959999 119.588 91.17
    endloop
  endfacet
  facet normal 0 0 1
    outer loop
      vertex 68.84 119.588 91.17
      vertex 67.88 208.38 91.17
      vertex 67.88 119.588 91.17
    endloop
  endfacet
  facet normal 1 0 0
    outer loop
      vertex 68.84 89.7522 91.17
      vertex 68.84 0 91.17
      vertex 68.84 89.7522 89.6021
    endloop
  endfacet
  facet normal 1 0 0
    outer loop
      vertex 68.84 119.588 89.6021
      vertex 68.84 209.34 91.17
      vertex 68.84 119.588 91.17
    endloop
  endfacet
  facet normal 1 0 0
    outer loop
      vertex 68.84 118.936 86.5347
      vertex 68.84 209.34 91.17
      vertex 68.84 119.588 89.6021
    endloop
  endfacet
  facet normal 1 0 0
    outer loop
      vertex 68.84 117.66 83.67
      vertex 68.84 209.34 91.17
      vertex 68.84 118.936 86.5347
    endloop
  endfacet
  facet normal 1 0 0
    outer loop
      vertex 68.84 209.34 91.17
      vertex 68.84 117.66 83.67
      vertex 68.84 209.34 0
    endloop
  endfacet
  facet normal 1 -0 0
    outer loop
      vertex 68.84 115.817 81.133
      vertex 68.84 209.34 0
      vertex 68.84 117.66 83.67
    endloop
  endfacet
  facet normal 1 -0 0
    outer loop
      vertex 68.84 113.487 79.0347
      vertex 68.84 209.34 0
      vertex 68.84 115.817 81.133
    endloop
  endfacet
  facet normal 1 -0 0
    outer loop
      vertex 68.84 110.771 77.4668
      vertex 68.84 209.34 0
      vertex 68.84 113.487 79.0347
    endloop
  endfacet
  facet normal 1 -0 0
    outer loop
      vertex 68.84 107.789 76.4978
      vertex 68.84 209.34 0
      vertex 68.84 110.771 77.4668
    endloop
  endfacet
  facet normal 1 -0 0
    outer loop
      vertex 68.84 104.67 76.17
      vertex 68.84 209.34 0
      vertex 68.84 107.789 76.4978
    endloop
  endfacet
  facet normal 1 0 0
    outer loop
      vertex 68.84 0 0
      vertex 68.84 104.67 76.17
      vertex 68.84 101.551 76.4978
    endloop
  endfacet
  facet normal 1 0 0
    outer loop
      vertex 68.84 0 0
      vertex 68.84 101.551 76.4978
      vertex 68.84 98.5689 77.4668
    endloop
  endfacet
  facet normal 1 0 0
    outer loop
      vertex 68.84 0 0
      vertex 68.84 98.5689 77.4668
      vertex 68.84 95.8532 79.0347
    endloop
  endfacet
  facet normal 1 0 0
    outer loop
      vertex 68.84 0 91.17
      vertex 68.84 90.4042 86.5347
      vertex 68.84 89.7522 89.6021
    endloop
  endfacet
  facet normal 1 0 0
    outer loop
      vertex 68.84 0 91.17
      vertex 68.84 91.6796 83.67
      vertex 68.84 90.4042 86.5347
    endloop
  endfacet
  facet normal 1 0 0
    outer loop
      vertex 68.84 0 91.17
      vertex 68.84 93.5228 81.133
      vertex 68.84 91.6796 83.67
    endloop
  endfacet
  facet normal 1 0 0
    outer loop
      vertex 68.84 0 0
      vertex 68.84 93.5228 81.133
      vertex 68.84 0 91.17
    endloop
  endfacet
  facet normal 1 0 0
    outer loop
      vertex 68.84 93.5228 81.133
      vertex 68.84 0 0
      vertex 68.84 95.8532 79.0347
    endloop
  endfacet
  facet normal 1 0 0
    outer loop
      vertex 68.84 104.67 76.17
      vertex 68.84 0 0
      vertex 68.84 209.34 0
    endloop
  endfacet
  facet normal 0 0 -1
    outer loop
      vertex 0 0 0
      vertex 68.84 209.34 0
      vertex 68.84 0 0
    endloop
  endfacet
  facet normal -0 0 -1
    outer loop
      vertex 68.84 209.34 0
      vertex 0 0 0
      vertex 0 209.34 0
    endloop
  endfacet
  facet normal 0 -1 0
    outer loop
      vertex 0 0 0
      vertex 68.84 0 91.17
      vertex 0 0 91.17
    endloop
  endfacet
  facet normal 0 -1 -0
    outer loop
      vertex 68.84 0 91.17
      vertex 0 0 0
      vertex 68.84 0 0
    endloop
  endfacet
  facet normal 0 1 -0
    outer loop
      vertex 68.84 209.34 0
      vertex 0 209.34 91.17
      vertex 68.84 209.34 91.17
    endloop
  endfacet
  facet normal 0 1 0
    outer loop
      vertex 0 209.34 91.17
      vertex 68.84 209.34 0
      vertex 0 209.34 0
    endloop
  endfacet
  facet normal 1 0 0
    outer loop
      vertex 0.959999 89.7522 91.17
      vertex 0.959999 0.959999 91.17
      vertex 0.959999 89.7522 89.6021
    endloop
  endfacet
  facet normal 1 0 0
    outer loop
      vertex 0.959999 119.588 89.6021
      vertex 0.959999 208.38 91.17
      vertex 0.959999 119.588 91.17
    endloop
  endfacet
  facet normal 1 0 0
    outer loop
      vertex 0.959999 118.936 86.5347
      vertex 0.959999 208.38 91.17
      vertex 0.959999 119.588 89.6021
    endloop
  endfacet
  facet normal 1 0 0
    outer loop
      vertex 0.959999 117.66 83.67
      vertex 0.959999 208.38 91.17
      vertex 0.959999 118.936 86.5347
    endloop
  endfacet
  facet normal 1 0 0
    outer loop
      vertex 0.959999 208.38 91.17
      vertex 0.959999 117.66 83.67
      vertex 0.959999 208.38 0.959999
    endloop
  endfacet
  facet normal 1 -0 0
    outer loop
      vertex 0.959999 115.817 81.133
      vertex 0.959999 208.38 0.959999
      vertex 0.959999 117.66 83.67
    endloop
  endfacet
  facet normal 1 -0 0
    outer loop
      vertex 0.959999 113.487 79.0347
      vertex 0.959999 208.38 0.959999
      vertex 0.959999 115.817 81.133
    endloop
  endfacet
  facet normal 1 -0 0
    outer loop
      vertex 0.959999 110.771 77.4668
      vertex 0.959999 208.38 0.959999
      vertex 0.959999 113.487 79.0347
    endloop
  endfacet
  facet normal 1 -0 0
    outer loop
      vertex 0.959999 107.789 76.4978
      vertex 0.959999 208.38 0.959999
      vertex 0.959999 110.771 77.4668
    endloop
  endfacet
  facet normal 1 -0 0
    outer loop
      vertex 0.959999 104.67 76.17
      vertex 0.959999 208.38 0.959999
      vertex 0.959999 107.789 76.4978
    endloop
  endfacet
  facet normal 1 0 0
    outer loop
      vertex 0.959999 0.959999 0.959999
      vertex 0.959999 104.67 76.17
      vertex 0.959999 101.551 76.4978
    endloop
  endfacet
  facet normal 1 0 0
    outer loop
      vertex 0.959999 0.959999 0.959999
      vertex 0.959999 101.551 76.4978
      vertex 0.959999 98.5689 77.4668
    endloop
  endfacet
  facet normal 1 0 0
    outer loop
      vertex 0.959999 0.959999 0.959999
      vertex 0.959999 98.5689 77.4668
      vertex 0.959999 95.8532 79.0347
    endloop
  endfacet
  facet normal 1 0 0
    outer loop
      vertex 0.959999 0.959999 91.17
      vertex 0.959999 90.4042 86.5347
      vertex 0.959999 89.7522 89.6021
    endloop
  endfacet
  facet normal 1 0 0
    outer loop
      vertex 0.959999 0.959999 91.17
      vertex 0.959999 91.6796 83.67
      vertex 0.959999 90.4042 86.5347
    endloop
  endfacet
  facet normal 1 0 0
    outer loop
      vertex 0.959999 0.959999 91.17
      vertex 0.959999 93.5228 81.133
      vertex 0.959999 91.6796 83.67
    endloop
  endfacet
  facet normal 1 0 0
    outer loop
      vertex 0.959999 0.959999 0.959999
      vertex 0.959999 93.5228 81.133
      vertex 0.959999 0.959999 91.17
    endloop
  endfacet
  facet normal 1 0 0
    outer loop
      vertex 0.959999 93.5228 81.133
      vertex 0.959999 0.959999 0.959999
      vertex 0.959999 95.8532 79.0347
    endloop
  endfacet
  facet normal 1 0 0
    outer loop
      vertex 0.959999 104.67 76.17
      vertex 0.959999 0.959999 0.959999
      vertex 0.959999 208.38 0.959999
    endloop
  endfacet
  facet normal -1 0 0
    outer loop
      vertex 67.88 117.66 83.67
      vertex 67.88 208.38 91.17
      vertex 67.88 208.38 0.959999
    endloop
  endfacet
  facet normal -1 0 0
    outer loop
      vertex 67.88 208.38 91.17
      vertex 67.88 118.936 86.5347
      vertex 67.88 119.588 89.6021
    endloop
  endfacet
  facet normal -1 0 0
    outer loop
      vertex 67.88 208.38 91.17
      vertex 67.88 117.66 83.67
      vertex 67.88 118.936 86.5347
    endloop
  endfacet
  facet normal -1 0 0
    outer loop
      vertex 67.88 208.38 0.959999
      vertex 67.88 115.817 81.133
      vertex 67.88 117.66 83.67
    endloop
  endfacet
  facet normal -1 0 0
    outer loop
      vertex 67.88 208.38 0.959999
      vertex 67.88 113.487 79.0347
      vertex 67.88 115.817 81.133
    endloop
  endfacet
  facet normal -1 0 0
    outer loop
      vertex 67.88 208.38 0.959999
      vertex 67.88 110.771 77.4668
      vertex 67.88 113.487 79.0347
    endloop
  endfacet
  facet normal -1 0 0
    outer loop
      vertex 67.88 208.38 0.959999
      vertex 67.88 107.789 76.4978
      vertex 67.88 110.771 77.4668
    endloop
  endfacet
  facet normal -1 0 0
    outer loop
      vertex 67.88 208.38 0.959999
      vertex 67.88 104.67 76.17
      vertex 67.88 107.789 76.4978
    endloop
  endfacet
  facet normal -1 0 0
    outer loop
      vertex 67.88 0.959999 0.959999
      vertex 67.88 104.67 76.17
      vertex 67.88 208.38 0.959999
    endloop
  endfacet
  facet normal -1 -0 0
    outer loop
      vertex 67.88 104.67 76.17
      vertex 67.88 0.959999 0.959999
      vertex 67.88 101.551 76.4978
    endloop
  endfacet
  facet normal -1 -0 0
    outer loop
      vertex 67.88 101.551 76.4978
      vertex 67.88 0.959999 0.959999
      vertex 67.88 98.5689 77.4668
    endloop
  endfacet
  facet normal -1 -0 0
    outer loop
      vertex 67.88 98.5689 77.4668
      vertex 67.88 0.959999 0.959999
      vertex 67.88 95.8532 79.0347
    endloop
  endfacet
  facet normal -1 0 0
    outer loop
      vertex 67.88 0.959999 0.959999
      vertex 67.88 93.5228 81.133
      vertex 67.88 95.8532 79.0347
    endloop
  endfacet
  facet normal -1 0 0
    outer loop
      vertex 67.88 0.959999 0.959999
      vertex 67.88 91.6796 83.67
      vertex 67.88 93.5228 81.133
    endloop
  endfacet
  facet normal -1 0 0
    outer loop
      vertex 67.88 0.959999 91.17
      vertex 67.88 91.6796 83.67
      vertex 67.88 0.959999 0.959999
    endloop
  endfacet
  facet normal -1 0 0
    outer loop
      vertex 67.88 91.6796 83.67
      vertex 67.88 0.959999 91.17
      vertex 67.88 90.4042 86.5347
    endloop
  endfacet
  facet normal -1 0 0
    outer loop
      vertex 67.88 90.4042 86.5347
      vertex 67.88 0.959999 91.17
      vertex 67.88 89.7522 89.6021
    endloop
  endfacet
  facet normal -1 0 0
    outer loop
      vertex 67.88 89.7522 89.6021
      vertex 67.88 0.959999 91.17
      vertex 67.88 89.7522 91.17
    endloop
  endfacet
  facet normal -1 -0 0
    outer loop
      vertex 67.88 208.38 91.17
      vertex 67.88 119.588 89.6021
      vertex 67.88 119.588 91.17
    endloop
  endfacet
  facet normal -0 0 1
    outer loop
      vertex 0.959999 208.38 0.959999
      vertex 67.88 0.959999 0.959999
      vertex 67.88 208.38 0.959999
    endloop
  endfacet
  facet normal 0 0 1
    outer loop
      vertex 67.88 0.959999 0.959999
      vertex 0.959999 208.38 0.959999
      vertex 0.959999 0.959999 0.959999
    endloop
  endfacet
  facet normal 0 1 -0
    outer loop
      vertex 67.88 0.959999 0.959999
      vertex 0.959999 0.959999 91.17
      vertex 67.88 0.959999 91.17
    endloop
  endfacet
  facet normal 0 1 0
    outer loop
      vertex 0.959999 0.959999 91.17
      vertex 67.88 0.959999 0.959999
      vertex 0.959999 0.959999 0.959999
    endloop
  endfacet
  facet normal 0 -1 0
    outer loop
      vertex 0.959999 208.38 0.959999
      vertex 67.88 208.38 91.17
      vertex 0.959999 208.38 91.17
    endloop
  endfacet
  facet normal 0 -1 -0
    outer loop
      vertex 67.88 208.38 91.17
      vertex 0.959999 208.38 0.959999
      vertex 67.88 208.38 0.959999
    endloop
  endfacet
  facet normal -0 0.499999 0.866026
    outer loop
      vertex 0 98.5689 77.4668
      vertex 0.959999 95.8532 79.0347
      vertex 0.959999 98.5689 77.4668
    endloop
  endfacet
  facet normal 0 0.499999 0.866026
    outer loop
      vertex 0.959999 95.8532 79.0347
      vertex 0 98.5689 77.4668
      vertex 0 95.8532 79.0347
    endloop
  endfacet
  facet normal -0 0.499999 0.866026
    outer loop
      vertex 67.88 98.5689 77.4668
      vertex 68.84 95.8532 79.0347
      vertex 68.84 98.5689 77.4668
    endloop
  endfacet
  facet normal 0 0.499999 0.866026
    outer loop
      vertex 68.84 95.8532 79.0347
      vertex 67.88 98.5689 77.4668
      vertex 67.88 95.8532 79.0347
    endloop
  endfacet
  facet normal -0 0.10453 0.994522
    outer loop
      vertex 0 104.67 76.17
      vertex 0.959999 101.551 76.4978
      vertex 0.959999 104.67 76.17
    endloop
  endfacet
  facet normal 0 0.10453 0.994522
    outer loop
      vertex 0.959999 101.551 76.4978
      vertex 0 104.67 76.17
      vertex 0 101.551 76.4978
    endloop
  endfacet
  facet normal -0 0.10453 0.994522
    outer loop
      vertex 67.88 104.67 76.17
      vertex 68.84 101.551 76.4978
      vertex 68.84 104.67 76.17
    endloop
  endfacet
  facet normal 0 0.10453 0.994522
    outer loop
      vertex 68.84 101.551 76.4978
      vertex 67.88 104.67 76.17
      vertex 67.88 101.551 76.4978
    endloop
  endfacet
  facet normal 0 -1 0
    outer loop
      vertex 0 119.588 89.6021
      vertex 0.959999 119.588 91.17
      vertex 0 119.588 91.17
    endloop
  endfacet
  facet normal 0 -1 -0
    outer loop
      vertex 0.959999 119.588 91.17
      vertex 0 119.588 89.6021
      vertex 0.959999 119.588 89.6021
    endloop
  endfacet
  facet normal 0 -1 0
    outer loop
      vertex 67.88 119.588 89.6021
      vertex 68.84 119.588 91.17
      vertex 67.88 119.588 91.17
    endloop
  endfacet
  facet normal 0 -1 -0
    outer loop
      vertex 68.84 119.588 91.17
      vertex 67.88 119.588 89.6021
      vertex 68.84 119.588 89.6021
    endloop
  endfacet
  facet normal 0 -0.978147 0.207913
    outer loop
      vertex 0 118.936 86.5347
      vertex 0.959999 119.588 89.6021
      vertex 0 119.588 89.6021
    endloop
  endfacet
  facet normal 0 -0.978147 0.207913
    outer loop
      vertex 0.959999 119.588 89.6021
      vertex 0 118.936 86.5347
      vertex 0.959999 118.936 86.5347
    endloop
  endfacet
  facet normal 0 -0.978147 0.207913
    outer loop
      vertex 67.88 118.936 86.5347
      vertex 68.84 119.588 89.6021
      vertex 67.88 119.588 89.6021
    endloop
  endfacet
  facet normal 0 -0.978147 0.207913
    outer loop
      vertex 68.84 119.588 89.6021
      vertex 67.88 118.936 86.5347
      vertex 68.84 118.936 86.5347
    endloop
  endfacet
  facet normal 0 0.913545 0.406737
    outer loop
      vertex 0.959999 91.6796 83.67
      vertex 0 90.4042 86.5347
      vertex 0.959999 90.4042 86.5347
    endloop
  endfacet
  facet normal 0 0.913545 0.406737
    outer loop
      vertex 0 90.4042 86.5347
      vertex 0.959999 91.6796 83.67
      vertex 0 91.6796 83.67
    endloop
  endfacet
  facet normal 0 0.913545 0.406737
    outer loop
      vertex 68.84 91.6796 83.67
      vertex 67.88 90.4042 86.5347
      vertex 68.84 90.4042 86.5347
    endloop
  endfacet
  facet normal 0 0.913545 0.406737
    outer loop
      vertex 67.88 90.4042 86.5347
      vertex 68.84 91.6796 83.67
      vertex 67.88 91.6796 83.67
    endloop
  endfacet
  facet normal 0 -0.913545 0.406737
    outer loop
      vertex 0 117.66 83.67
      vertex 0.959999 118.936 86.5347
      vertex 0 118.936 86.5347
    endloop
  endfacet
  facet normal 0 -0.913545 0.406737
    outer loop
      vertex 0.959999 118.936 86.5347
      vertex 0 117.66 83.67
      vertex 0.959999 117.66 83.67
    endloop
  endfacet
  facet normal 0 -0.913545 0.406737
    outer loop
      vertex 67.88 117.66 83.67
      vertex 68.84 118.936 86.5347
      vertex 67.88 118.936 86.5347
    endloop
  endfacet
  facet normal 0 -0.913545 0.406737
    outer loop
      vertex 68.84 118.936 86.5347
      vertex 67.88 117.66 83.67
      vertex 68.84 117.66 83.67
    endloop
  endfacet
  facet normal 0 -0.10453 0.994522
    outer loop
      vertex 0 107.789 76.4978
      vertex 0.959999 104.67 76.17
      vertex 0.959999 107.789 76.4978
    endloop
  endfacet
  facet normal 0 -0.10453 0.994522
    outer loop
      vertex 0.959999 104.67 76.17
      vertex 0 107.789 76.4978
      vertex 0 104.67 76.17
    endloop
  endfacet
  facet normal 0 -0.10453 0.994522
    outer loop
      vertex 67.88 107.789 76.4978
      vertex 68.84 104.67 76.17
      vertex 68.84 107.789 76.4978
    endloop
  endfacet
  facet normal 0 -0.10453 0.994522
    outer loop
      vertex 68.84 104.67 76.17
      vertex 67.88 107.789 76.4978
      vertex 67.88 104.67 76.17
    endloop
  endfacet
  facet normal -0 0.309017 0.951057
    outer loop
      vertex 0 101.551 76.4978
      vertex 0.959999 98.5689 77.4668
      vertex 0.959999 101.551 76.4978
    endloop
  endfacet
  facet normal 0 0.309017 0.951057
    outer loop
      vertex 0.959999 98.5689 77.4668
      vertex 0 101.551 76.4978
      vertex 0 98.5689 77.4668
    endloop
  endfacet
  facet normal -0 0.309017 0.951057
    outer loop
      vertex 67.88 101.551 76.4978
      vertex 68.84 98.5689 77.4668
      vertex 68.84 101.551 76.4978
    endloop
  endfacet
  facet normal 0 0.309017 0.951057
    outer loop
      vertex 68.84 98.5689 77.4668
      vertex 67.88 101.551 76.4978
      vertex 67.88 98.5689 77.4668
    endloop
  endfacet
  facet normal 0 -0.669131 0.743144
    outer loop
      vertex 0 115.817 81.133
      vertex 0.959999 113.487 79.0347
      vertex 0.959999 115.817 81.133
    endloop
  endfacet
  facet normal 0 -0.669131 0.743144
    outer loop
      vertex 0.959999 113.487 79.0347
      vertex 0 115.817 81.133
      vertex 0 113.487 79.0347
    endloop
  endfacet
  facet normal 0 -0.669131 0.743144
    outer loop
      vertex 67.88 115.817 81.133
      vertex 68.84 113.487 79.0347
      vertex 68.84 115.817 81.133
    endloop
  endfacet
  facet normal 0 -0.669131 0.743144
    outer loop
      vertex 68.84 113.487 79.0347
      vertex 67.88 115.817 81.133
      vertex 67.88 113.487 79.0347
    endloop
  endfacet
  facet normal 0 -0.309017 0.951057
    outer loop
      vertex 0 110.771 77.4668
      vertex 0.959999 107.789 76.4978
      vertex 0.959999 110.771 77.4668
    endloop
  endfacet
  facet normal 0 -0.309017 0.951057
    outer loop
      vertex 0.959999 107.789 76.4978
      vertex 0 110.771 77.4668
      vertex 0 107.789 76.4978
    endloop
  endfacet
  facet normal 0 -0.309017 0.951057
    outer loop
      vertex 67.88 110.771 77.4668
      vertex 68.84 107.789 76.4978
      vertex 68.84 110.771 77.4668
    endloop
  endfacet
  facet normal 0 -0.309017 0.951057
    outer loop
      vertex 68.84 107.789 76.4978
      vertex 67.88 110.771 77.4668
      vertex 67.88 107.789 76.4978
    endloop
  endfacet
  facet normal -0 0.669131 0.743144
    outer loop
      vertex 0 95.8532 79.0347
      vertex 0.959999 93.5228 81.133
      vertex 0.959999 95.8532 79.0347
    endloop
  endfacet
  facet normal 0 0.669131 0.743144
    outer loop
      vertex 0.959999 93.5228 81.133
      vertex 0 95.8532 79.0347
      vertex 0 93.5228 81.133
    endloop
  endfacet
  facet normal -0 0.669131 0.743144
    outer loop
      vertex 67.88 95.8532 79.0347
      vertex 68.84 93.5228 81.133
      vertex 68.84 95.8532 79.0347
    endloop
  endfacet
  facet normal 0 0.669131 0.743144
    outer loop
      vertex 68.84 93.5228 81.133
      vertex 67.88 95.8532 79.0347
      vertex 67.88 93.5228 81.133
    endloop
  endfacet
  facet normal 0 -0.809017 0.587786
    outer loop
      vertex 0 115.817 81.133
      vertex 0.959999 117.66 83.67
      vertex 0 117.66 83.67
    endloop
  endfacet
  facet normal 0 -0.809017 0.587786
    outer loop
      vertex 0.959999 117.66 83.67
      vertex 0 115.817 81.133
      vertex 0.959999 115.817 81.133
    endloop
  endfacet
  facet normal 0 -0.809017 0.587786
    outer loop
      vertex 67.88 115.817 81.133
      vertex 68.84 117.66 83.67
      vertex 67.88 117.66 83.67
    endloop
  endfacet
  facet normal 0 -0.809017 0.587786
    outer loop
      vertex 68.84 117.66 83.67
      vertex 67.88 115.817 81.133
      vertex 68.84 115.817 81.133
    endloop
  endfacet
  facet normal 0 -0.499999 0.866026
    outer loop
      vertex 0 113.487 79.0347
      vertex 0.959999 110.771 77.4668
      vertex 0.959999 113.487 79.0347
    endloop
  endfacet
  facet normal 0 -0.499999 0.866026
    outer loop
      vertex 0.959999 110.771 77.4668
      vertex 0 113.487 79.0347
      vertex 0 110.771 77.4668
    endloop
  endfacet
  facet normal 0 -0.499999 0.866026
    outer loop
      vertex 67.88 113.487 79.0347
      vertex 68.84 110.771 77.4668
      vertex 68.84 113.487 79.0347
    endloop
  endfacet
  facet normal 0 -0.499999 0.866026
    outer loop
      vertex 68.84 110.771 77.4668
      vertex 67.88 113.487 79.0347
      vertex 67.88 110.771 77.4668
    endloop
  endfacet
  facet normal 0 0.978148 0.207911
    outer loop
      vertex 0.959999 90.4042 86.5347
      vertex 0 89.7522 89.6021
      vertex 0.959999 89.7522 89.6021
    endloop
  endfacet
  facet normal 0 0.978148 0.207911
    outer loop
      vertex 0 89.7522 89.6021
      vertex 0.959999 90.4042 86.5347
      vertex 0 90.4042 86.5347
    endloop
  endfacet
  facet normal 0 0.978148 0.207911
    outer loop
      vertex 68.84 90.4042 86.5347
      vertex 67.88 89.7522 89.6021
      vertex 68.84 89.7522 89.6021
    endloop
  endfacet
  facet normal 0 0.978148 0.207911
    outer loop
      vertex 67.88 89.7522 89.6021
      vertex 68.84 90.4042 86.5347
      vertex 67.88 90.4042 86.5347
    endloop
  endfacet
  facet normal 0 0.809017 0.587786
    outer loop
      vertex 0.959999 93.5228 81.133
      vertex 0 91.6796 83.67
      vertex 0.959999 91.6796 83.67
    endloop
  endfacet
  facet normal 0 0.809017 0.587786
    outer loop
      vertex 0 91.6796 83.67
      vertex 0.959999 93.5228 81.133
      vertex 0 93.5228 81.133
    endloop
  endfacet
  facet normal 0 0.809017 0.587786
    outer loop
      vertex 68.84 93.5228 81.133
      vertex 67.88 91.6796 83.67
      vertex 68.84 91.6796 83.67
    endloop
  endfacet
  facet normal 0 0.809017 0.587786
    outer loop
      vertex 67.88 91.6796 83.67
      vertex 68.84 93.5228 81.133
      vertex 67.88 93.5228 81.133
    endloop
  endfacet
  facet normal 0 1 -0
    outer loop
      vertex 0.959999 89.7522 89.6021
      vertex 0 89.7522 91.17
      vertex 0.959999 89.7522 91.17
    endloop
  endfacet
  facet normal 0 1 0
    outer loop
      vertex 0 89.7522 91.17
      vertex 0.959999 89.7522 89.6021
      vertex 0 89.7522 89.6021
    endloop
  endfacet
  facet normal 0 1 -0
    outer loop
      vertex 68.84 89.7522 89.6021
      vertex 67.88 89.7522 91.17
      vertex 68.84 89.7522 91.17
    endloop
  endfacet
  facet normal 0 1 0
    outer loop
      vertex 67.88 89.7522 91.17
      vertex 68.84 89.7522 89.6021
      vertex 67.88 89.7522 89.6021
    endloop
  endfacet
endsolid OpenSCAD_Model
