solid OpenSCAD_Model
  facet normal -1 0 0
    outer loop
      vertex 0 53.9868 79.0347
      vertex 0 90.34 91.17
      vertex 0 90.34 0
    endloop
  endfacet
  facet normal -1 0 0
    outer loop
      vertex 0 90.34 91.17
      vertex 0 59.4358 86.5347
      vertex 0 60.0878 89.6021
    endloop
  endfacet
  facet normal -1 0 0
    outer loop
      vertex 0 90.34 91.17
      vertex 0 58.1604 83.67
      vertex 0 59.4358 86.5347
    endloop
  endfacet
  facet normal -1 0 0
    outer loop
      vertex 0 90.34 91.17
      vertex 0 56.3172 81.133
      vertex 0 58.1604 83.67
    endloop
  endfacet
  facet normal -1 0 0
    outer loop
      vertex 0 90.34 91.17
      vertex 0 53.9868 79.0347
      vertex 0 56.3172 81.133
    endloop
  endfacet
  facet normal -1 0 0
    outer loop
      vertex 0 90.34 0
      vertex 0 51.271 77.4668
      vertex 0 53.9868 79.0347
    endloop
  endfacet
  facet normal -1 0 0
    outer loop
      vertex 0 90.34 0
      vertex 0 48.2887 76.4978
      vertex 0 51.271 77.4668
    endloop
  endfacet
  facet normal -1 0 0
    outer loop
      vertex 0 90.34 0
      vertex 0 45.17 76.17
      vertex 0 48.2887 76.4978
    endloop
  endfacet
  facet normal -1 0 0
    outer loop
      vertex 0 0 0
      vertex 0 45.17 76.17
      vertex 0 90.34 0
    endloop
  endfacet
  facet normal -1 -0 0
    outer loop
      vertex 0 45.17 76.17
      vertex 0 0 0
      vertex 0 42.0513 76.4978
    endloop
  endfacet
  facet normal -1 -0 0
    outer loop
      vertex 0 42.0513 76.4978
      vertex 0 0 0
      vertex 0 39.069 77.4668
    endloop
  endfacet
  facet normal -1 -0 0
    outer loop
      vertex 0 39.069 77.4668
      vertex 0 0 0
      vertex 0 36.3532 79.0347
    endloop
  endfacet
  facet normal -1 0 0
    outer loop
      vertex 0 0 91.17
      vertex 0 36.3532 79.0347
      vertex 0 0 0
    endloop
  endfacet
  facet normal -1 0 0
    outer loop
      vertex 0 36.3532 79.0347
      vertex 0 0 91.17
      vertex 0 34.0228 81.133
    endloop
  endfacet
  facet normal -1 0 0
    outer loop
      vertex 0 34.0228 81.133
      vertex 0 0 91.17
      vertex 0 32.1796 83.67
    endloop
  endfacet
  facet normal -1 0 0
    outer loop
      vertex 0 32.1796 83.67
      vertex 0 0 91.17
      vertex 0 30.9042 86.5347
    endloop
  endfacet
  facet normal -1 0 0
    outer loop
      vertex 0 30.9042 86.5347
      vertex 0 0 91.17
      vertex 0 30.2522 89.6021
    endloop
  endfacet
  facet normal -1 0 0
    outer loop
      vertex 0 30.2522 89.6021
      vertex 0 0 91.17
      vertex 0 30.2522 91.17
    endloop
  endfacet
  facet normal -1 -0 0
    outer loop
      vertex 0 90.34 91.17
      vertex 0 60.0878 89.6021
      vertex 0 60.0878 91.17
    endloop
  endfacet
  facet normal 0 0 1
    outer loop
      vertex 0.959999 30.2522 91.17
      vertex 0 30.2522 91.17
      vertex 0.959999 0.959999 91.17
    endloop
  endfacet
  facet normal 0 0 1
    outer loop
      vertex 67.88 0.959999 91.17
      vertex 68.84 30.2522 91.17
      vertex 67.88 30.2522 91.17
    endloop
  endfacet
  facet normal 0 0 1
    outer loop
      vertex 68.84 30.2522 91.17
      vertex 67.88 0.959999 91.17
      vertex 68.84 0 91.17
    endloop
  endfacet
  facet normal -0 0 1
    outer loop
      vertex 0.959999 0.959999 91.17
      vertex 68.84 0 91.17
      vertex 67.88 0.959999 91.17
    endloop
  endfacet
  facet normal 0 0 1
    outer loop
      vertex 0.959999 0.959999 91.17
      vertex 0 0 91.17
      vertex 68.84 0 91.17
    endloop
  endfacet
  facet normal 0 0 1
    outer loop
      vertex 0 0 91.17
      vertex 0.959999 0.959999 91.17
      vertex 0 30.2522 91.17
    endloop
  endfacet
  facet normal 0 0 1
    outer loop
      vertex 68.84 90.34 91.17
      vertex 67.88 89.38 91.17
      vertex 68.84 60.0878 91.17
    endloop
  endfacet
  facet normal 0 0 1
    outer loop
      vertex 68.84 90.34 91.17
      vertex 0.959999 89.38 91.17
      vertex 67.88 89.38 91.17
    endloop
  endfacet
  facet normal -0 0 1
    outer loop
      vertex 0 90.34 91.17
      vertex 0.959999 89.38 91.17
      vertex 68.84 90.34 91.17
    endloop
  endfacet
  facet normal 0 0 1
    outer loop
      vertex 0 60.0878 91.17
      vertex 0.959999 89.38 91.17
      vertex 0 90.34 91.17
    endloop
  endfacet
  facet normal 0 0 1
    outer loop
      vertex 0.959999 89.38 91.17
      vertex 0 60.0878 91.17
      vertex 0.959999 60.0878 91.17
    endloop
  endfacet
  facet normal 0 0 1
    outer loop
      vertex 68.84 60.0878 91.17
      vertex 67.88 89.38 91.17
      vertex 67.88 60.0878 91.17
    endloop
  endfacet
  facet normal 1 0 0
    outer loop
      vertex 68.84 30.2522 91.17
      vertex 68.84 0 91.17
      vertex 68.84 30.2522 89.6021
    endloop
  endfacet
  facet normal 1 0 0
    outer loop
      vertex 68.84 60.0878 89.6021
      vertex 68.84 90.34 91.17
      vertex 68.84 60.0878 91.17
    endloop
  endfacet
  facet normal 1 0 0
    outer loop
      vertex 68.84 59.4358 86.5347
      vertex 68.84 90.34 91.17
      vertex 68.84 60.0878 89.6021
    endloop
  endfacet
  facet normal 1 0 0
    outer loop
      vertex 68.84 58.1604 83.67
      vertex 68.84 90.34 91.17
      vertex 68.84 59.4358 86.5347
    endloop
  endfacet
  facet normal 1 0 0
    outer loop
      vertex 68.84 56.3172 81.133
      vertex 68.84 90.34 91.17
      vertex 68.84 58.1604 83.67
    endloop
  endfacet
  facet normal 1 0 0
    outer loop
      vertex 68.84 53.9868 79.0347
      vertex 68.84 90.34 91.17
      vertex 68.84 56.3172 81.133
    endloop
  endfacet
  facet normal 1 0 0
    outer loop
      vertex 68.84 90.34 91.17
      vertex 68.84 53.9868 79.0347
      vertex 68.84 90.34 0
    endloop
  endfacet
  facet normal 1 -0 0
    outer loop
      vertex 68.84 51.271 77.4668
      vertex 68.84 90.34 0
      vertex 68.84 53.9868 79.0347
    endloop
  endfacet
  facet normal 1 -0 0
    outer loop
      vertex 68.84 48.2887 76.4978
      vertex 68.84 90.34 0
      vertex 68.84 51.271 77.4668
    endloop
  endfacet
  facet normal 1 -0 0
    outer loop
      vertex 68.84 45.17 76.17
      vertex 68.84 90.34 0
      vertex 68.84 48.2887 76.4978
    endloop
  endfacet
  facet normal 1 0 0
    outer loop
      vertex 68.84 0 0
      vertex 68.84 45.17 76.17
      vertex 68.84 42.0513 76.4978
    endloop
  endfacet
  facet normal 1 0 0
    outer loop
      vertex 68.84 0 0
      vertex 68.84 42.0513 76.4978
      vertex 68.84 39.069 77.4668
    endloop
  endfacet
  facet normal 1 0 0
    outer loop
      vertex 68.84 0 0
      vertex 68.84 39.069 77.4668
      vertex 68.84 36.3532 79.0347
    endloop
  endfacet
  facet normal 1 0 0
    outer loop
      vertex 68.84 0 91.17
      vertex 68.84 36.3532 79.0347
      vertex 68.84 34.0228 81.133
    endloop
  endfacet
  facet normal 1 0 0
    outer loop
      vertex 68.84 0 91.17
      vertex 68.84 34.0228 81.133
      vertex 68.84 32.1796 83.67
    endloop
  endfacet
  facet normal 1 0 0
    outer loop
      vertex 68.84 0 91.17
      vertex 68.84 30.9042 86.5347
      vertex 68.84 30.2522 89.6021
    endloop
  endfacet
  facet normal 1 0 0
    outer loop
      vertex 68.84 0 91.17
      vertex 68.84 32.1796 83.67
      vertex 68.84 30.9042 86.5347
    endloop
  endfacet
  facet normal 1 0 0
    outer loop
      vertex 68.84 36.3532 79.0347
      vertex 68.84 0 91.17
      vertex 68.84 0 0
    endloop
  endfacet
  facet normal 1 0 0
    outer loop
      vertex 68.84 45.17 76.17
      vertex 68.84 0 0
      vertex 68.84 90.34 0
    endloop
  endfacet
  facet normal 0 1 -0
    outer loop
      vertex 68.84 90.34 0
      vertex 0 90.34 91.17
      vertex 68.84 90.34 91.17
    endloop
  endfacet
  facet normal 0 1 0
    outer loop
      vertex 0 90.34 91.17
      vertex 68.84 90.34 0
      vertex 0 90.34 0
    endloop
  endfacet
  facet normal 0 0 -1
    outer loop
      vertex 0 0 0
      vertex 68.84 90.34 0
      vertex 68.84 0 0
    endloop
  endfacet
  facet normal -0 0 -1
    outer loop
      vertex 68.84 90.34 0
      vertex 0 0 0
      vertex 0 90.34 0
    endloop
  endfacet
  facet normal 0 -1 0
    outer loop
      vertex 0 0 0
      vertex 68.84 0 91.17
      vertex 0 0 91.17
    endloop
  endfacet
  facet normal 0 -1 -0
    outer loop
      vertex 68.84 0 91.17
      vertex 0 0 0
      vertex 68.84 0 0
    endloop
  endfacet
  facet normal 1 0 0
    outer loop
      vertex 0.959999 30.2522 91.17
      vertex 0.959999 0.959999 91.17
      vertex 0.959999 30.2522 89.6021
    endloop
  endfacet
  facet normal 1 0 0
    outer loop
      vertex 0.959999 60.0878 89.6021
      vertex 0.959999 89.38 91.17
      vertex 0.959999 60.0878 91.17
    endloop
  endfacet
  facet normal 1 0 0
    outer loop
      vertex 0.959999 59.4358 86.5347
      vertex 0.959999 89.38 91.17
      vertex 0.959999 60.0878 89.6021
    endloop
  endfacet
  facet normal 1 0 0
    outer loop
      vertex 0.959999 58.1604 83.67
      vertex 0.959999 89.38 91.17
      vertex 0.959999 59.4358 86.5347
    endloop
  endfacet
  facet normal 1 0 0
    outer loop
      vertex 0.959999 56.3172 81.133
      vertex 0.959999 89.38 91.17
      vertex 0.959999 58.1604 83.67
    endloop
  endfacet
  facet normal 1 0 0
    outer loop
      vertex 0.959999 53.9868 79.0347
      vertex 0.959999 89.38 91.17
      vertex 0.959999 56.3172 81.133
    endloop
  endfacet
  facet normal 1 0 0
    outer loop
      vertex 0.959999 89.38 91.17
      vertex 0.959999 53.9868 79.0347
      vertex 0.959999 89.38 0.959999
    endloop
  endfacet
  facet normal 1 -0 0
    outer loop
      vertex 0.959999 51.271 77.4668
      vertex 0.959999 89.38 0.959999
      vertex 0.959999 53.9868 79.0347
    endloop
  endfacet
  facet normal 1 -0 0
    outer loop
      vertex 0.959999 48.2887 76.4978
      vertex 0.959999 89.38 0.959999
      vertex 0.959999 51.271 77.4668
    endloop
  endfacet
  facet normal 1 -0 0
    outer loop
      vertex 0.959999 45.17 76.17
      vertex 0.959999 89.38 0.959999
      vertex 0.959999 48.2887 76.4978
    endloop
  endfacet
  facet normal 1 0 0
    outer loop
      vertex 0.959999 0.959999 0.959999
      vertex 0.959999 45.17 76.17
      vertex 0.959999 42.0513 76.4978
    endloop
  endfacet
  facet normal 1 0 0
    outer loop
      vertex 0.959999 0.959999 0.959999
      vertex 0.959999 42.0513 76.4978
      vertex 0.959999 39.069 77.4668
    endloop
  endfacet
  facet normal 1 0 0
    outer loop
      vertex 0.959999 0.959999 0.959999
      vertex 0.959999 39.069 77.4668
      vertex 0.959999 36.3532 79.0347
    endloop
  endfacet
  facet normal 1 0 0
    outer loop
      vertex 0.959999 0.959999 91.17
      vertex 0.959999 36.3532 79.0347
      vertex 0.959999 34.0228 81.133
    endloop
  endfacet
  facet normal 1 0 0
    outer loop
      vertex 0.959999 0.959999 91.17
      vertex 0.959999 34.0228 81.133
      vertex 0.959999 32.1796 83.67
    endloop
  endfacet
  facet normal 1 0 0
    outer loop
      vertex 0.959999 0.959999 91.17
      vertex 0.959999 30.9042 86.5347
      vertex 0.959999 30.2522 89.6021
    endloop
  endfacet
  facet normal 1 0 0
    outer loop
      vertex 0.959999 0.959999 91.17
      vertex 0.959999 32.1796 83.67
      vertex 0.959999 30.9042 86.5347
    endloop
  endfacet
  facet normal 1 0 0
    outer loop
      vertex 0.959999 36.3532 79.0347
      vertex 0.959999 0.959999 91.17
      vertex 0.959999 0.959999 0.959999
    endloop
  endfacet
  facet normal 1 0 0
    outer loop
      vertex 0.959999 45.17 76.17
      vertex 0.959999 0.959999 0.959999
      vertex 0.959999 89.38 0.959999
    endloop
  endfacet
  facet normal -1 0 0
    outer loop
      vertex 67.88 53.9868 79.0347
      vertex 67.88 89.38 91.17
      vertex 67.88 89.38 0.959999
    endloop
  endfacet
  facet normal -1 0 0
    outer loop
      vertex 67.88 89.38 91.17
      vertex 67.88 59.4358 86.5347
      vertex 67.88 60.0878 89.6021
    endloop
  endfacet
  facet normal -1 0 0
    outer loop
      vertex 67.88 89.38 91.17
      vertex 67.88 58.1604 83.67
      vertex 67.88 59.4358 86.5347
    endloop
  endfacet
  facet normal -1 0 0
    outer loop
      vertex 67.88 89.38 91.17
      vertex 67.88 56.3172 81.133
      vertex 67.88 58.1604 83.67
    endloop
  endfacet
  facet normal -1 0 0
    outer loop
      vertex 67.88 89.38 91.17
      vertex 67.88 53.9868 79.0347
      vertex 67.88 56.3172 81.133
    endloop
  endfacet
  facet normal -1 0 0
    outer loop
      vertex 67.88 89.38 0.959999
      vertex 67.88 51.271 77.4668
      vertex 67.88 53.9868 79.0347
    endloop
  endfacet
  facet normal -1 0 0
    outer loop
      vertex 67.88 89.38 0.959999
      vertex 67.88 48.2887 76.4978
      vertex 67.88 51.271 77.4668
    endloop
  endfacet
  facet normal -1 0 0
    outer loop
      vertex 67.88 89.38 0.959999
      vertex 67.88 45.17 76.17
      vertex 67.88 48.2887 76.4978
    endloop
  endfacet
  facet normal -1 0 0
    outer loop
      vertex 67.88 0.959999 0.959999
      vertex 67.88 45.17 76.17
      vertex 67.88 89.38 0.959999
    endloop
  endfacet
  facet normal -1 -0 0
    outer loop
      vertex 67.88 45.17 76.17
      vertex 67.88 0.959999 0.959999
      vertex 67.88 42.0513 76.4978
    endloop
  endfacet
  facet normal -1 -0 0
    outer loop
      vertex 67.88 42.0513 76.4978
      vertex 67.88 0.959999 0.959999
      vertex 67.88 39.069 77.4668
    endloop
  endfacet
  facet normal -1 -0 0
    outer loop
      vertex 67.88 39.069 77.4668
      vertex 67.88 0.959999 0.959999
      vertex 67.88 36.3532 79.0347
    endloop
  endfacet
  facet normal -1 0 0
    outer loop
      vertex 67.88 0.959999 91.17
      vertex 67.88 36.3532 79.0347
      vertex 67.88 0.959999 0.959999
    endloop
  endfacet
  facet normal -1 0 0
    outer loop
      vertex 67.88 36.3532 79.0347
      vertex 67.88 0.959999 91.17
      vertex 67.88 34.0228 81.133
    endloop
  endfacet
  facet normal -1 0 0
    outer loop
      vertex 67.88 34.0228 81.133
      vertex 67.88 0.959999 91.17
      vertex 67.88 32.1796 83.67
    endloop
  endfacet
  facet normal -1 0 0
    outer loop
      vertex 67.88 32.1796 83.67
      vertex 67.88 0.959999 91.17
      vertex 67.88 30.9042 86.5347
    endloop
  endfacet
  facet normal -1 0 0
    outer loop
      vertex 67.88 30.9042 86.5347
      vertex 67.88 0.959999 91.17
      vertex 67.88 30.2522 89.6021
    endloop
  endfacet
  facet normal -1 0 0
    outer loop
      vertex 67.88 30.2522 89.6021
      vertex 67.88 0.959999 91.17
      vertex 67.88 30.2522 91.17
    endloop
  endfacet
  facet normal -1 -0 0
    outer loop
      vertex 67.88 89.38 91.17
      vertex 67.88 60.0878 89.6021
      vertex 67.88 60.0878 91.17
    endloop
  endfacet
  facet normal -0 0 1
    outer loop
      vertex 0.959999 89.38 0.959999
      vertex 67.88 0.959999 0.959999
      vertex 67.88 89.38 0.959999
    endloop
  endfacet
  facet normal 0 0 1
    outer loop
      vertex 67.88 0.959999 0.959999
      vertex 0.959999 89.38 0.959999
      vertex 0.959999 0.959999 0.959999
    endloop
  endfacet
  facet normal 0 1 -0
    outer loop
      vertex 67.88 0.959999 0.959999
      vertex 0.959999 0.959999 91.17
      vertex 67.88 0.959999 91.17
    endloop
  endfacet
  facet normal 0 1 0
    outer loop
      vertex 0.959999 0.959999 91.17
      vertex 67.88 0.959999 0.959999
      vertex 0.959999 0.959999 0.959999
    endloop
  endfacet
  facet normal 0 -1 0
    outer loop
      vertex 0.959999 89.38 0.959999
      vertex 67.88 89.38 91.17
      vertex 0.959999 89.38 91.17
    endloop
  endfacet
  facet normal 0 -1 -0
    outer loop
      vertex 67.88 89.38 91.17
      vertex 0.959999 89.38 0.959999
      vertex 67.88 89.38 0.959999
    endloop
  endfacet
  facet normal -0 0.499999 0.866026
    outer loop
      vertex 0 39.069 77.4668
      vertex 0.959999 36.3532 79.0347
      vertex 0.959999 39.069 77.4668
    endloop
  endfacet
  facet normal 0 0.499999 0.866026
    outer loop
      vertex 0.959999 36.3532 79.0347
      vertex 0 39.069 77.4668
      vertex 0 36.3532 79.0347
    endloop
  endfacet
  facet normal -0 0.499999 0.866026
    outer loop
      vertex 67.88 39.069 77.4668
      vertex 68.84 36.3532 79.0347
      vertex 68.84 39.069 77.4668
    endloop
  endfacet
  facet normal 0 0.499999 0.866026
    outer loop
      vertex 68.84 36.3532 79.0347
      vertex 67.88 39.069 77.4668
      vertex 67.88 36.3532 79.0347
    endloop
  endfacet
  facet normal -0 0.10453 0.994522
    outer loop
      vertex 0 45.17 76.17
      vertex 0.959999 42.0513 76.4978
      vertex 0.959999 45.17 76.17
    endloop
  endfacet
  facet normal 0 0.10453 0.994522
    outer loop
      vertex 0.959999 42.0513 76.4978
      vertex 0 45.17 76.17
      vertex 0 42.0513 76.4978
    endloop
  endfacet
  facet normal -0 0.10453 0.994522
    outer loop
      vertex 67.88 45.17 76.17
      vertex 68.84 42.0513 76.4978
      vertex 68.84 45.17 76.17
    endloop
  endfacet
  facet normal 0 0.10453 0.994522
    outer loop
      vertex 68.84 42.0513 76.4978
      vertex 67.88 45.17 76.17
      vertex 67.88 42.0513 76.4978
    endloop
  endfacet
  facet normal 0 -0.499999 0.866026
    outer loop
      vertex 0 53.9868 79.0347
      vertex 0.959999 51.271 77.4668
      vertex 0.959999 53.9868 79.0347
    endloop
  endfacet
  facet normal 0 -0.499999 0.866026
    outer loop
      vertex 0.959999 51.271 77.4668
      vertex 0 53.9868 79.0347
      vertex 0 51.271 77.4668
    endloop
  endfacet
  facet normal 0 -0.499999 0.866026
    outer loop
      vertex 67.88 53.9868 79.0347
      vertex 68.84 51.271 77.4668
      vertex 68.84 53.9868 79.0347
    endloop
  endfacet
  facet normal 0 -0.499999 0.866026
    outer loop
      vertex 68.84 51.271 77.4668
      vertex 67.88 53.9868 79.0347
      vertex 67.88 51.271 77.4668
    endloop
  endfacet
  facet normal 0 -1 0
    outer loop
      vertex 0 60.0878 89.6021
      vertex 0.959999 60.0878 91.17
      vertex 0 60.0878 91.17
    endloop
  endfacet
  facet normal 0 -1 -0
    outer loop
      vertex 0.959999 60.0878 91.17
      vertex 0 60.0878 89.6021
      vertex 0.959999 60.0878 89.6021
    endloop
  endfacet
  facet normal 0 -1 0
    outer loop
      vertex 67.88 60.0878 89.6021
      vertex 68.84 60.0878 91.17
      vertex 67.88 60.0878 91.17
    endloop
  endfacet
  facet normal 0 -1 -0
    outer loop
      vertex 68.84 60.0878 91.17
      vertex 67.88 60.0878 89.6021
      vertex 68.84 60.0878 89.6021
    endloop
  endfacet
  facet normal 0 0.913545 0.406737
    outer loop
      vertex 0.959999 32.1796 83.67
      vertex 0 30.9042 86.5347
      vertex 0.959999 30.9042 86.5347
    endloop
  endfacet
  facet normal 0 0.913545 0.406737
    outer loop
      vertex 0 30.9042 86.5347
      vertex 0.959999 32.1796 83.67
      vertex 0 32.1796 83.67
    endloop
  endfacet
  facet normal 0 0.913545 0.406737
    outer loop
      vertex 68.84 32.1796 83.67
      vertex 67.88 30.9042 86.5347
      vertex 68.84 30.9042 86.5347
    endloop
  endfacet
  facet normal 0 0.913545 0.406737
    outer loop
      vertex 67.88 30.9042 86.5347
      vertex 68.84 32.1796 83.67
      vertex 67.88 32.1796 83.67
    endloop
  endfacet
  facet normal 0 -0.913545 0.406737
    outer loop
      vertex 0 58.1604 83.67
      vertex 0.959999 59.4358 86.5347
      vertex 0 59.4358 86.5347
    endloop
  endfacet
  facet normal 0 -0.913545 0.406737
    outer loop
      vertex 0.959999 59.4358 86.5347
      vertex 0 58.1604 83.67
      vertex 0.959999 58.1604 83.67
    endloop
  endfacet
  facet normal 0 -0.913545 0.406737
    outer loop
      vertex 67.88 58.1604 83.67
      vertex 68.84 59.4358 86.5347
      vertex 67.88 59.4358 86.5347
    endloop
  endfacet
  facet normal 0 -0.913545 0.406737
    outer loop
      vertex 68.84 59.4358 86.5347
      vertex 67.88 58.1604 83.67
      vertex 68.84 58.1604 83.67
    endloop
  endfacet
  facet normal 0 -0.10453 0.994522
    outer loop
      vertex 0 48.2887 76.4978
      vertex 0.959999 45.17 76.17
      vertex 0.959999 48.2887 76.4978
    endloop
  endfacet
  facet normal 0 -0.10453 0.994522
    outer loop
      vertex 0.959999 45.17 76.17
      vertex 0 48.2887 76.4978
      vertex 0 45.17 76.17
    endloop
  endfacet
  facet normal 0 -0.10453 0.994522
    outer loop
      vertex 67.88 48.2887 76.4978
      vertex 68.84 45.17 76.17
      vertex 68.84 48.2887 76.4978
    endloop
  endfacet
  facet normal 0 -0.10453 0.994522
    outer loop
      vertex 68.84 45.17 76.17
      vertex 67.88 48.2887 76.4978
      vertex 67.88 45.17 76.17
    endloop
  endfacet
  facet normal 0 -0.669131 0.743145
    outer loop
      vertex 0 56.3172 81.133
      vertex 0.959999 53.9868 79.0347
      vertex 0.959999 56.3172 81.133
    endloop
  endfacet
  facet normal 0 -0.669131 0.743145
    outer loop
      vertex 0.959999 53.9868 79.0347
      vertex 0 56.3172 81.133
      vertex 0 53.9868 79.0347
    endloop
  endfacet
  facet normal 0 -0.669131 0.743145
    outer loop
      vertex 67.88 56.3172 81.133
      vertex 68.84 53.9868 79.0347
      vertex 68.84 56.3172 81.133
    endloop
  endfacet
  facet normal 0 -0.669131 0.743145
    outer loop
      vertex 68.84 53.9868 79.0347
      vertex 67.88 56.3172 81.133
      vertex 67.88 53.9868 79.0347
    endloop
  endfacet
  facet normal 0 -0.309017 0.951057
    outer loop
      vertex 0 51.271 77.4668
      vertex 0.959999 48.2887 76.4978
      vertex 0.959999 51.271 77.4668
    endloop
  endfacet
  facet normal 0 -0.309017 0.951057
    outer loop
      vertex 0.959999 48.2887 76.4978
      vertex 0 51.271 77.4668
      vertex 0 48.2887 76.4978
    endloop
  endfacet
  facet normal 0 -0.309017 0.951057
    outer loop
      vertex 67.88 51.271 77.4668
      vertex 68.84 48.2887 76.4978
      vertex 68.84 51.271 77.4668
    endloop
  endfacet
  facet normal 0 -0.309017 0.951057
    outer loop
      vertex 68.84 48.2887 76.4978
      vertex 67.88 51.271 77.4668
      vertex 67.88 48.2887 76.4978
    endloop
  endfacet
  facet normal -0 0.669131 0.743145
    outer loop
      vertex 0 36.3532 79.0347
      vertex 0.959999 34.0228 81.133
      vertex 0.959999 36.3532 79.0347
    endloop
  endfacet
  facet normal 0 0.669131 0.743145
    outer loop
      vertex 0.959999 34.0228 81.133
      vertex 0 36.3532 79.0347
      vertex 0 34.0228 81.133
    endloop
  endfacet
  facet normal -0 0.669131 0.743145
    outer loop
      vertex 67.88 36.3532 79.0347
      vertex 68.84 34.0228 81.133
      vertex 68.84 36.3532 79.0347
    endloop
  endfacet
  facet normal 0 0.669131 0.743145
    outer loop
      vertex 68.84 34.0228 81.133
      vertex 67.88 36.3532 79.0347
      vertex 67.88 34.0228 81.133
    endloop
  endfacet
  facet normal 0 -0.978148 0.207912
    outer loop
      vertex 0 59.4358 86.5347
      vertex 0.959999 60.0878 89.6021
      vertex 0 60.0878 89.6021
    endloop
  endfacet
  facet normal 0 -0.978148 0.207912
    outer loop
      vertex 0.959999 60.0878 89.6021
      vertex 0 59.4358 86.5347
      vertex 0.959999 59.4358 86.5347
    endloop
  endfacet
  facet normal 0 -0.978148 0.207912
    outer loop
      vertex 67.88 59.4358 86.5347
      vertex 68.84 60.0878 89.6021
      vertex 67.88 60.0878 89.6021
    endloop
  endfacet
  facet normal 0 -0.978148 0.207912
    outer loop
      vertex 68.84 60.0878 89.6021
      vertex 67.88 59.4358 86.5347
      vertex 68.84 59.4358 86.5347
    endloop
  endfacet
  facet normal -0 0.309017 0.951056
    outer loop
      vertex 0 42.0513 76.4978
      vertex 0.959999 39.069 77.4668
      vertex 0.959999 42.0513 76.4978
    endloop
  endfacet
  facet normal 0 0.309017 0.951056
    outer loop
      vertex 0.959999 39.069 77.4668
      vertex 0 42.0513 76.4978
      vertex 0 39.069 77.4668
    endloop
  endfacet
  facet normal -0 0.309017 0.951056
    outer loop
      vertex 67.88 42.0513 76.4978
      vertex 68.84 39.069 77.4668
      vertex 68.84 42.0513 76.4978
    endloop
  endfacet
  facet normal 0 0.309017 0.951056
    outer loop
      vertex 68.84 39.069 77.4668
      vertex 67.88 42.0513 76.4978
      vertex 67.88 39.069 77.4668
    endloop
  endfacet
  facet normal 0 -0.809017 0.587786
    outer loop
      vertex 0 56.3172 81.133
      vertex 0.959999 58.1604 83.67
      vertex 0 58.1604 83.67
    endloop
  endfacet
  facet normal 0 -0.809017 0.587786
    outer loop
      vertex 0.959999 58.1604 83.67
      vertex 0 56.3172 81.133
      vertex 0.959999 56.3172 81.133
    endloop
  endfacet
  facet normal 0 -0.809017 0.587786
    outer loop
      vertex 67.88 56.3172 81.133
      vertex 68.84 58.1604 83.67
      vertex 67.88 58.1604 83.67
    endloop
  endfacet
  facet normal 0 -0.809017 0.587786
    outer loop
      vertex 68.84 58.1604 83.67
      vertex 67.88 56.3172 81.133
      vertex 68.84 56.3172 81.133
    endloop
  endfacet
  facet normal 0 0.978148 0.207912
    outer loop
      vertex 0.959999 30.9042 86.5347
      vertex 0 30.2522 89.6021
      vertex 0.959999 30.2522 89.6021
    endloop
  endfacet
  facet normal 0 0.978148 0.207912
    outer loop
      vertex 0 30.2522 89.6021
      vertex 0.959999 30.9042 86.5347
      vertex 0 30.9042 86.5347
    endloop
  endfacet
  facet normal 0 0.978148 0.207912
    outer loop
      vertex 68.84 30.9042 86.5347
      vertex 67.88 30.2522 89.6021
      vertex 68.84 30.2522 89.6021
    endloop
  endfacet
  facet normal 0 0.978148 0.207912
    outer loop
      vertex 67.88 30.2522 89.6021
      vertex 68.84 30.9042 86.5347
      vertex 67.88 30.9042 86.5347
    endloop
  endfacet
  facet normal 0 0.809017 0.587786
    outer loop
      vertex 0.959999 34.0228 81.133
      vertex 0 32.1796 83.67
      vertex 0.959999 32.1796 83.67
    endloop
  endfacet
  facet normal 0 0.809017 0.587786
    outer loop
      vertex 0 32.1796 83.67
      vertex 0.959999 34.0228 81.133
      vertex 0 34.0228 81.133
    endloop
  endfacet
  facet normal 0 0.809017 0.587786
    outer loop
      vertex 68.84 34.0228 81.133
      vertex 67.88 32.1796 83.67
      vertex 68.84 32.1796 83.67
    endloop
  endfacet
  facet normal 0 0.809017 0.587786
    outer loop
      vertex 67.88 32.1796 83.67
      vertex 68.84 34.0228 81.133
      vertex 67.88 34.0228 81.133
    endloop
  endfacet
  facet normal 0 1 -0
    outer loop
      vertex 0.959999 30.2522 89.6021
      vertex 0 30.2522 91.17
      vertex 0.959999 30.2522 91.17
    endloop
  endfacet
  facet normal 0 1 0
    outer loop
      vertex 0 30.2522 91.17
      vertex 0.959999 30.2522 89.6021
      vertex 0 30.2522 89.6021
    endloop
  endfacet
  facet normal 0 1 -0
    outer loop
      vertex 68.84 30.2522 89.6021
      vertex 67.88 30.2522 91.17
      vertex 68.84 30.2522 91.17
    endloop
  endfacet
  facet normal 0 1 0
    outer loop
      vertex 67.88 30.2522 91.17
      vertex 68.84 30.2522 89.6021
      vertex 67.88 30.2522 89.6021
    endloop
  endfacet
endsolid OpenSCAD_Model
